{"glyphs":{"0":{"ha":749,"x_min":58,"x_max":692,"o":"m 692 490 q 670 274 692 368 q 606 115 648 180 q 504 17 564 50 q 366 -17 443 -17 q 235 15 292 -17 q 138 109 178 47 q 79 261 99 171 q 58 467 58 351 q 80 692 58 594 q 142 856 101 789 q 245 955 184 922 q 386 989 307 989 q 692 490 692 989 m 578 479 q 380 895 578 895 q 172 472 172 895 q 376 78 172 78 q 578 479 578 78 z "},"1":{"ha":749,"x_min":155,"x_max":491,"o":"m 491 0 l 380 0 l 380 840 q 342 811 367 827 q 287 778 317 794 q 221 747 256 762 q 155 725 187 733 l 155 838 q 232 865 191 848 q 313 904 273 882 q 388 948 353 925 q 449 994 423 972 l 491 994 l 491 0 z "},"2":{"ha":749,"x_min":74,"x_max":674,"o":"m 524 718 q 510 795 524 762 q 472 851 496 829 q 415 884 448 873 q 345 895 382 895 q 281 886 312 895 q 220 861 250 877 q 163 824 191 846 q 112 776 136 802 l 112 895 q 217 965 159 941 q 358 989 275 989 q 469 971 418 989 q 557 921 519 954 q 615 839 594 888 q 637 727 637 790 q 624 623 637 669 q 584 534 610 576 q 516 455 557 493 q 420 378 475 417 q 308 294 352 329 q 237 230 263 260 q 200 169 211 199 q 190 100 190 139 l 674 100 l 674 0 l 74 0 l 74 48 q 87 158 74 111 q 132 248 101 205 q 214 334 163 291 q 338 430 264 376 q 426 503 391 468 q 484 572 462 537 q 514 642 505 606 q 524 718 524 677 z "},"3":{"ha":749,"x_min":83,"x_max":646,"o":"m 646 275 q 622 156 646 210 q 552 63 597 102 q 444 4 507 25 q 304 -17 380 -17 q 83 36 165 -17 l 83 155 q 309 78 182 78 q 400 91 359 78 q 471 128 441 104 q 516 187 500 153 q 532 265 532 222 q 261 456 532 456 l 180 456 l 180 550 l 257 550 q 497 729 497 550 q 314 895 497 895 q 121 825 211 895 l 121 933 q 342 989 214 989 q 452 972 403 989 q 537 924 502 955 q 592 851 572 894 q 611 757 611 808 q 417 510 611 565 l 417 507 q 509 483 467 502 q 581 435 551 465 q 629 365 612 405 q 646 275 646 324 z "},"4":{"ha":749,"x_min":9,"x_max":701,"o":"m 576 972 l 576 330 l 701 330 l 701 229 l 576 229 l 576 0 l 467 0 l 467 229 l 9 229 l 9 325 q 138 478 73 397 q 263 644 203 560 q 373 812 322 728 q 458 972 423 896 l 576 972 m 135 330 l 467 330 l 467 806 q 370 648 416 718 q 284 521 325 578 q 205 418 243 464 q 135 330 168 372 z "},"5":{"ha":749,"x_min":111,"x_max":657,"o":"m 657 297 q 633 168 657 226 q 563 69 608 111 q 454 5 518 28 q 313 -17 391 -17 q 111 24 177 -17 l 111 142 q 314 78 210 78 q 409 94 367 78 q 481 137 452 109 q 527 204 511 165 q 543 290 543 243 q 479 439 543 385 q 294 493 416 493 q 253 492 275 493 q 210 491 231 492 q 167 488 188 490 q 130 485 146 487 l 163 972 l 612 972 l 612 872 l 259 872 l 239 587 q 286 589 261 588 q 329 590 310 590 q 467 570 406 590 q 571 512 528 549 q 635 419 613 474 q 657 297 657 365 z "},"6":{"ha":749,"x_min":75,"x_max":693,"o":"m 693 309 q 670 178 693 237 q 606 75 647 118 q 509 7 566 31 q 387 -17 453 -17 q 256 14 314 -17 q 158 101 198 44 q 96 241 117 159 q 75 428 75 324 q 103 658 75 555 q 183 835 132 762 q 309 949 235 909 q 472 989 382 989 q 633 961 572 989 l 633 856 q 475 895 558 895 q 357 865 410 895 q 268 783 305 836 q 211 654 231 730 q 191 487 191 579 l 193 487 q 415 608 260 608 q 530 587 479 608 q 617 525 581 565 q 673 431 654 486 q 693 309 693 376 m 579 294 q 566 386 579 345 q 529 455 553 427 q 470 499 505 484 q 390 514 435 514 q 313 498 349 514 q 252 456 278 483 q 212 394 227 429 q 197 318 197 358 q 212 224 197 268 q 252 148 226 180 q 313 97 277 115 q 392 78 349 78 q 469 94 434 78 q 528 138 503 110 q 566 207 552 167 q 579 294 579 246 z "},"7":{"ha":749,"x_min":66,"x_max":685,"o":"m 685 908 q 631 812 663 869 q 564 682 600 754 q 492 528 529 610 q 424 357 456 445 q 368 178 392 269 q 333 0 344 87 l 214 0 q 251 177 226 87 q 309 355 277 268 q 377 523 341 442 q 447 671 413 604 q 509 791 481 739 q 554 872 537 843 l 66 872 l 66 972 l 685 972 l 685 908 z "},"8":{"ha":749,"x_min":61,"x_max":692,"o":"m 61 271 q 73 349 61 310 q 108 422 85 388 q 164 484 131 456 q 241 528 198 511 q 140 618 178 563 q 103 741 103 673 q 124 840 103 794 q 181 918 144 885 q 268 970 218 951 q 376 989 318 989 q 486 970 435 989 q 572 918 536 951 q 629 839 609 884 q 650 741 650 793 q 612 618 650 673 q 513 528 575 563 q 589 484 555 511 q 645 422 622 456 q 680 349 667 388 q 692 271 692 310 q 669 155 692 208 q 604 64 646 102 q 504 5 562 26 q 376 -16 446 -16 q 250 5 307 -16 q 150 64 192 26 q 84 155 108 102 q 61 271 61 208 m 182 281 q 196 199 182 235 q 235 136 210 162 q 297 97 260 111 q 377 83 333 83 q 456 97 420 83 q 518 137 492 111 q 558 199 544 163 q 573 281 573 236 q 559 357 573 321 q 519 420 545 393 q 458 463 494 447 q 377 478 422 478 q 299 464 335 478 q 238 423 264 449 q 197 360 212 397 q 182 281 182 324 m 216 732 q 229 668 216 697 q 263 616 241 638 q 315 582 286 594 q 377 569 344 569 q 440 582 410 569 q 491 617 469 595 q 526 668 513 639 q 538 732 538 698 q 526 797 538 767 q 492 848 513 827 q 440 883 470 870 q 377 895 411 895 q 312 882 341 895 q 261 847 282 869 q 228 795 239 825 q 216 732 216 766 z "},"9":{"ha":749,"x_min":64,"x_max":681,"o":"m 681 545 q 654 307 681 411 q 577 131 628 203 q 453 21 526 58 q 286 -17 380 -17 q 117 17 190 -17 l 117 123 q 289 78 197 78 q 407 105 355 78 q 494 184 458 132 q 549 312 530 236 q 568 486 568 388 l 566 486 q 349 361 503 361 q 234 383 286 361 q 144 445 182 405 q 85 541 106 486 q 64 664 64 597 q 87 795 64 736 q 152 898 111 855 q 251 965 194 941 q 376 989 309 989 q 506 959 450 989 q 602 873 563 930 q 661 734 640 817 q 681 545 681 651 m 561 644 q 546 747 561 701 q 506 826 532 793 q 445 877 480 859 q 367 895 409 895 q 292 879 327 895 q 232 834 258 863 q 192 765 207 805 q 178 679 178 726 q 192 587 178 627 q 231 518 205 546 q 293 475 257 490 q 374 460 330 460 q 447 474 412 460 q 506 514 481 489 q 546 572 532 538 q 561 644 561 606 z "},"\u0000":{"ha":0,"x_min":0,"x_max":0,"o":""},"\r":{"ha":380,"x_min":0,"x_max":0,"o":""}," ":{"ha":380,"x_min":0,"x_max":0,"o":""},"A":{"ha":896,"x_min":15,"x_max":880,"o":"m 880 0 l 754 0 l 651 273 l 239 273 l 142 0 l 15 0 l 388 972 l 506 972 l 880 0 m 614 375 l 461 789 q 446 854 454 810 l 444 854 q 428 789 437 813 l 277 375 l 614 375 z "},"B":{"ha":796,"x_min":127,"x_max":726,"o":"m 127 0 l 127 972 l 404 972 q 604 911 530 972 q 678 750 678 849 q 633 606 678 667 q 510 519 589 545 l 510 517 q 667 443 608 505 q 726 279 726 380 q 637 77 726 155 q 411 0 547 0 l 127 0 m 241 869 l 241 555 l 358 555 q 505 601 452 555 q 559 728 559 646 q 372 869 559 869 l 241 869 m 241 453 l 241 103 l 396 103 q 552 151 496 103 q 607 281 607 198 q 372 453 607 453 l 241 453 z "},"C":{"ha":860,"x_min":64,"x_max":789,"o":"m 789 41 q 521 -16 682 -16 q 189 117 313 -16 q 64 468 64 251 q 204 845 64 701 q 560 989 345 989 q 789 949 699 989 l 789 827 q 559 886 685 886 q 287 774 391 886 q 183 475 183 662 q 280 192 183 297 q 536 86 378 86 q 789 151 682 86 l 789 41 z "},"D":{"ha":974,"x_min":127,"x_max":910,"o":"m 127 0 l 127 972 l 396 972 q 910 498 910 972 q 767 137 910 273 q 385 0 625 0 l 127 0 m 241 869 l 241 103 l 387 103 q 684 205 578 103 q 791 496 791 308 q 393 869 791 869 l 241 869 z "},"E":{"ha":703,"x_min":127,"x_max":643,"o":"m 643 0 l 127 0 l 127 972 l 621 972 l 621 869 l 241 869 l 241 546 l 593 546 l 593 444 l 241 444 l 241 103 l 643 103 l 643 0 z "},"F":{"ha":678,"x_min":127,"x_max":621,"o":"m 621 869 l 241 869 l 241 533 l 593 533 l 593 431 l 241 431 l 241 0 l 127 0 l 127 972 l 621 972 l 621 869 z "},"G":{"ha":953,"x_min":64,"x_max":854,"o":"m 854 66 q 529 -16 708 -16 q 192 118 321 -16 q 64 473 64 252 q 207 844 64 699 q 568 989 349 989 q 835 937 727 989 l 835 811 q 555 886 717 886 q 288 773 392 886 q 183 481 183 661 q 280 192 183 297 q 543 86 377 86 q 741 132 657 86 l 741 404 l 528 404 l 528 507 l 854 507 l 854 66 z "},"H":{"ha":986,"x_min":127,"x_max":859,"o":"m 859 0 l 745 0 l 745 444 l 241 444 l 241 0 l 127 0 l 127 972 l 241 972 l 241 546 l 745 546 l 745 972 l 859 972 l 859 0 z "},"I":{"ha":370,"x_min":127,"x_max":241,"o":"m 241 0 l 127 0 l 127 972 l 241 972 l 241 0 z "},"J":{"ha":496,"x_min":14,"x_max":376,"o":"m 376 349 q 303 80 376 176 q 107 -16 230 -16 q 14 0 50 -16 l 14 113 q 109 86 50 86 q 262 347 262 86 l 262 972 l 376 972 l 376 349 z "},"K":{"ha":806,"x_min":127,"x_max":804,"o":"m 804 0 l 646 0 l 270 445 q 244 479 249 470 l 241 479 l 241 0 l 127 0 l 127 972 l 241 972 l 241 515 l 244 515 q 270 549 254 530 l 633 972 l 775 972 l 358 506 l 804 0 z "},"L":{"ha":654,"x_min":127,"x_max":632,"o":"m 632 0 l 127 0 l 127 972 l 241 972 l 241 103 l 632 103 l 632 0 z "},"M":{"ha":1247,"x_min":127,"x_max":1119,"o":"m 1119 0 l 1006 0 l 1006 652 q 1015 842 1006 730 l 1013 842 q 983 747 996 776 l 651 0 l 595 0 l 264 742 q 235 842 250 774 l 232 842 q 237 651 237 783 l 237 0 l 127 0 l 127 972 l 278 972 l 576 294 q 621 178 611 216 l 625 178 q 672 297 654 258 l 977 972 l 1119 972 l 1119 0 z "},"N":{"ha":1039,"x_min":127,"x_max":911,"o":"m 911 0 l 772 0 l 271 775 q 240 836 252 804 l 236 836 q 241 703 241 805 l 241 0 l 127 0 l 127 972 l 275 972 l 762 210 q 802 144 793 162 l 804 144 q 798 288 798 186 l 798 972 l 911 972 l 911 0 z "},"O":{"ha":1047,"x_min":64,"x_max":983,"o":"m 519 -16 q 188 120 313 -16 q 64 475 64 256 q 191 849 64 709 q 536 989 317 989 q 860 853 737 989 q 983 498 983 718 q 857 122 983 260 q 519 -16 731 -16 m 528 886 q 279 775 374 886 q 183 485 183 665 q 276 196 183 305 q 519 86 370 86 q 772 191 680 86 q 864 483 864 295 q 774 781 864 675 q 528 886 685 886 z "},"P":{"ha":778,"x_min":127,"x_max":722,"o":"m 241 368 l 241 0 l 127 0 l 127 972 l 395 972 q 636 897 551 972 q 722 682 722 821 q 627 456 722 544 q 370 368 532 368 l 241 368 m 241 869 l 241 471 l 361 471 q 541 525 479 471 q 603 677 603 578 q 375 869 603 869 l 241 869 z "},"Q":{"ha":1047,"x_min":64,"x_max":1067,"o":"m 519 -16 q 188 120 313 -16 q 64 475 64 256 q 191 849 64 710 q 536 989 318 989 q 860 853 736 989 q 983 498 983 718 q 857 122 983 260 q 793 65 827 89 l 1067 -131 l 860 -131 l 677 6 q 519 -16 605 -16 m 528 886 q 279 775 374 886 q 183 485 183 665 q 276 195 183 306 q 519 86 370 86 q 772 191 680 86 q 864 483 864 295 q 774 781 864 676 q 528 886 685 886 z "},"R":{"ha":831,"x_min":127,"x_max":825,"o":"m 825 0 l 689 0 l 526 273 q 483 337 504 311 q 440 381 462 364 q 392 406 418 398 q 335 414 367 414 l 241 414 l 241 0 l 127 0 l 127 972 l 418 972 q 535 957 481 972 q 629 908 589 941 q 691 827 669 876 q 713 713 713 779 q 698 620 713 663 q 655 545 683 578 q 587 488 627 511 q 498 452 547 465 l 498 449 q 540 424 522 438 q 574 391 558 410 q 607 348 591 372 q 642 292 623 324 l 825 0 m 241 869 l 241 517 l 396 517 q 475 530 439 517 q 538 567 511 543 q 579 626 564 591 q 594 704 594 661 q 544 826 594 782 q 397 869 493 869 l 241 869 z "},"S":{"ha":738,"x_min":82,"x_max":671,"o":"m 82 39 l 82 174 q 137 137 105 153 q 205 110 170 121 q 277 92 241 98 q 343 86 313 86 q 500 125 448 86 q 552 237 552 164 q 535 306 552 277 q 487 359 517 335 q 415 405 456 383 q 325 452 373 427 q 230 504 274 477 q 153 562 186 530 q 102 634 121 594 q 83 729 83 675 q 113 845 83 795 q 189 926 142 894 q 297 973 237 958 q 421 989 358 989 q 631 954 565 989 l 631 826 q 410 886 545 886 q 335 878 372 886 q 269 852 298 870 q 221 807 239 835 q 203 739 203 779 q 217 675 203 702 q 258 625 231 648 q 324 582 285 603 q 414 536 363 561 q 513 481 466 510 q 595 418 559 453 q 651 342 630 384 q 671 245 671 300 q 643 124 671 174 q 567 43 615 74 q 457 -2 519 12 q 326 -16 395 -16 q 269 -13 302 -16 q 199 -2 235 -9 q 133 16 164 5 q 82 39 101 26 z "},"T":{"ha":728,"x_min":28,"x_max":703,"o":"m 703 869 l 422 869 l 422 0 l 308 0 l 308 869 l 28 869 l 28 972 l 703 972 l 703 869 z "},"U":{"ha":954,"x_min":115,"x_max":839,"o":"m 839 393 q 469 -16 839 -16 q 115 378 115 -16 l 115 972 l 229 972 l 229 385 q 481 86 229 86 q 725 375 725 86 l 725 972 l 839 972 l 839 393 z "},"V":{"ha":863,"x_min":12,"x_max":850,"o":"m 850 972 l 490 0 l 365 0 l 12 972 l 139 972 l 408 201 q 428 115 421 164 l 431 115 q 453 203 436 156 l 728 972 l 850 972 z "},"W":{"ha":1297,"x_min":18,"x_max":1280,"o":"m 1280 972 l 1006 0 l 872 0 l 672 711 q 656 810 659 756 l 654 810 q 636 712 650 760 l 435 0 l 302 0 l 18 972 l 143 972 l 350 227 q 366 129 363 180 l 370 129 q 391 227 373 165 l 606 972 l 715 972 l 921 221 q 937 130 932 182 l 940 130 q 958 224 943 165 l 1157 972 l 1280 972 z "},"X":{"ha":819,"x_min":18,"x_max":799,"o":"m 799 0 l 660 0 l 436 372 q 414 420 426 389 l 411 420 q 388 372 404 405 l 157 0 l 18 0 l 343 489 l 43 972 l 183 972 l 382 631 q 416 563 401 597 l 419 563 q 457 633 441 608 l 664 972 l 795 972 l 489 490 l 799 0 z "},"Y":{"ha":768,"x_min":12,"x_max":760,"o":"m 760 972 l 439 359 l 439 0 l 325 0 l 325 357 l 12 972 l 142 972 l 359 533 q 383 473 363 525 l 385 473 q 411 533 392 496 l 639 972 l 760 972 z "},"Z":{"ha":792,"x_min":22,"x_max":762,"o":"m 762 945 l 193 103 l 749 103 l 749 0 l 22 0 l 22 32 l 587 869 l 68 869 l 68 972 l 762 972 l 762 945 z "},"À":{"ha":896,"x_min":15,"x_max":880,"o":"m 880 0 l 754 0 l 651 273 l 239 273 l 142 0 l 15 0 l 388 972 l 506 972 l 880 0 m 614 375 l 461 789 q 446 854 454 810 l 444 854 q 428 789 437 813 l 277 375 l 614 375 m 514 1062 l 428 1062 l 250 1284 l 364 1284 l 514 1062 z "},"Á":{"ha":896,"x_min":15,"x_max":880,"o":"m 880 0 l 754 0 l 651 273 l 239 273 l 142 0 l 15 0 l 388 972 l 506 972 l 880 0 m 614 375 l 461 789 q 446 854 454 810 l 444 854 q 428 789 437 813 l 277 375 l 614 375 m 588 1284 l 410 1062 l 324 1062 l 475 1284 l 588 1284 z "},"Â":{"ha":896,"x_min":15,"x_max":880,"o":"m 880 0 l 754 0 l 651 273 l 239 273 l 142 0 l 15 0 l 388 972 l 506 972 l 880 0 m 614 375 l 461 789 q 446 854 454 810 l 444 854 q 428 789 437 813 l 277 375 l 614 375 m 629 1061 l 546 1061 l 435 1217 l 323 1061 l 246 1061 l 392 1286 l 482 1286 l 629 1061 z "},"Ã":{"ha":896,"x_min":15,"x_max":880,"o":"m 880 0 l 754 0 l 651 273 l 239 273 l 142 0 l 15 0 l 388 972 l 506 972 l 880 0 m 614 375 l 461 789 q 446 854 454 810 l 444 854 q 428 789 437 813 l 277 375 l 614 375 m 663 1223 q 630 1106 663 1152 q 542 1061 597 1061 q 432 1097 494 1061 q 351 1126 380 1126 q 292 1049 292 1126 l 228 1049 q 260 1165 228 1122 q 351 1209 293 1209 q 452 1174 395 1209 q 539 1144 503 1144 q 596 1223 596 1144 l 663 1223 z "},"Ä":{"ha":896,"x_min":15,"x_max":880,"o":"m 880 0 l 754 0 l 651 273 l 239 273 l 142 0 l 15 0 l 388 972 l 506 972 l 880 0 m 614 375 l 461 789 q 446 854 454 810 l 444 854 q 428 789 437 813 l 277 375 l 614 375 m 570 1061 q 523 1080 543 1061 q 503 1128 503 1099 q 522 1176 503 1157 q 568 1195 541 1195 q 616 1176 597 1195 q 636 1128 636 1156 q 617 1081 636 1101 q 570 1061 598 1061 m 309 1061 q 261 1081 281 1061 q 241 1128 241 1101 q 260 1176 241 1157 q 307 1195 279 1195 q 355 1176 335 1195 q 376 1128 376 1156 q 356 1081 376 1101 q 309 1061 336 1061 z "},"Å":{"ha":896,"x_min":15,"x_max":880,"o":"m 880 0 l 754 0 l 651 273 l 239 273 l 142 0 l 15 0 l 374 935 q 305 1046 305 970 q 346 1143 305 1106 q 449 1181 387 1181 q 547 1144 509 1181 q 585 1050 585 1107 q 519 937 585 974 l 880 0 m 445 1125 q 389 1104 411 1125 q 368 1050 368 1082 q 445 972 368 972 q 500 995 477 972 q 522 1050 522 1017 q 500 1104 522 1083 q 445 1125 477 1125 m 614 375 l 461 789 q 446 854 454 810 l 444 854 q 428 789 437 813 l 277 375 l 614 375 z "},"Æ":{"ha":1195,"x_min":7,"x_max":1131,"o":"m 1131 0 l 616 0 l 616 273 l 270 273 l 139 0 l 7 0 l 481 972 l 1108 972 l 1108 869 l 729 869 l 729 546 l 1081 546 l 1081 444 l 729 444 l 729 103 l 1131 103 l 1131 0 m 616 375 l 616 869 l 551 869 l 317 375 l 616 375 z "},"Ç":{"ha":860,"x_min":64,"x_max":789,"o":"m 789 41 q 521 -16 682 -16 q 189 117 313 -16 q 64 468 64 251 q 204 845 64 701 q 560 989 345 989 q 789 949 699 989 l 789 827 q 559 886 685 886 q 287 774 391 886 q 183 475 183 662 q 280 192 183 297 q 536 86 378 86 q 789 151 682 86 l 789 41 m 651 -174 q 465 -293 651 -293 q 420 -292 439 -293 l 420 -231 q 468 -235 450 -235 q 564 -174 564 -235 q 476 -121 564 -121 q 448 -123 469 -121 l 448 0 l 522 0 l 522 -71 q 616 -98 581 -71 q 651 -174 651 -125 z "},"È":{"ha":703,"x_min":127,"x_max":643,"o":"m 643 0 l 127 0 l 127 972 l 621 972 l 621 869 l 241 869 l 241 546 l 593 546 l 593 444 l 241 444 l 241 103 l 643 103 l 643 0 m 477 1062 l 391 1062 l 213 1284 l 327 1284 l 477 1062 z "},"É":{"ha":703,"x_min":127,"x_max":643,"o":"m 643 0 l 127 0 l 127 972 l 621 972 l 621 869 l 241 869 l 241 546 l 593 546 l 593 444 l 241 444 l 241 103 l 643 103 l 643 0 m 545 1284 l 367 1061 l 281 1061 l 432 1284 l 545 1284 z "},"Ê":{"ha":703,"x_min":127,"x_max":643,"o":"m 643 0 l 127 0 l 127 972 l 621 972 l 621 869 l 241 869 l 241 546 l 593 546 l 593 444 l 241 444 l 241 103 l 643 103 l 643 0 m 561 1063 l 478 1063 l 367 1219 l 255 1063 l 178 1063 l 324 1288 l 414 1288 l 561 1063 z "},"Ë":{"ha":703,"x_min":127,"x_max":643,"o":"m 643 0 l 127 0 l 127 972 l 621 972 l 621 869 l 241 869 l 241 546 l 593 546 l 593 444 l 241 444 l 241 103 l 643 103 l 643 0 m 508 1062 q 461 1081 481 1062 q 441 1129 441 1100 q 460 1177 441 1158 q 507 1196 479 1196 q 555 1176 535 1196 q 574 1129 574 1157 q 555 1082 574 1101 q 508 1062 536 1062 m 248 1062 q 199 1082 219 1062 q 179 1129 179 1102 q 198 1177 179 1158 q 245 1196 218 1196 q 294 1176 273 1196 q 314 1129 314 1157 q 294 1082 314 1101 q 248 1062 275 1062 z "},"Ì":{"ha":370,"x_min":19,"x_max":283,"o":"m 241 0 l 127 0 l 127 972 l 241 972 l 241 0 m 283 1062 l 197 1062 l 19 1284 l 133 1284 l 283 1062 z "},"Í":{"ha":370,"x_min":82,"x_max":346,"o":"m 241 0 l 127 0 l 127 972 l 241 972 l 241 0 m 346 1284 l 168 1062 l 82 1062 l 233 1284 l 346 1284 z "},"Î":{"ha":370,"x_min":-2,"x_max":380,"o":"m 241 0 l 127 0 l 127 972 l 241 972 l 241 0 m 380 1063 l 298 1063 l 186 1219 l 75 1063 l -2 1063 l 144 1288 l 234 1288 l 380 1063 z "},"Ï":{"ha":370,"x_min":-9,"x_max":386,"o":"m 241 0 l 127 0 l 127 972 l 241 972 l 241 0 m 319 1062 q 273 1081 292 1062 q 253 1129 253 1100 q 272 1177 253 1158 q 318 1196 291 1196 q 366 1176 347 1196 q 386 1129 386 1157 q 367 1082 386 1101 q 319 1062 348 1062 m 59 1062 q 11 1082 31 1062 q -9 1129 -9 1102 q 10 1177 -9 1158 q 57 1196 29 1196 q 105 1176 85 1196 q 125 1129 125 1157 q 106 1082 125 1101 q 59 1062 86 1062 z "},"Ñ":{"ha":1039,"x_min":127,"x_max":911,"o":"m 911 0 l 772 0 l 271 775 q 240 836 252 804 l 236 836 q 241 703 241 805 l 241 0 l 127 0 l 127 972 l 275 972 l 762 210 q 802 144 793 162 l 804 144 q 798 288 798 186 l 798 972 l 911 972 l 911 0 m 755 1223 q 722 1106 755 1152 q 634 1061 690 1061 q 524 1097 586 1061 q 444 1126 472 1126 q 384 1049 384 1126 l 320 1049 q 353 1165 320 1122 q 444 1209 385 1209 q 545 1174 488 1209 q 631 1144 595 1144 q 688 1223 688 1144 l 755 1223 z "},"Ò":{"ha":1047,"x_min":64,"x_max":983,"o":"m 519 -16 q 188 120 313 -16 q 64 475 64 256 q 191 849 64 709 q 536 989 317 989 q 860 853 737 989 q 983 498 983 718 q 857 122 983 260 q 519 -16 731 -16 m 528 886 q 279 775 374 886 q 183 485 183 665 q 276 196 183 305 q 519 86 370 86 q 772 191 680 86 q 864 483 864 295 q 774 781 864 675 q 528 886 685 886 m 597 1062 l 511 1062 l 333 1284 l 447 1284 l 597 1062 z "},"Ó":{"ha":1047,"x_min":64,"x_max":983,"o":"m 519 -16 q 188 120 313 -16 q 64 475 64 256 q 191 849 64 709 q 536 989 317 989 q 860 853 737 989 q 983 498 983 718 q 857 122 983 260 q 519 -16 731 -16 m 528 886 q 279 775 374 886 q 183 485 183 665 q 276 196 183 305 q 519 86 370 86 q 772 191 680 86 q 864 483 864 295 q 774 781 864 675 q 528 886 685 886 m 697 1284 l 519 1062 l 433 1062 l 585 1284 l 697 1284 z "},"Ô":{"ha":1047,"x_min":64,"x_max":983,"o":"m 519 -16 q 188 120 313 -16 q 64 475 64 256 q 191 849 64 709 q 536 989 317 989 q 860 853 737 989 q 983 498 983 718 q 857 122 983 260 q 519 -16 731 -16 m 528 886 q 279 775 374 886 q 183 485 183 665 q 276 196 183 305 q 519 86 370 86 q 772 191 680 86 q 864 483 864 295 q 774 781 864 675 q 528 886 685 886 m 721 1062 l 638 1062 l 527 1218 l 415 1062 l 338 1062 l 484 1287 l 574 1287 l 721 1062 z "},"Õ":{"ha":1047,"x_min":64,"x_max":983,"o":"m 519 -16 q 188 120 313 -16 q 64 475 64 256 q 191 849 64 709 q 536 989 317 989 q 860 853 737 989 q 983 498 983 718 q 857 122 983 260 q 519 -16 731 -16 m 528 886 q 279 775 374 886 q 183 485 183 665 q 276 196 183 305 q 519 86 370 86 q 772 191 680 86 q 864 483 864 295 q 774 781 864 675 q 528 886 685 886 m 748 1222 q 715 1106 748 1151 q 627 1061 683 1061 q 517 1096 579 1061 q 437 1125 465 1125 q 377 1048 377 1125 l 313 1048 q 346 1165 313 1121 q 437 1208 378 1208 q 538 1173 481 1208 q 625 1143 588 1143 q 682 1222 682 1143 l 748 1222 z "},"Ö":{"ha":1047,"x_min":64,"x_max":983,"o":"m 519 -16 q 188 120 313 -16 q 64 475 64 256 q 191 849 64 709 q 536 989 317 989 q 860 853 737 989 q 983 498 983 718 q 857 122 983 260 q 519 -16 731 -16 m 528 886 q 279 775 374 886 q 183 485 183 665 q 276 196 183 305 q 519 86 370 86 q 772 191 680 86 q 864 483 864 295 q 774 781 864 675 q 528 886 685 886 m 656 1060 q 610 1079 629 1060 q 590 1127 590 1098 q 609 1175 590 1156 q 655 1194 628 1194 q 703 1174 684 1194 q 723 1127 723 1155 q 704 1080 723 1099 q 656 1060 685 1060 m 396 1060 q 348 1080 368 1060 q 328 1127 328 1100 q 347 1175 328 1156 q 394 1194 366 1194 q 442 1174 422 1194 q 463 1127 463 1155 q 443 1080 463 1099 q 396 1060 423 1060 z "},"Ø":{"ha":1047,"x_min":64,"x_max":983,"o":"m 220 89 l 117 -35 l 64 9 l 171 139 q 64 475 64 271 q 190 848 64 707 q 536 989 317 989 q 808 901 694 989 l 900 1011 l 953 968 l 859 856 q 983 498 983 720 q 857 122 983 260 q 519 -16 731 -16 q 220 89 339 -16 m 739 817 q 528 886 654 886 q 278 774 374 886 q 183 485 183 663 q 250 232 183 334 l 739 817 m 785 766 l 293 179 q 519 86 382 86 q 772 191 680 86 q 864 483 864 296 q 785 766 864 659 z "},"Œ":{"ha":1293,"x_min":64,"x_max":1227,"o":"m 1227 0 l 739 0 q 646 -9 728 0 q 522 -16 579 -16 q 187 120 311 -16 q 64 475 64 256 q 192 849 64 709 q 541 989 321 989 q 662 982 602 989 q 739 972 738 972 l 1206 972 l 1206 869 l 826 869 l 826 546 l 1177 546 l 1177 444 l 826 444 l 826 103 l 1227 103 l 1227 0 m 712 109 l 712 867 q 530 886 604 886 q 279 773 375 886 q 183 485 183 661 q 278 198 183 310 q 526 86 372 86 q 712 109 605 86 z "},"Š":{"ha":738,"x_min":82,"x_max":671,"o":"m 82 39 l 82 174 q 137 137 105 153 q 205 110 170 121 q 277 92 241 98 q 343 86 313 86 q 500 125 448 86 q 552 237 552 164 q 535 306 552 277 q 487 359 517 335 q 415 405 456 383 q 325 452 373 427 q 230 504 274 477 q 153 562 186 530 q 102 634 121 594 q 83 729 83 675 q 113 845 83 795 q 189 926 142 894 q 297 973 237 958 q 421 989 358 989 q 631 954 565 989 l 631 826 q 410 886 545 886 q 335 878 372 886 q 269 852 298 870 q 221 807 239 835 q 203 739 203 779 q 217 675 203 702 q 258 625 231 648 q 324 582 285 603 q 414 536 363 561 q 513 481 466 510 q 595 418 559 453 q 651 342 630 384 q 671 245 671 300 q 643 124 671 174 q 567 43 615 74 q 457 -2 519 12 q 326 -16 395 -16 q 269 -13 302 -16 q 199 -2 235 -9 q 133 16 164 5 q 82 39 101 26 m 560 1287 l 415 1063 l 326 1063 l 179 1287 l 257 1287 l 368 1132 l 479 1287 l 560 1287 z "},"Ù":{"ha":954,"x_min":115,"x_max":839,"o":"m 839 393 q 469 -16 839 -16 q 115 378 115 -16 l 115 972 l 229 972 l 229 385 q 481 86 229 86 q 725 375 725 86 l 725 972 l 839 972 l 839 393 m 563 1062 l 477 1062 l 299 1284 l 413 1284 l 563 1062 z "},"Ú":{"ha":954,"x_min":115,"x_max":839,"o":"m 839 393 q 469 -16 839 -16 q 115 378 115 -16 l 115 972 l 229 972 l 229 385 q 481 86 229 86 q 725 375 725 86 l 725 972 l 839 972 l 839 393 m 651 1284 l 473 1061 l 387 1061 l 538 1284 l 651 1284 z "},"Û":{"ha":954,"x_min":115,"x_max":839,"o":"m 839 393 q 469 -16 839 -16 q 115 378 115 -16 l 115 972 l 229 972 l 229 385 q 481 86 229 86 q 725 375 725 86 l 725 972 l 839 972 l 839 393 m 669 1063 l 587 1063 l 475 1219 l 363 1063 l 287 1063 l 433 1288 l 523 1288 l 669 1063 z "},"Ü":{"ha":954,"x_min":115,"x_max":839,"o":"m 839 393 q 469 -16 839 -16 q 115 378 115 -16 l 115 972 l 229 972 l 229 385 q 481 86 229 86 q 725 375 725 86 l 725 972 l 839 972 l 839 393 m 607 1063 q 560 1082 580 1063 q 541 1130 541 1101 q 559 1177 541 1158 q 606 1196 578 1196 q 654 1177 634 1196 q 673 1130 673 1158 q 654 1082 673 1102 q 607 1063 635 1063 m 347 1063 q 298 1083 318 1063 q 278 1130 278 1103 q 297 1177 278 1158 q 345 1196 317 1196 q 393 1177 372 1196 q 413 1130 413 1158 q 393 1082 413 1102 q 347 1063 374 1063 z "},"Ý":{"ha":768,"x_min":12,"x_max":760,"o":"m 760 972 l 439 359 l 439 0 l 325 0 l 325 357 l 12 972 l 142 972 l 359 533 q 383 473 363 525 l 385 473 q 411 533 392 496 l 639 972 l 760 972 m 564 1284 l 386 1062 l 300 1062 l 451 1284 l 564 1284 z "},"Ÿ":{"ha":768,"x_min":12,"x_max":760,"o":"m 760 972 l 439 359 l 439 0 l 325 0 l 325 357 l 12 972 l 142 972 l 359 533 q 383 473 363 525 l 385 473 q 411 533 392 496 l 639 972 l 760 972 m 515 1061 q 468 1080 488 1061 q 448 1128 448 1099 q 467 1176 448 1157 q 513 1195 486 1195 q 562 1176 542 1195 q 581 1128 581 1156 q 562 1081 581 1101 q 515 1061 543 1061 m 254 1061 q 206 1081 226 1061 q 186 1128 186 1101 q 205 1176 186 1157 q 252 1195 224 1195 q 300 1176 280 1195 q 321 1128 321 1156 q 301 1081 321 1101 q 254 1061 281 1061 z "},"Ž":{"ha":792,"x_min":22,"x_max":762,"o":"m 762 945 l 193 103 l 749 103 l 749 0 l 22 0 l 22 32 l 587 869 l 68 869 l 68 972 l 762 972 l 762 945 m 610 1285 l 465 1061 l 376 1061 l 229 1285 l 307 1285 l 418 1130 l 530 1285 l 610 1285 z "},"Ð":{"ha":974,"x_min":19,"x_max":910,"o":"m 127 0 l 127 435 l 19 435 l 19 540 l 127 540 l 127 972 l 396 972 q 910 498 910 972 q 767 136 910 272 q 385 0 625 0 l 127 0 m 241 869 l 241 540 l 469 540 l 469 435 l 241 435 l 241 103 l 387 103 q 684 205 578 103 q 791 496 791 308 q 393 869 791 869 l 241 869 z "},"Þ":{"ha":778,"x_min":127,"x_max":722,"o":"m 241 216 l 241 0 l 127 0 l 127 972 l 241 972 l 241 819 l 395 819 q 637 744 552 819 q 722 529 722 668 q 626 303 722 391 q 368 216 530 216 l 241 216 m 241 717 l 241 318 l 361 318 q 541 371 478 318 q 603 522 603 424 q 375 717 603 717 l 241 717 z "},"a":{"ha":707,"x_min":61,"x_max":610,"o":"m 610 0 l 498 0 l 498 109 l 496 109 q 282 -16 423 -16 q 120 39 178 -16 q 61 184 61 94 q 290 411 61 379 l 498 440 q 355 617 498 617 q 129 532 230 617 l 129 646 q 365 711 231 711 q 610 452 610 711 l 610 0 m 498 351 l 331 328 q 214 290 254 317 q 175 193 175 262 q 211 110 175 142 q 308 77 248 77 q 445 135 391 77 q 498 282 498 193 l 498 351 z "},"b":{"ha":817,"x_min":113,"x_max":751,"o":"m 227 100 l 224 100 l 224 0 l 113 0 l 113 1028 l 224 1028 l 224 572 l 227 572 q 467 711 309 711 q 676 617 600 711 q 751 368 751 524 q 667 89 751 193 q 435 -16 582 -16 q 227 100 297 -16 m 224 380 l 224 283 q 280 137 224 197 q 422 77 336 77 q 580 155 523 77 q 637 370 637 232 q 584 551 637 486 q 439 617 530 617 q 283 550 342 617 q 224 380 224 482 z "},"c":{"ha":642,"x_min":65,"x_max":587,"o":"m 586 32 q 396 -16 506 -16 q 156 80 248 -16 q 65 331 65 177 q 163 607 65 503 q 426 711 262 711 q 587 677 517 711 l 587 563 q 422 617 510 617 q 247 541 315 617 q 179 340 179 465 q 243 148 179 218 q 415 77 307 77 q 586 138 506 77 l 586 32 z "},"d":{"ha":818,"x_min":65,"x_max":705,"o":"m 705 0 l 594 0 l 594 118 l 591 118 q 353 -16 514 -16 q 143 77 222 -16 q 65 331 65 170 q 152 607 65 503 q 383 711 239 711 q 591 598 526 711 l 594 598 l 594 1028 l 705 1028 l 705 0 m 594 314 l 594 416 q 538 559 594 500 q 397 617 483 617 q 237 543 296 617 q 179 336 179 468 q 235 147 179 216 q 385 77 291 77 q 536 144 478 77 q 594 314 594 212 z "},"e":{"ha":726,"x_min":65,"x_max":671,"o":"m 671 319 l 180 319 q 243 140 183 203 q 407 77 302 77 q 623 155 524 77 l 623 50 q 380 -16 531 -16 q 149 78 233 -16 q 65 345 65 173 q 157 609 65 507 q 385 711 249 711 q 596 623 522 711 q 671 378 671 534 l 671 319 m 557 414 q 510 564 556 510 q 383 617 465 617 q 250 561 304 617 q 182 414 195 505 l 557 414 z "},"f":{"ha":435,"x_min":36,"x_max":456,"o":"m 456 930 q 382 949 423 949 q 265 802 265 949 l 265 694 l 428 694 l 428 600 l 265 600 l 265 0 l 155 0 l 155 600 l 36 600 l 36 694 l 155 694 l 155 807 q 218 980 155 916 q 375 1043 281 1043 q 456 1031 426 1043 l 456 930 z "},"g":{"ha":818,"x_min":65,"x_max":705,"o":"m 705 56 q 339 -327 705 -327 q 114 -278 210 -327 l 114 -167 q 338 -232 231 -232 q 594 41 594 -232 l 594 117 l 591 117 q 353 -16 512 -16 q 144 76 223 -16 q 65 325 65 169 q 150 606 65 502 q 383 711 235 711 q 591 598 524 711 l 594 598 l 594 694 l 705 694 l 705 56 m 594 314 l 594 416 q 538 558 594 499 q 399 617 482 617 q 237 542 296 617 q 179 332 179 467 q 235 147 179 216 q 383 77 291 77 q 535 144 477 77 q 594 314 594 210 z "},"h":{"ha":786,"x_min":113,"x_max":689,"o":"m 689 0 l 578 0 l 578 400 q 416 617 578 617 q 279 554 335 617 q 224 393 224 492 l 224 0 l 113 0 l 113 1028 l 224 1028 l 224 579 l 227 579 q 454 711 307 711 q 689 428 689 711 l 689 0 z "},"i":{"ha":336,"x_min":98,"x_max":243,"o":"m 170 871 q 119 891 140 871 q 98 943 98 911 q 119 995 98 974 q 170 1015 140 1015 q 221 995 200 1015 q 243 943 243 974 q 221 892 243 913 q 170 871 200 871 m 224 0 l 113 0 l 113 694 l 224 694 l 224 0 z "},"j":{"ha":336,"x_min":-134,"x_max":243,"o":"m 224 29 q 155 -234 224 -142 q -42 -327 86 -327 q -134 -305 -90 -327 l -134 -201 q -39 -232 -84 -232 q 113 11 113 -232 l 113 694 l 224 694 l 224 29 m 170 871 q 119 891 140 871 q 98 943 98 911 q 119 995 98 974 q 170 1015 140 1015 q 221 995 200 1015 q 243 943 243 974 q 221 892 243 913 q 170 871 200 871 z "},"k":{"ha":690,"x_min":113,"x_max":689,"o":"m 689 0 l 533 0 l 227 334 l 224 334 l 224 0 l 113 0 l 113 1028 l 224 1028 l 224 376 l 227 376 l 518 694 l 664 694 l 342 359 l 689 0 z "},"l":{"ha":336,"x_min":113,"x_max":224,"o":"m 224 0 l 113 0 l 113 1028 l 224 1028 l 224 0 z "},"m":{"ha":1196,"x_min":113,"x_max":1099,"o":"m 1099 0 l 987 0 l 987 399 q 952 566 987 514 q 832 617 916 617 q 711 552 761 617 q 661 396 661 487 l 661 0 l 550 0 l 550 412 q 392 617 550 617 q 271 556 319 617 q 224 396 224 494 l 224 0 l 113 0 l 113 694 l 224 694 l 224 585 l 227 585 q 442 711 300 711 q 566 671 513 711 q 639 567 619 631 q 869 711 716 711 q 1099 428 1099 711 l 1099 0 z "},"n":{"ha":786,"x_min":113,"x_max":689,"o":"m 689 0 l 578 0 l 578 396 q 416 617 578 617 q 278 554 333 617 q 224 396 224 492 l 224 0 l 113 0 l 113 694 l 224 694 l 224 579 l 227 579 q 454 711 305 711 q 629 637 568 711 q 689 425 689 564 l 689 0 z "},"o":{"ha":814,"x_min":65,"x_max":749,"o":"m 403 -16 q 157 81 249 -16 q 65 339 65 178 q 161 612 65 514 q 419 711 256 711 q 662 615 574 711 q 749 350 749 519 q 655 84 749 184 q 403 -16 561 -16 m 411 617 q 241 544 304 617 q 179 343 179 471 q 242 149 179 220 q 411 77 305 77 q 577 147 519 77 q 635 346 635 217 q 577 547 635 476 q 411 617 519 617 z "},"p":{"ha":817,"x_min":113,"x_max":751,"o":"m 227 100 l 224 100 l 224 -319 l 113 -319 l 113 694 l 224 694 l 224 572 l 227 572 q 467 711 309 711 q 676 617 601 711 q 751 368 751 524 q 667 89 751 193 q 435 -16 582 -16 q 227 100 300 -16 m 224 380 l 224 283 q 280 137 224 197 q 422 77 336 77 q 580 155 523 77 q 637 370 637 232 q 584 551 637 486 q 439 617 530 617 q 283 550 342 617 q 224 380 224 482 z "},"q":{"ha":818,"x_min":65,"x_max":705,"o":"m 705 -319 l 594 -319 l 594 119 l 591 119 q 354 -16 519 -16 q 144 77 223 -16 q 65 331 65 170 q 152 607 65 504 q 385 711 239 711 q 591 598 528 711 l 594 598 l 594 694 l 705 694 l 705 -319 m 594 313 l 594 414 q 538 558 594 499 q 396 617 482 617 q 237 543 296 617 q 179 334 179 469 q 235 145 179 214 q 380 77 292 77 q 536 144 478 77 q 594 313 594 211 z "},"r":{"ha":483,"x_min":113,"x_max":475,"o":"m 475 582 q 391 604 446 604 q 272 537 319 604 q 224 354 224 470 l 224 0 l 113 0 l 113 694 l 224 694 l 224 551 l 227 551 q 299 666 250 625 q 408 707 348 707 q 475 697 452 707 l 475 582 z "},"s":{"ha":589,"x_min":71,"x_max":531,"o":"m 71 25 l 71 144 q 271 77 161 77 q 417 175 417 77 q 405 222 417 203 q 371 256 392 241 q 320 283 349 271 q 258 308 292 295 q 177 345 212 326 q 119 387 142 363 q 84 440 96 410 q 72 510 72 470 q 94 596 72 559 q 154 660 117 634 q 239 698 191 685 q 338 711 287 711 q 499 680 428 711 l 499 567 q 323 617 422 617 q 267 610 292 617 q 223 590 241 603 q 196 559 205 577 q 186 519 186 541 q 196 474 186 492 q 224 441 205 456 q 271 416 243 427 q 332 391 298 404 q 415 354 378 373 q 477 312 452 336 q 517 258 503 289 q 531 186 531 228 q 508 96 531 134 q 448 33 486 58 q 360 -4 410 8 q 256 -16 311 -16 q 71 25 149 -16 z "},"t":{"ha":471,"x_min":29,"x_max":435,"o":"m 435 7 q 331 -15 395 -15 q 149 189 149 -15 l 149 600 l 29 600 l 29 694 l 149 694 l 149 864 l 260 900 l 260 694 l 435 694 l 435 600 l 260 600 l 260 208 q 283 109 260 138 q 362 79 307 79 q 435 102 404 79 l 435 7 z "},"u":{"ha":786,"x_min":98,"x_max":674,"o":"m 674 0 l 563 0 l 563 110 l 560 110 q 346 -16 491 -16 q 98 279 98 -16 l 98 694 l 208 694 l 208 297 q 376 77 208 77 q 510 137 458 77 q 563 294 563 197 l 563 694 l 674 694 l 674 0 z "},"v":{"ha":665,"x_min":9,"x_max":659,"o":"m 659 694 l 382 0 l 273 0 l 9 694 l 132 694 l 308 190 q 332 93 328 134 l 335 93 q 357 187 342 145 l 541 694 l 659 694 z "},"w":{"ha":1004,"x_min":16,"x_max":987,"o":"m 987 694 l 779 0 l 664 0 l 521 497 q 510 562 513 526 l 507 562 q 493 498 505 537 l 338 0 l 227 0 l 16 694 l 133 694 l 277 172 q 286 110 283 149 l 292 110 q 304 174 294 140 l 464 694 l 566 694 l 709 171 q 720 109 716 146 l 725 109 q 736 171 726 135 l 878 694 l 987 694 z "},"x":{"ha":637,"x_min":18,"x_max":620,"o":"m 620 694 l 387 343 l 616 0 l 486 0 l 350 225 q 319 278 337 246 l 317 278 q 285 225 313 272 l 146 0 l 18 0 l 254 340 l 28 694 l 157 694 l 292 457 q 321 403 307 431 l 323 403 l 497 694 l 620 694 z "},"y":{"ha":672,"x_min":9,"x_max":665,"o":"m 665 694 l 346 -111 q 106 -327 260 -327 q 33 -318 62 -327 l 33 -218 q 99 -231 69 -231 q 225 -130 183 -231 l 281 1 l 9 694 l 133 694 l 321 160 q 335 107 324 150 l 339 107 q 353 159 342 123 l 550 694 l 665 694 z "},"z":{"ha":628,"x_min":22,"x_max":597,"o":"m 597 663 l 186 95 l 593 95 l 593 0 l 22 0 l 22 35 l 433 600 l 61 600 l 61 694 l 597 694 l 597 663 z "},"ß":{"ha":755,"x_min":113,"x_max":708,"o":"m 313 1 l 313 110 q 428 77 363 77 q 548 127 502 77 q 594 261 594 177 q 526 426 594 363 q 338 503 458 490 l 338 591 q 469 661 418 605 q 521 795 521 718 q 484 908 521 868 q 380 949 446 949 q 224 739 224 949 l 224 0 l 113 0 l 113 755 q 187 964 113 886 q 388 1043 262 1043 q 568 979 500 1043 q 635 808 635 914 q 584 654 635 722 q 452 559 533 585 l 452 555 q 708 267 708 505 q 633 65 708 146 q 433 -16 557 -16 q 313 1 365 -16 z "},"à":{"ha":707,"x_min":61,"x_max":610,"o":"m 610 0 l 498 0 l 498 109 l 496 109 q 282 -16 423 -16 q 120 39 178 -16 q 61 184 61 94 q 290 411 61 379 l 498 440 q 355 617 498 617 q 129 532 230 617 l 129 646 q 365 711 231 711 q 610 452 610 711 l 610 0 m 498 351 l 331 328 q 214 290 254 317 q 175 193 175 262 q 211 110 175 142 q 308 77 248 77 q 445 135 391 77 q 498 282 498 193 l 498 351 m 457 826 l 371 826 l 193 1048 l 307 1048 l 457 826 z "},"á":{"ha":707,"x_min":61,"x_max":610,"o":"m 610 0 l 498 0 l 498 109 l 496 109 q 282 -16 423 -16 q 120 39 178 -16 q 61 184 61 94 q 290 411 61 379 l 498 440 q 355 617 498 617 q 129 532 230 617 l 129 646 q 365 711 231 711 q 610 452 610 711 l 610 0 m 498 351 l 331 328 q 214 290 254 317 q 175 193 175 262 q 211 110 175 142 q 308 77 248 77 q 445 135 391 77 q 498 282 498 193 l 498 351 m 513 1048 l 336 826 l 250 826 l 401 1048 l 513 1048 z "},"â":{"ha":707,"x_min":61,"x_max":610,"o":"m 610 0 l 498 0 l 498 109 l 496 109 q 282 -16 423 -16 q 120 39 178 -16 q 61 184 61 94 q 290 411 61 379 l 498 440 q 355 617 498 617 q 129 532 230 617 l 129 646 q 365 711 231 711 q 610 452 610 711 l 610 0 m 498 351 l 331 328 q 214 290 254 317 q 175 193 175 262 q 211 110 175 142 q 308 77 248 77 q 445 135 391 77 q 498 282 498 193 l 498 351 m 547 826 l 464 826 l 353 982 l 241 826 l 164 826 l 310 1051 l 400 1051 l 547 826 z "},"ã":{"ha":707,"x_min":61,"x_max":610,"o":"m 610 0 l 498 0 l 498 109 l 496 109 q 282 -16 423 -16 q 120 39 178 -16 q 61 184 61 94 q 290 411 61 379 l 498 440 q 355 617 498 617 q 129 532 230 617 l 129 646 q 365 711 231 711 q 610 452 610 711 l 610 0 m 498 351 l 331 328 q 214 290 254 317 q 175 193 175 262 q 211 110 175 142 q 308 77 248 77 q 445 135 391 77 q 498 282 498 193 l 498 351 m 572 989 q 540 872 572 918 q 452 827 507 827 q 342 863 404 827 q 261 892 290 892 q 201 815 201 892 l 138 815 q 170 931 138 888 q 261 975 203 975 q 362 940 305 975 q 449 910 412 910 q 506 989 506 910 l 572 989 z "},"ä":{"ha":707,"x_min":61,"x_max":610,"o":"m 610 0 l 498 0 l 498 109 l 496 109 q 282 -16 423 -16 q 120 39 178 -16 q 61 184 61 94 q 290 411 61 379 l 498 440 q 355 617 498 617 q 129 532 230 617 l 129 646 q 365 711 231 711 q 610 452 610 711 l 610 0 m 498 351 l 331 328 q 214 290 254 317 q 175 193 175 262 q 211 110 175 142 q 308 77 248 77 q 445 135 391 77 q 498 282 498 193 l 498 351 m 480 826 q 433 845 453 826 q 414 893 414 864 q 433 941 414 922 q 479 960 452 960 q 527 940 507 960 q 547 893 547 921 q 528 846 547 865 q 480 826 509 826 m 220 826 q 171 846 191 826 q 151 893 151 866 q 171 941 151 922 q 218 960 190 960 q 266 940 245 960 q 286 893 286 921 q 267 846 286 865 q 220 826 247 826 z "},"å":{"ha":707,"x_min":61,"x_max":610,"o":"m 610 0 l 498 0 l 498 109 l 496 109 q 282 -16 423 -16 q 120 39 178 -16 q 61 184 61 94 q 290 411 61 379 l 498 440 q 355 617 498 617 q 129 532 230 617 l 129 646 q 365 711 231 711 q 610 452 610 711 l 610 0 m 498 351 l 331 328 q 214 290 254 317 q 175 193 175 262 q 211 110 175 142 q 308 77 248 77 q 445 135 391 77 q 498 282 498 193 l 498 351 m 351 798 q 253 833 292 798 q 214 926 214 869 q 254 1024 214 987 q 355 1061 294 1061 q 454 1024 416 1061 q 493 930 493 987 q 452 836 493 873 q 351 798 410 798 m 351 1006 q 296 984 318 1006 q 275 929 275 962 q 351 853 275 853 q 407 875 385 853 q 429 929 429 897 q 407 984 429 962 q 351 1006 385 1006 z "},"æ":{"ha":1156,"x_min":61,"x_max":1100,"o":"m 1100 319 l 608 319 q 670 140 610 203 q 833 77 730 77 q 1051 155 954 77 l 1051 50 q 808 -16 962 -16 q 549 139 625 -16 l 546 139 q 283 -16 448 -16 q 120 38 180 -16 q 61 184 61 93 q 321 404 61 388 l 498 415 q 353 617 498 617 q 129 534 234 617 l 129 646 q 365 711 229 711 q 568 575 522 711 l 571 575 q 812 711 650 711 q 1025 622 949 711 q 1100 376 1100 534 l 1100 319 m 986 414 q 940 564 985 511 q 814 617 895 617 q 679 562 735 617 q 610 414 623 506 l 986 414 m 498 278 l 498 321 l 361 313 q 220 279 267 307 q 174 187 174 252 q 210 107 174 138 q 307 77 245 77 q 443 135 387 77 q 498 278 498 192 z "},"ç":{"ha":642,"x_min":65,"x_max":587,"o":"m 586 32 q 396 -16 506 -16 q 156 80 248 -16 q 65 331 65 177 q 163 607 65 503 q 426 711 262 711 q 587 677 517 711 l 587 563 q 422 617 510 617 q 247 541 315 617 q 179 340 179 465 q 243 148 179 218 q 415 77 307 77 q 586 138 506 77 l 586 32 m 528 -174 q 341 -293 528 -293 q 297 -292 315 -293 l 297 -231 q 345 -235 326 -235 q 440 -174 440 -235 q 353 -121 440 -121 q 325 -123 346 -121 l 325 0 l 398 0 l 398 -71 q 493 -98 458 -71 q 528 -174 528 -125 z "},"è":{"ha":726,"x_min":65,"x_max":671,"o":"m 671 319 l 180 319 q 243 140 183 203 q 407 77 302 77 q 623 155 524 77 l 623 50 q 380 -16 531 -16 q 149 78 233 -16 q 65 345 65 173 q 157 609 65 507 q 385 711 249 711 q 596 623 522 711 q 671 378 671 534 l 671 319 m 557 414 q 510 564 556 510 q 383 617 465 617 q 250 561 304 617 q 182 414 195 505 l 557 414 m 492 826 l 406 826 l 228 1048 l 342 1048 l 492 826 z "},"é":{"ha":726,"x_min":65,"x_max":671,"o":"m 671 319 l 180 319 q 243 140 183 203 q 407 77 302 77 q 623 155 524 77 l 623 50 q 380 -16 531 -16 q 149 78 233 -16 q 65 345 65 173 q 157 609 65 507 q 385 711 249 711 q 596 623 522 711 q 671 378 671 534 l 671 319 m 557 414 q 510 564 556 510 q 383 617 465 617 q 250 561 304 617 q 182 414 195 505 l 557 414 m 539 1048 l 361 826 l 275 826 l 427 1048 l 539 1048 z "},"ê":{"ha":726,"x_min":65,"x_max":671,"o":"m 671 319 l 180 319 q 243 140 183 203 q 407 77 302 77 q 623 155 524 77 l 623 50 q 380 -16 531 -16 q 149 78 233 -16 q 65 345 65 173 q 157 609 65 507 q 385 711 249 711 q 596 623 522 711 q 671 378 671 534 l 671 319 m 557 414 q 510 564 556 510 q 383 617 465 617 q 250 561 304 617 q 182 414 195 505 l 557 414 m 570 826 l 487 826 l 376 982 l 264 826 l 187 826 l 333 1051 l 423 1051 l 570 826 z "},"ë":{"ha":726,"x_min":65,"x_max":671,"o":"m 671 319 l 180 319 q 243 140 183 203 q 407 77 302 77 q 623 155 524 77 l 623 50 q 380 -16 531 -16 q 149 78 233 -16 q 65 345 65 173 q 157 609 65 507 q 385 711 249 711 q 596 623 522 711 q 671 378 671 534 l 671 319 m 557 414 q 510 564 556 510 q 383 617 465 617 q 250 561 304 617 q 182 414 195 505 l 557 414 m 506 826 q 459 845 479 826 q 439 893 439 864 q 458 941 439 922 q 505 960 477 960 q 553 940 533 960 q 572 893 572 921 q 553 846 572 865 q 506 826 534 826 m 245 826 q 197 846 217 826 q 177 893 177 866 q 196 941 177 922 q 243 960 216 960 q 292 940 271 960 q 312 893 312 921 q 292 846 312 865 q 245 826 273 826 z "},"ì":{"ha":336,"x_min":-13,"x_max":251,"o":"m 224 0 l 113 0 l 113 694 l 224 694 l 224 0 m 251 826 l 165 826 l -13 1048 l 101 1048 l 251 826 z "},"í":{"ha":336,"x_min":60,"x_max":324,"o":"m 224 0 l 113 0 l 113 694 l 224 694 l 224 0 m 324 1048 l 146 826 l 60 826 l 212 1048 l 324 1048 z "},"î":{"ha":336,"x_min":-30,"x_max":353,"o":"m 224 0 l 113 0 l 113 694 l 224 694 l 224 0 m 353 826 l 270 826 l 159 982 l 47 826 l -30 826 l 116 1051 l 206 1051 l 353 826 z "},"ï":{"ha":336,"x_min":-37,"x_max":359,"o":"m 224 0 l 113 0 l 113 694 l 224 694 l 224 0 m 292 826 q 245 845 265 826 q 226 893 226 864 q 245 941 226 922 q 291 960 264 960 q 339 940 319 960 q 359 893 359 921 q 340 846 359 865 q 292 826 321 826 m 32 826 q -17 846 3 826 q -37 893 -37 866 q -17 941 -37 922 q 30 960 2 960 q 78 940 58 960 q 98 893 98 921 q 79 846 98 865 q 32 826 59 826 z "},"ñ":{"ha":786,"x_min":113,"x_max":689,"o":"m 689 0 l 578 0 l 578 396 q 416 617 578 617 q 278 554 333 617 q 224 396 224 492 l 224 0 l 113 0 l 113 694 l 224 694 l 224 579 l 227 579 q 454 711 305 711 q 629 637 568 711 q 689 425 689 564 l 689 0 m 616 989 q 583 872 616 918 q 495 827 551 827 q 385 863 447 827 q 304 892 333 892 q 245 815 245 892 l 181 815 q 214 931 181 888 q 304 975 246 975 q 406 940 349 975 q 492 910 456 910 q 549 989 549 910 l 616 989 z "},"ò":{"ha":814,"x_min":65,"x_max":749,"o":"m 403 -16 q 157 81 249 -16 q 65 339 65 178 q 161 612 65 514 q 419 711 256 711 q 662 615 574 711 q 749 350 749 519 q 655 84 749 184 q 403 -16 561 -16 m 411 617 q 241 544 304 617 q 179 343 179 471 q 242 149 179 220 q 411 77 305 77 q 577 147 519 77 q 635 346 635 217 q 577 547 635 476 q 411 617 519 617 m 507 826 l 420 826 l 243 1048 l 357 1048 l 507 826 z "},"ó":{"ha":814,"x_min":65,"x_max":749,"o":"m 403 -16 q 157 81 249 -16 q 65 339 65 178 q 161 612 65 514 q 419 711 256 711 q 662 615 574 711 q 749 350 749 519 q 655 84 749 184 q 403 -16 561 -16 m 411 617 q 241 544 304 617 q 179 343 179 471 q 242 149 179 220 q 411 77 305 77 q 577 147 519 77 q 635 346 635 217 q 577 547 635 476 q 411 617 519 617 m 574 1048 l 396 826 l 310 826 l 461 1048 l 574 1048 z "},"ô":{"ha":814,"x_min":65,"x_max":749,"o":"m 403 -16 q 157 81 249 -16 q 65 339 65 178 q 161 612 65 514 q 419 711 256 711 q 662 615 574 711 q 749 350 749 519 q 655 84 749 184 q 403 -16 561 -16 m 411 617 q 241 544 304 617 q 179 343 179 471 q 242 149 179 220 q 411 77 305 77 q 577 147 519 77 q 635 346 635 217 q 577 547 635 476 q 411 617 519 617 m 600 826 l 517 826 l 406 982 l 294 826 l 218 826 l 363 1051 l 454 1051 l 600 826 z "},"õ":{"ha":814,"x_min":65,"x_max":749,"o":"m 403 -16 q 157 81 249 -16 q 65 339 65 178 q 161 612 65 514 q 419 711 256 711 q 662 615 574 711 q 749 350 749 519 q 655 84 749 184 q 403 -16 561 -16 m 411 617 q 241 544 304 617 q 179 343 179 471 q 242 149 179 220 q 411 77 305 77 q 577 147 519 77 q 635 346 635 217 q 577 547 635 476 q 411 617 519 617 m 631 989 q 599 872 631 918 q 511 827 566 827 q 401 863 463 827 q 320 892 349 892 q 260 815 260 892 l 197 815 q 229 931 197 888 q 320 975 262 975 q 421 940 364 975 q 508 910 471 910 q 565 989 565 910 l 631 989 z "},"ö":{"ha":814,"x_min":65,"x_max":749,"o":"m 403 -16 q 157 81 249 -16 q 65 339 65 178 q 161 612 65 514 q 419 711 256 711 q 662 615 574 711 q 749 350 749 519 q 655 84 749 184 q 403 -16 561 -16 m 411 617 q 241 544 304 617 q 179 343 179 471 q 242 149 179 220 q 411 77 305 77 q 577 147 519 77 q 635 346 635 217 q 577 547 635 476 q 411 617 519 617 m 538 826 q 491 845 511 826 q 471 893 471 864 q 490 941 471 922 q 536 960 509 960 q 585 940 565 960 q 604 893 604 921 q 585 846 604 865 q 538 826 566 826 m 277 826 q 229 846 249 826 q 209 893 209 866 q 228 941 209 922 q 275 960 248 960 q 323 940 303 960 q 344 893 344 921 q 324 846 344 865 q 277 826 304 826 z "},"ø":{"ha":814,"x_min":33,"x_max":796,"o":"m 796 711 l 682 589 q 749 354 749 495 q 654 83 749 183 q 403 -16 560 -16 q 187 53 273 -16 l 89 -56 l 33 -3 l 134 109 q 65 339 65 201 q 161 612 65 514 q 420 711 258 711 q 629 644 545 711 l 739 764 l 796 711 m 557 567 q 411 617 503 617 q 241 544 303 617 q 179 343 179 471 q 213 191 179 254 l 557 567 m 604 503 l 260 129 q 410 77 319 77 q 578 148 520 77 q 636 347 636 218 q 604 503 636 438 z "},"œ":{"ha":1289,"x_min":65,"x_max":1238,"o":"m 1238 319 l 746 319 q 808 140 748 203 q 972 77 868 77 q 1189 155 1091 77 l 1189 50 q 947 -16 1097 -16 q 688 144 764 -16 l 685 144 q 403 -16 596 -16 q 156 81 248 -16 q 65 338 65 178 q 161 612 65 513 q 420 711 258 711 q 693 551 620 711 l 696 551 q 957 711 777 711 q 1164 622 1090 711 q 1238 379 1238 532 l 1238 319 m 1124 414 q 1077 564 1122 510 q 953 617 1031 617 q 815 559 871 617 q 747 414 758 501 l 1124 414 m 411 617 q 241 544 304 617 q 179 340 179 470 q 241 148 179 218 q 410 77 304 77 q 576 147 517 77 q 635 345 635 216 q 576 547 635 476 q 411 617 517 617 z "},"š":{"ha":589,"x_min":71,"x_max":531,"o":"m 71 25 l 71 144 q 271 77 161 77 q 417 175 417 77 q 405 222 417 203 q 371 256 392 241 q 320 283 349 271 q 258 308 292 295 q 177 345 212 326 q 119 387 142 363 q 84 440 96 410 q 72 510 72 470 q 94 596 72 559 q 154 660 117 634 q 239 698 191 685 q 338 711 287 711 q 499 680 428 711 l 499 567 q 323 617 422 617 q 267 610 292 617 q 223 590 241 603 q 196 559 205 577 q 186 519 186 541 q 196 474 186 492 q 224 441 205 456 q 271 416 243 427 q 332 391 298 404 q 415 354 378 373 q 477 312 452 336 q 517 258 503 289 q 531 186 531 228 q 508 96 531 134 q 448 33 486 58 q 360 -4 410 8 q 256 -16 311 -16 q 71 25 149 -16 m 463 1050 l 317 826 l 228 826 l 81 1050 l 159 1050 l 271 895 l 382 1050 l 463 1050 z "},"ù":{"ha":786,"x_min":98,"x_max":674,"o":"m 674 0 l 563 0 l 563 110 l 560 110 q 346 -16 491 -16 q 98 279 98 -16 l 98 694 l 208 694 l 208 297 q 376 77 208 77 q 510 137 458 77 q 563 294 563 197 l 563 694 l 674 694 l 674 0 m 478 826 l 392 826 l 214 1048 l 328 1048 l 478 826 z "},"ú":{"ha":786,"x_min":98,"x_max":674,"o":"m 674 0 l 563 0 l 563 110 l 560 110 q 346 -16 491 -16 q 98 279 98 -16 l 98 694 l 208 694 l 208 297 q 376 77 208 77 q 510 137 458 77 q 563 294 563 197 l 563 694 l 674 694 l 674 0 m 570 1048 l 392 826 l 306 826 l 457 1048 l 570 1048 z "},"û":{"ha":786,"x_min":98,"x_max":674,"o":"m 674 0 l 563 0 l 563 110 l 560 110 q 346 -16 491 -16 q 98 279 98 -16 l 98 694 l 208 694 l 208 297 q 376 77 208 77 q 510 137 458 77 q 563 294 563 197 l 563 694 l 674 694 l 674 0 m 579 826 l 496 826 l 385 982 l 273 826 l 197 826 l 342 1051 l 433 1051 l 579 826 z "},"ü":{"ha":786,"x_min":98,"x_max":674,"o":"m 674 0 l 563 0 l 563 110 l 560 110 q 346 -16 491 -16 q 98 279 98 -16 l 98 694 l 208 694 l 208 297 q 376 77 208 77 q 510 137 458 77 q 563 294 563 197 l 563 694 l 674 694 l 674 0 m 522 826 q 475 845 495 826 q 456 893 456 864 q 475 941 456 922 q 521 960 494 960 q 569 940 549 960 q 589 893 589 921 q 570 846 589 865 q 522 826 551 826 m 262 826 q 213 846 233 826 q 193 893 193 866 q 213 941 193 922 q 260 960 232 960 q 308 940 288 960 q 328 893 328 921 q 309 846 328 865 q 262 826 289 826 z "},"ý":{"ha":672,"x_min":9,"x_max":665,"o":"m 665 694 l 346 -111 q 106 -327 260 -327 q 33 -318 62 -327 l 33 -218 q 99 -231 69 -231 q 225 -130 183 -231 l 281 1 l 9 694 l 133 694 l 321 160 q 335 107 324 150 l 339 107 q 353 159 342 123 l 550 694 l 665 694 m 517 1048 l 339 826 l 253 826 l 404 1048 l 517 1048 z "},"ÿ":{"ha":672,"x_min":9,"x_max":665,"o":"m 665 694 l 346 -111 q 106 -327 260 -327 q 33 -318 62 -327 l 33 -218 q 99 -231 69 -231 q 225 -130 183 -231 l 281 1 l 9 694 l 133 694 l 321 160 q 335 107 324 150 l 339 107 q 353 159 342 123 l 550 694 l 665 694 m 467 826 q 420 845 440 826 q 401 893 401 864 q 420 941 401 922 q 466 960 439 960 q 514 940 494 960 q 534 893 534 921 q 515 846 534 865 q 467 826 496 826 m 207 826 q 158 846 178 826 q 138 893 138 866 q 158 941 138 922 q 205 960 177 960 q 253 940 233 960 q 273 893 273 921 q 254 846 273 865 q 207 826 234 826 z "},"ž":{"ha":628,"x_min":22,"x_max":597,"o":"m 597 663 l 186 95 l 593 95 l 593 0 l 22 0 l 22 35 l 433 600 l 61 600 l 61 694 l 597 694 l 597 663 m 530 1050 l 385 826 l 296 826 l 149 1050 l 227 1050 l 338 895 l 450 1050 l 530 1050 z "},"ð":{"ha":777,"x_min":65,"x_max":711,"o":"m 533 656 l 536 659 q 401 839 475 768 l 199 736 l 164 803 l 347 892 q 168 1028 267 963 l 318 1028 q 435 936 369 993 l 631 1034 l 668 970 l 489 882 q 711 357 711 673 q 623 90 711 194 q 385 -15 536 -15 q 150 80 235 -15 q 65 339 65 175 q 153 607 65 504 q 391 709 241 709 q 533 656 474 709 m 395 617 q 237 544 294 617 q 179 343 179 470 q 235 149 179 220 q 392 77 292 77 q 542 151 486 77 q 597 346 597 224 q 395 617 597 617 z "},"þ":{"ha":817,"x_min":113,"x_max":751,"o":"m 227 100 l 224 100 l 224 -319 l 113 -319 l 113 1028 l 224 1028 l 224 572 l 227 572 q 467 711 309 711 q 676 617 601 711 q 751 368 751 524 q 667 89 751 193 q 435 -16 582 -16 q 227 100 300 -16 m 224 380 l 224 283 q 280 137 224 197 q 422 77 336 77 q 580 155 523 77 q 637 370 637 232 q 584 551 637 486 q 439 617 530 617 q 283 550 342 617 q 224 380 224 482 z "},"&":{"ha":1112,"x_min":81,"x_max":1084,"o":"m 980 -16 q 912 -5 941 -16 q 857 25 882 5 q 809 72 832 44 q 760 135 785 100 q 697 79 732 106 q 618 31 661 52 q 523 -3 574 9 q 411 -16 471 -16 q 277 3 338 -16 q 172 57 216 21 q 105 144 129 92 q 81 264 81 197 q 140 442 81 368 q 307 562 199 515 q 266 597 286 577 q 230 643 245 617 q 204 699 214 668 q 194 766 194 730 q 213 861 194 820 q 267 931 233 903 q 347 974 300 960 q 446 989 393 989 q 543 974 499 989 q 618 932 587 960 q 667 867 650 905 q 685 783 685 829 q 638 647 685 701 q 499 555 592 593 q 584 511 546 537 q 654 452 622 484 q 714 382 686 419 q 769 304 742 345 q 852 473 824 381 q 880 667 880 566 q 877 715 880 692 q 868 760 873 738 l 976 760 q 982 718 981 738 q 985 670 983 698 q 972 546 985 608 q 937 425 959 484 q 887 313 916 366 q 826 216 858 260 q 869 160 850 184 q 909 119 889 136 q 950 95 929 103 q 999 87 972 87 q 1040 93 1019 87 q 1084 106 1061 98 l 1084 3 q 1033 -11 1059 -6 q 980 -16 1006 -16 m 411 81 q 506 92 463 81 q 586 122 549 103 q 652 165 623 140 q 707 217 682 190 q 630 327 665 281 q 560 406 595 373 q 484 463 524 439 q 391 507 444 487 q 312 470 348 490 q 250 421 276 449 q 209 355 224 393 q 194 268 194 318 q 211 186 194 222 q 257 128 228 151 q 326 93 287 104 q 411 81 366 81 m 581 773 q 568 831 581 807 q 536 870 555 854 q 493 893 517 886 q 446 900 469 900 q 340 864 380 900 q 300 766 300 828 q 308 714 300 739 q 332 669 317 690 q 368 631 347 648 q 411 604 388 615 q 538 673 496 633 q 581 773 581 713 z "},",":{"ha":301,"x_min":26,"x_max":214,"o":"m 214 155 l 106 -179 l 26 -179 l 106 155 l 214 155 z "},";":{"ha":301,"x_min":26,"x_max":229,"o":"m 153 559 q 99 581 121 559 q 77 635 77 604 q 99 688 77 666 q 153 709 121 709 q 207 688 184 709 q 229 635 229 666 q 207 581 229 604 q 153 559 184 559 m 214 155 l 106 -179 l 26 -179 l 106 155 l 214 155 z "},":":{"ha":301,"x_min":76,"x_max":228,"o":"m 151 559 q 98 581 120 559 q 76 635 76 604 q 98 688 76 666 q 151 709 120 709 q 205 688 183 709 q 228 635 228 666 q 205 581 228 604 q 151 559 183 559 m 151 -15 q 98 7 120 -15 q 76 61 76 30 q 98 115 76 92 q 151 138 120 138 q 205 115 183 138 q 228 61 228 92 q 205 7 228 30 q 151 -15 183 -15 z "},".":{"ha":301,"x_min":76,"x_max":228,"o":"m 151 -15 q 98 7 120 -15 q 76 61 76 30 q 98 115 76 92 q 151 138 120 138 q 205 115 183 138 q 228 61 228 92 q 205 7 228 30 q 151 -15 183 -15 z "},"…":{"ha":1018,"x_min":95,"x_max":924,"o":"m 849 -12 q 797 9 818 -12 q 775 62 775 31 q 797 116 775 94 q 849 139 818 139 q 902 116 880 139 q 924 62 924 94 q 902 9 924 31 q 849 -12 880 -12 m 509 -12 q 455 9 477 -12 q 433 62 433 31 q 455 116 433 94 q 509 139 477 139 q 561 116 539 139 q 583 62 583 94 q 561 9 583 31 q 509 -12 539 -12 m 168 -12 q 116 9 137 -12 q 95 62 95 31 q 116 116 95 94 q 168 139 137 139 q 221 116 199 139 q 243 62 243 94 q 221 9 243 31 q 168 -12 199 -12 z "},"!":{"ha":395,"x_min":122,"x_max":273,"o":"m 254 972 l 241 274 l 150 274 l 138 972 l 254 972 m 197 -12 q 144 9 166 -12 q 122 62 122 31 q 144 116 122 94 q 197 138 166 138 q 250 116 228 138 q 273 62 273 94 q 250 9 273 31 q 197 -12 228 -12 z "},"¡":{"ha":395,"x_min":122,"x_max":273,"o":"m 197 560 q 144 582 166 560 q 122 635 122 604 q 144 688 122 666 q 197 709 166 709 q 250 688 228 709 q 273 635 273 666 q 250 582 273 604 q 197 560 228 560 m 257 -275 l 140 -275 l 153 423 l 244 423 l 257 -275 z "},"?":{"ha":623,"x_min":89,"x_max":554,"o":"m 227 270 q 216 316 221 288 q 212 372 212 344 q 229 450 212 415 q 272 515 246 485 q 328 574 298 546 q 385 631 359 602 q 428 691 410 660 q 445 761 445 723 q 432 819 445 793 q 398 861 420 844 q 348 886 376 878 q 288 895 319 895 q 89 804 173 895 l 89 924 q 304 989 193 989 q 401 975 355 989 q 480 935 446 962 q 534 868 515 908 q 554 775 554 828 q 536 686 554 725 q 492 613 519 646 q 434 552 465 581 q 376 495 403 524 q 332 437 349 467 q 314 370 314 406 q 321 313 314 338 q 336 270 329 288 l 227 270 m 288 -12 q 235 9 258 -12 q 213 62 213 31 q 235 115 213 94 q 288 138 258 138 q 341 115 319 138 q 363 62 363 94 q 341 9 363 31 q 288 -12 318 -12 z "},"¿":{"ha":623,"x_min":97,"x_max":562,"o":"m 424 427 q 435 381 430 410 q 439 326 439 353 q 422 247 439 282 q 379 182 405 212 q 323 123 353 151 q 267 66 292 95 q 223 6 241 37 q 206 -64 206 -26 q 219 -121 206 -96 q 253 -163 231 -146 q 303 -189 275 -180 q 363 -197 332 -197 q 562 -107 478 -197 l 562 -227 q 347 -292 458 -292 q 250 -278 296 -292 q 171 -238 205 -264 q 117 -171 137 -211 q 97 -78 97 -131 q 115 12 97 -28 q 159 84 132 51 q 217 145 186 117 q 275 202 248 174 q 319 260 302 230 q 337 328 337 291 q 330 384 337 359 q 315 427 322 410 l 424 427 m 363 709 q 416 688 393 709 q 438 635 438 667 q 416 582 438 604 q 363 559 393 559 q 310 582 332 559 q 288 635 288 604 q 310 688 288 667 q 363 709 333 709 z "},"(":{"ha":419,"x_min":95,"x_max":406,"o":"m 404 -221 l 305 -221 q 95 371 95 19 q 305 972 95 724 l 406 972 q 193 372 193 715 q 404 -221 193 33 z "},")":{"ha":419,"x_min":15,"x_max":327,"o":"m 115 -221 l 16 -221 q 228 372 228 33 q 15 972 228 715 l 115 972 q 327 371 327 724 q 115 -221 327 19 z "},"[":{"ha":419,"x_min":136,"x_max":385,"o":"m 385 -221 l 136 -221 l 136 972 l 385 972 l 385 892 l 235 892 l 235 -140 l 385 -140 l 385 -221 z "},"]":{"ha":419,"x_min":36,"x_max":285,"o":"m 285 -221 l 36 -221 l 36 -140 l 186 -140 l 186 892 l 36 892 l 36 972 l 285 972 l 285 -221 z "},"{":{"ha":419,"x_min":62,"x_max":376,"o":"m 376 -221 q 168 -11 168 -218 l 168 193 q 62 336 168 330 l 62 415 q 168 562 168 422 l 168 760 q 376 972 168 970 l 376 886 q 269 751 269 883 l 269 553 q 167 378 269 410 l 167 375 q 269 201 269 345 l 269 5 q 293 -102 269 -70 q 376 -136 317 -134 l 376 -221 z "},"}":{"ha":419,"x_min":45,"x_max":358,"o":"m 358 336 q 252 193 252 330 l 252 -11 q 45 -221 252 -218 l 45 -136 q 129 -102 104 -134 q 153 5 153 -69 l 153 201 q 254 375 153 345 l 254 378 q 153 553 153 410 l 153 751 q 45 886 153 883 l 45 972 q 252 760 252 970 l 252 562 q 358 415 252 422 l 358 336 z "},"|":{"ha":332,"x_min":117,"x_max":217,"o":"m 217 -327 l 117 -327 l 117 1062 l 217 1062 l 217 -327 z "},"/":{"ha":541,"x_min":-19,"x_max":551,"o":"m 551 972 l 85 -161 l -19 -161 l 446 972 l 551 972 z "},"\\":{"ha":526,"x_min":-18,"x_max":541,"o":"m 541 -163 l 439 -163 l -18 972 l 87 972 l 541 -163 z "},"'":{"ha":319,"x_min":100,"x_max":219,"o":"m 219 972 l 199 669 l 121 669 l 100 972 l 219 972 z "},"\"":{"ha":545,"x_min":100,"x_max":444,"o":"m 219 972 l 199 669 l 121 669 l 100 972 l 219 972 m 444 972 l 424 669 l 346 669 l 326 972 l 444 972 z "},"‘":{"ha":318,"x_min":72,"x_max":247,"o":"m 247 989 l 174 686 l 72 686 l 167 989 l 247 989 z "},"ʼ":{"ha":318,"x_min":75,"x_max":250,"o":"m 250 989 l 155 686 l 75 686 l 150 989 l 250 989 z "},"“":{"ha":524,"x_min":72,"x_max":453,"o":"m 453 989 l 378 686 l 278 686 l 374 989 l 453 989 m 247 989 l 174 686 l 72 686 l 167 989 l 247 989 z "},"”":{"ha":524,"x_min":75,"x_max":456,"o":"m 456 989 l 361 686 l 281 686 l 354 989 l 456 989 m 250 989 l 155 686 l 75 686 l 150 989 l 250 989 z "},"‚":{"ha":318,"x_min":60,"x_max":235,"o":"m 235 147 l 139 -155 l 60 -155 l 134 147 l 235 147 z "},"„":{"ha":524,"x_min":60,"x_max":440,"o":"m 440 147 l 346 -155 l 265 -155 l 339 147 l 440 147 m 235 147 l 139 -155 l 60 -155 l 134 147 l 235 147 z "},"‹":{"ha":439,"x_min":62,"x_max":379,"o":"m 378 136 l 265 136 l 62 363 l 265 597 l 379 597 l 172 363 l 378 136 z "},"›":{"ha":439,"x_min":62,"x_max":379,"o":"m 379 365 l 175 136 l 62 136 l 269 365 l 62 597 l 175 597 l 379 365 z "},"«":{"ha":703,"x_min":62,"x_max":643,"o":"m 642 136 l 528 136 l 325 363 l 528 597 l 643 597 l 435 363 l 642 136 m 378 136 l 265 136 l 62 363 l 265 597 l 378 597 l 172 363 l 378 136 z "},"»":{"ha":703,"x_min":61,"x_max":643,"o":"m 643 365 l 439 136 l 327 136 l 532 365 l 327 597 l 439 597 l 643 365 m 379 365 l 176 136 l 61 136 l 270 365 l 61 597 l 176 597 l 379 365 z "},"*":{"ha":579,"x_min":52,"x_max":529,"o":"m 529 749 l 343 711 l 472 546 l 397 494 l 292 674 l 184 494 l 110 546 l 239 711 l 52 749 l 82 833 l 260 766 l 244 972 l 338 972 l 322 766 l 500 833 l 529 749 z "},"†":{"ha":521,"x_min":33,"x_max":494,"o":"m 494 606 l 316 626 l 289 155 l 237 155 l 210 626 l 33 606 l 33 707 l 237 694 l 210 972 l 316 972 l 289 694 l 494 707 l 494 606 z "},"‡":{"ha":521,"x_min":33,"x_max":494,"o":"m 494 352 l 289 366 l 316 155 l 210 155 l 237 366 l 33 352 l 33 454 l 210 433 l 250 564 l 210 694 l 33 673 l 33 775 l 237 762 l 210 972 l 316 972 l 289 762 l 494 775 l 494 673 l 316 694 l 277 564 l 316 433 l 494 454 l 494 352 z "},"·":{"ha":301,"x_min":76,"x_max":228,"o":"m 151 346 q 98 368 120 346 q 76 422 76 391 q 98 476 76 454 q 151 498 120 498 q 205 476 183 498 q 228 422 228 454 q 205 368 228 391 q 151 346 183 346 z "},"•":{"ha":564,"x_min":111,"x_max":453,"o":"m 283 277 q 162 326 213 277 q 111 446 111 376 q 162 567 111 516 q 283 618 213 618 q 404 568 354 618 q 453 446 453 517 q 404 326 453 376 q 283 277 354 277 z "},"@":{"ha":1326,"x_min":117,"x_max":1213,"o":"m 789 285 l 786 285 q 591 123 736 123 q 442 192 498 123 q 385 376 385 260 q 464 631 385 530 q 669 732 542 732 q 756 707 718 732 q 806 644 795 682 l 808 644 q 815 722 810 663 l 900 722 q 868 342 868 349 q 949 201 868 201 q 1070 281 1022 201 q 1119 486 1119 360 q 1001 791 1119 673 q 674 909 883 909 q 341 768 473 909 q 210 415 210 627 q 335 79 210 207 q 672 -49 460 -49 q 958 7 840 -49 l 958 -77 q 665 -127 841 -127 q 268 21 418 -127 q 117 411 117 170 q 275 823 117 659 q 680 986 433 986 q 1061 849 910 986 q 1213 492 1213 712 q 1133 227 1213 330 q 939 123 1053 123 q 789 285 790 123 m 668 654 q 532 574 584 654 q 480 375 480 494 q 515 249 480 295 q 608 203 550 203 q 742 287 692 203 q 791 509 791 370 q 668 654 791 654 z "},"©":{"ha":1236,"x_min":110,"x_max":1126,"o":"m 618 -22 q 259 126 408 -22 q 110 486 110 275 q 259 846 110 697 q 618 995 408 995 q 978 846 829 995 q 1126 486 1126 697 q 978 126 1126 275 q 618 -22 829 -22 m 618 935 q 301 804 433 935 q 170 486 170 672 q 301 169 170 300 q 618 38 433 38 q 936 169 804 38 q 1067 486 1067 300 q 936 804 1067 672 q 618 935 804 935 m 823 180 q 640 134 745 134 q 403 230 498 134 q 307 469 307 326 q 405 736 307 637 q 660 836 503 836 q 820 800 749 836 l 820 699 q 648 747 755 747 q 473 675 542 747 q 404 481 404 603 q 474 291 404 363 q 653 220 545 220 q 823 273 752 220 l 823 180 z "},"®":{"ha":1236,"x_min":110,"x_max":1126,"o":"m 618 -22 q 259 126 408 -22 q 110 486 110 275 q 259 846 110 697 q 618 995 408 995 q 978 846 829 995 q 1126 486 1126 697 q 978 126 1126 275 q 618 -22 829 -22 m 618 935 q 301 804 433 935 q 170 486 170 672 q 301 169 170 300 q 618 38 433 38 q 936 169 804 38 q 1067 486 1067 300 q 936 804 1067 672 q 618 935 804 935 m 865 168 l 755 168 l 685 323 q 570 440 631 440 l 510 440 l 510 168 l 420 168 l 420 815 l 602 815 q 776 768 715 815 q 838 639 838 720 q 794 526 838 572 q 674 463 751 479 l 674 460 q 781 340 728 448 l 865 168 m 510 738 l 510 517 l 607 517 q 741 628 741 517 q 705 713 741 688 q 591 738 669 738 l 510 738 z "},"™":{"ha":1074,"x_min":52,"x_max":947,"o":"m 947 524 l 873 524 l 873 848 l 871 848 l 722 524 l 682 524 l 537 848 l 534 848 l 534 524 l 465 524 l 465 972 l 551 972 l 704 636 l 707 636 l 861 972 l 947 972 l 947 524 m 408 906 l 267 906 l 267 524 l 191 524 l 191 906 l 52 906 l 52 972 l 408 972 l 408 906 z "},"§":{"ha":623,"x_min":89,"x_max":547,"o":"m 446 282 q 507 156 507 232 q 439 11 507 66 q 267 -45 372 -45 q 104 -7 178 -45 l 104 100 q 274 50 193 50 q 362 77 331 50 q 393 144 393 104 q 369 205 393 180 q 247 282 345 230 q 89 497 89 365 q 189 663 89 608 q 117 814 117 719 q 180 956 117 900 q 347 1011 243 1011 q 496 982 435 1011 l 496 875 q 345 917 427 917 q 231 819 231 917 q 258 751 231 782 q 396 668 286 721 q 547 469 547 595 q 446 282 547 354 m 270 614 q 201 506 201 579 q 240 420 201 457 q 374 340 278 383 q 433 457 433 387 q 398 540 433 506 q 270 614 362 574 z "},"¶":{"ha":636,"x_min":57,"x_max":566,"o":"m 566 903 l 479 903 l 479 0 l 407 0 l 407 903 l 300 903 l 300 0 l 227 0 l 227 612 q 105 664 153 612 q 57 793 57 715 q 107 923 57 873 q 231 972 158 972 l 566 972 l 566 903 z "},"-":{"ha":555,"x_min":98,"x_max":468,"o":"m 468 343 l 98 343 l 98 431 l 468 431 l 468 343 z "},"–":{"ha":694,"x_min":0,"x_max":694,"o":"m 694 343 l 0 343 l 0 431 l 694 431 l 694 343 z "},"—":{"ha":1389,"x_min":0,"x_max":1389,"o":"m 1389 343 l 0 343 l 0 431 l 1389 431 l 1389 343 z "},"#":{"ha":821,"x_min":22,"x_max":791,"o":"m 791 700 l 775 628 l 598 628 l 555 425 l 746 425 l 728 353 l 541 353 l 481 83 l 396 83 l 454 353 l 285 353 l 228 83 l 143 83 l 200 353 l 22 353 l 36 425 l 216 425 l 257 628 l 69 628 l 83 700 l 271 700 l 328 972 l 414 972 l 357 700 l 528 700 l 586 972 l 669 972 l 612 700 l 791 700 m 514 628 l 343 628 l 298 425 l 471 425 l 514 628 z "},"¹":{"ha":488,"x_min":86,"x_max":433,"o":"m 433 600 l 92 600 l 92 675 l 217 675 l 217 1078 l 86 1041 l 86 1126 l 305 1191 l 305 675 l 433 675 l 433 600 z "},"²":{"ha":509,"x_min":71,"x_max":446,"o":"m 446 600 l 71 600 l 71 677 l 233 837 q 323 943 304 906 q 342 1017 342 980 q 316 1081 342 1057 q 248 1106 290 1106 q 102 1037 168 1106 l 102 1138 q 261 1190 159 1190 q 388 1145 341 1190 q 435 1027 435 1100 q 296 791 435 923 l 184 685 l 184 682 l 446 682 l 446 600 z "},"³":{"ha":509,"x_min":87,"x_max":444,"o":"m 87 621 l 87 718 q 235 666 157 666 q 320 691 289 666 q 351 760 351 717 q 203 856 351 856 l 146 856 l 146 936 l 200 936 q 334 1027 334 936 q 236 1107 334 1107 q 110 1061 172 1107 l 110 1155 q 254 1190 169 1190 q 376 1149 331 1190 q 422 1044 422 1109 q 323 905 422 941 l 323 902 q 444 765 444 873 q 386 635 444 686 q 232 585 328 585 q 87 621 139 585 z "},"%":{"ha":1137,"x_min":54,"x_max":1085,"o":"m 274 485 q 114 551 174 485 q 54 728 54 617 q 117 918 54 848 q 288 987 180 987 q 449 923 391 987 q 506 742 506 859 q 442 555 506 625 q 274 485 378 485 m 283 913 q 182 865 219 913 q 144 734 144 817 q 181 606 144 652 q 281 560 218 560 q 380 608 345 560 q 416 739 416 655 q 381 867 416 821 q 283 913 345 913 m 925 972 l 301 -7 l 204 -7 l 827 972 l 925 972 m 853 -15 q 693 52 753 -15 q 633 228 633 118 q 697 419 633 349 q 867 489 761 489 q 1027 424 970 489 q 1085 241 1085 359 q 1021 55 1085 125 q 853 -15 957 -15 m 863 412 q 761 365 798 412 q 724 233 724 317 q 760 107 724 153 q 860 61 797 61 q 960 109 924 61 q 996 240 996 157 q 960 368 996 323 q 863 412 924 412 z "},"‰":{"ha":1681,"x_min":54,"x_max":1626,"o":"m 274 485 q 114 551 174 485 q 54 728 54 617 q 117 918 54 848 q 288 987 180 987 q 449 923 391 987 q 506 742 506 859 q 442 555 506 625 q 274 485 378 485 m 283 913 q 182 865 219 913 q 144 734 144 817 q 181 606 144 652 q 281 560 218 560 q 380 608 345 560 q 416 739 416 655 q 381 867 416 821 q 283 913 345 913 m 926 972 l 301 -7 l 204 -7 l 829 972 l 926 972 m 1394 -15 q 1234 52 1294 -15 q 1175 228 1175 118 q 1239 418 1175 348 q 1408 489 1303 489 q 1569 424 1512 489 q 1626 241 1626 359 q 1563 55 1626 125 q 1394 -15 1499 -15 m 1404 412 q 1302 365 1339 412 q 1265 233 1265 317 q 1302 106 1265 152 q 1401 61 1338 61 q 1501 109 1466 61 q 1537 240 1537 157 q 1501 367 1537 322 q 1404 412 1466 412 m 853 -15 q 693 52 753 -15 q 633 228 633 118 q 697 419 633 349 q 867 489 761 489 q 1027 424 970 489 q 1085 241 1085 359 q 1021 55 1085 125 q 853 -15 957 -15 m 863 412 q 761 365 798 412 q 724 233 724 317 q 760 107 724 153 q 860 61 797 61 q 960 109 924 61 q 996 240 996 157 q 960 368 996 323 q 863 412 924 412 z "},"⁄":{"ha":240,"x_min":-212,"x_max":468,"o":"m 468 972 l -114 0 l -212 0 l 371 972 l 468 972 z "},"¼":{"ha":1259,"x_min":86,"x_max":1157,"o":"m 433 396 l 92 396 l 92 472 l 217 472 l 217 875 l 86 838 l 86 922 l 305 987 l 305 472 l 433 472 l 433 396 m 1157 138 l 1082 138 l 1082 0 l 993 0 l 993 138 l 726 138 l 726 201 l 977 576 l 1082 576 l 1082 212 l 1157 212 l 1157 138 m 996 491 l 993 491 q 967 441 985 470 l 819 212 l 993 212 l 993 431 q 996 491 993 453 m 945 972 l 363 0 l 265 0 l 848 972 l 945 972 z "},"½":{"ha":1293,"x_min":86,"x_max":1185,"o":"m 433 396 l 92 396 l 92 472 l 217 472 l 217 875 l 86 838 l 86 922 l 305 987 l 305 472 l 433 472 l 433 396 m 1185 1 l 810 1 l 810 78 l 972 238 q 1062 344 1043 307 q 1081 418 1081 381 q 1055 483 1081 458 q 987 507 1029 507 q 841 438 907 507 l 841 539 q 1000 591 898 591 q 1127 546 1080 591 q 1174 428 1174 501 q 1035 192 1174 324 l 924 86 l 924 83 l 1185 83 l 1185 1 m 945 972 l 363 0 l 265 0 l 848 972 l 945 972 z "},"¾":{"ha":1322,"x_min":87,"x_max":1201,"o":"m 87 418 l 87 514 q 235 463 157 463 q 320 488 289 463 q 351 557 351 513 q 203 652 351 652 l 146 652 l 146 732 l 200 732 q 334 823 334 732 q 236 904 334 904 q 110 857 172 904 l 110 951 q 254 986 169 986 q 376 946 331 986 q 422 840 422 905 q 323 701 422 738 l 323 699 q 444 562 444 670 q 386 432 444 482 q 232 382 328 382 q 87 418 139 382 m 1201 138 l 1126 138 l 1126 0 l 1037 0 l 1037 138 l 770 138 l 770 201 l 1021 576 l 1126 576 l 1126 212 l 1201 212 l 1201 138 m 1040 491 l 1037 491 q 1011 441 1029 470 l 863 212 l 1037 212 l 1037 431 q 1040 491 1037 453 m 993 972 l 411 0 l 313 0 l 896 972 l 993 972 z "},"+":{"ha":950,"x_min":157,"x_max":795,"o":"m 795 359 l 521 359 l 521 86 l 431 86 l 431 359 l 157 359 l 157 450 l 431 450 l 431 724 l 521 724 l 521 450 l 795 450 l 795 359 z "},"−":{"ha":950,"x_min":157,"x_max":795,"o":"m 795 359 l 157 359 l 157 450 l 795 450 l 795 359 z "},"±":{"ha":950,"x_min":157,"x_max":795,"o":"m 795 442 l 521 442 l 521 168 l 432 168 l 432 442 l 157 442 l 157 532 l 432 532 l 432 806 l 521 806 l 521 532 l 795 532 l 795 442 m 795 0 l 157 0 l 157 90 l 795 90 l 795 0 z "},"×":{"ha":950,"x_min":182,"x_max":769,"o":"m 769 175 l 705 111 l 475 342 l 245 111 l 182 175 l 412 404 l 182 635 l 245 699 l 475 468 l 705 699 l 769 635 l 538 404 l 769 175 z "},"÷":{"ha":950,"x_min":157,"x_max":795,"o":"m 480 589 q 430 609 450 589 q 410 660 410 630 q 429 712 410 690 q 480 734 449 734 q 550 661 550 734 q 529 609 550 629 q 480 589 509 589 m 795 359 l 157 359 l 157 450 l 795 450 l 795 359 m 477 76 q 427 96 448 76 q 406 146 406 117 q 426 199 406 176 q 477 221 446 221 q 546 147 546 221 q 526 96 546 117 q 477 76 507 76 z "},"=":{"ha":950,"x_min":157,"x_max":795,"o":"m 795 505 l 157 505 l 157 594 l 795 594 l 795 505 m 795 216 l 157 216 l 157 305 l 795 305 l 795 216 z "},"<":{"ha":950,"x_min":184,"x_max":768,"o":"m 768 86 l 184 379 l 184 419 l 768 746 l 768 644 l 332 403 l 332 400 l 768 187 l 768 86 z "},">":{"ha":950,"x_min":184,"x_max":768,"o":"m 768 379 l 184 86 l 184 187 l 621 399 l 621 403 l 184 644 l 184 746 l 768 419 l 768 379 z "},"¬":{"ha":950,"x_min":157,"x_max":795,"o":"m 795 172 l 705 172 l 705 464 l 157 464 l 157 554 l 795 554 l 795 172 z "},"°":{"ha":524,"x_min":73,"x_max":449,"o":"m 261 608 q 128 664 183 608 q 73 798 73 719 q 127 929 73 876 q 260 983 182 983 q 394 929 338 983 q 449 798 449 875 q 394 664 449 719 q 261 608 339 608 m 261 904 q 186 873 217 904 q 155 798 155 842 q 185 720 155 752 q 260 688 216 688 q 336 720 304 688 q 368 798 368 753 q 336 873 368 842 q 261 904 305 904 z "},"^":{"ha":950,"x_min":156,"x_max":796,"o":"m 796 423 l 694 423 l 469 843 l 465 843 l 256 423 l 156 423 l 442 989 l 486 989 l 796 423 z "},"~":{"ha":950,"x_min":142,"x_max":810,"o":"m 810 509 q 755 353 805 408 q 620 298 705 298 q 440 372 546 298 q 332 418 374 418 q 233 298 237 418 l 142 298 q 196 452 145 395 q 332 509 246 509 q 492 449 404 509 q 625 388 581 388 q 692 421 667 388 q 718 509 717 454 l 810 509 z "},"¦":{"ha":332,"x_min":117,"x_max":217,"o":"m 217 485 l 117 485 l 117 1062 l 217 1062 l 217 485 m 217 -327 l 117 -327 l 117 251 l 217 251 l 217 -327 z "},"_":{"ha":576,"x_min":0,"x_max":576,"o":"m 576 -201 l 0 -201 l 0 -121 l 576 -121 l 576 -201 z "},"ª":{"ha":545,"x_min":56,"x_max":467,"o":"m 467 486 l 379 486 l 379 554 l 376 554 q 220 473 323 473 q 101 514 146 473 q 56 617 56 554 q 224 777 56 754 l 379 798 q 277 911 379 911 q 104 853 184 911 l 104 940 q 285 987 180 987 q 418 939 370 987 q 467 802 467 890 l 467 486 m 379 729 l 257 712 q 143 621 143 696 q 169 565 143 587 q 239 543 195 543 q 337 585 294 543 q 379 684 379 626 l 379 729 z "},"º":{"ha":598,"x_min":53,"x_max":545,"o":"m 296 472 q 118 540 182 472 q 53 725 53 608 q 122 917 53 848 q 307 986 192 986 q 481 919 417 986 q 545 735 545 851 q 477 543 545 614 q 296 472 410 472 m 301 911 q 187 863 229 911 q 144 728 144 814 q 185 596 144 644 q 300 549 225 549 q 413 597 371 549 q 454 729 454 646 q 413 863 454 814 q 301 911 372 911 z "},"¤":{"ha":772,"x_min":68,"x_max":704,"o":"m 704 240 l 642 175 l 549 269 q 387 217 477 217 q 224 269 294 217 l 130 175 l 68 240 l 161 331 q 110 492 110 408 q 161 652 110 579 l 68 745 l 130 810 l 224 717 q 387 769 298 769 q 547 717 474 769 l 642 810 l 704 745 l 611 652 q 664 492 664 576 q 611 331 664 410 l 704 240 m 387 680 q 254 625 308 680 q 200 493 200 570 q 255 361 200 416 q 387 307 309 307 q 518 361 463 307 q 574 493 574 416 q 517 625 574 570 q 387 680 461 680 z "},"€":{"ha":749,"x_min":69,"x_max":688,"o":"m 688 34 q 496 -16 597 -16 q 151 327 207 -16 l 69 327 l 69 422 l 142 422 q 140 474 140 443 q 144 547 140 507 l 69 547 l 69 642 l 158 642 q 289 897 193 805 q 522 989 385 989 q 688 951 614 989 l 688 841 q 514 894 610 894 q 363 826 429 894 q 271 642 297 758 l 608 642 l 608 547 l 256 547 q 255 422 250 480 l 608 422 l 608 327 l 266 327 q 503 79 315 79 q 688 138 592 79 l 688 34 z "},"$":{"ha":749,"x_min":110,"x_max":663,"o":"m 418 5 l 418 -142 l 347 -142 l 347 0 q 113 58 203 0 l 113 176 q 220 118 152 142 q 347 95 288 95 l 347 442 q 154 575 198 514 q 110 718 110 635 q 177 888 110 817 q 347 974 244 960 l 347 1096 l 418 1096 l 418 977 q 602 939 551 972 l 602 823 q 418 882 532 878 l 418 524 q 611 394 559 456 q 663 251 663 331 q 598 89 663 155 q 418 5 533 24 m 347 562 l 347 878 q 257 827 290 866 q 224 732 224 788 q 251 637 224 674 q 347 562 278 600 m 418 407 l 418 100 q 549 241 549 129 q 418 407 549 335 z "},"¢":{"ha":749,"x_min":125,"x_max":646,"o":"m 646 142 q 496 95 581 102 l 496 -33 l 411 -33 l 411 96 q 202 205 280 111 q 125 440 125 300 q 202 689 125 589 q 411 814 280 789 l 411 958 l 496 958 l 496 821 q 646 786 579 819 l 646 669 q 496 722 577 718 l 496 190 q 646 248 578 198 l 646 142 m 411 197 l 411 713 q 284 623 330 692 q 239 452 239 553 q 285 283 239 350 q 411 197 331 216 z "},"£":{"ha":749,"x_min":72,"x_max":682,"o":"m 682 0 l 72 0 l 72 92 q 220 304 220 138 l 220 431 l 86 431 l 86 526 l 220 526 l 220 699 q 294 907 220 826 q 485 989 368 989 q 629 961 564 989 l 629 856 q 486 895 562 895 q 331 686 331 895 l 331 526 l 532 526 l 532 431 l 331 431 l 331 325 q 200 95 331 161 l 682 95 l 682 0 z "},"¥":{"ha":749,"x_min":46,"x_max":707,"o":"m 707 972 l 465 528 l 659 528 l 659 433 l 432 433 l 432 293 l 659 293 l 659 199 l 432 199 l 432 0 l 321 0 l 321 199 l 87 199 l 87 293 l 321 293 l 321 433 l 87 433 l 87 528 l 285 528 l 46 972 l 176 972 l 346 624 q 378 549 365 585 l 380 549 q 414 628 389 577 l 585 972 l 707 972 z "},"ƒ":{"ha":749,"x_min":64,"x_max":646,"o":"m 646 859 q 572 878 613 878 q 457 769 473 878 l 436 628 l 549 628 l 549 534 l 422 534 l 361 95 q 125 -189 321 -189 q 64 -178 104 -189 l 64 -81 q 122 -95 88 -95 q 251 103 224 -95 l 313 534 l 243 534 l 243 628 l 327 628 l 346 777 q 417 919 357 865 q 567 972 476 972 q 646 960 610 972 l 646 859 z "},"`":{"ha":372,"x_min":56,"x_max":319,"o":"m 319 826 l 233 826 l 56 1048 l 170 1048 l 319 826 z "},"´":{"ha":392,"x_min":92,"x_max":355,"o":"m 355 1048 l 178 826 l 92 826 l 243 1048 l 355 1048 z "},"ˆ":{"ha":515,"x_min":62,"x_max":445,"o":"m 445 826 l 362 826 l 251 982 l 139 826 l 62 826 l 208 1051 l 298 1051 l 445 826 z "},"ˇ":{"ha":515,"x_min":69,"x_max":450,"o":"m 450 1050 l 305 826 l 216 826 l 69 1050 l 147 1050 l 258 895 l 370 1050 l 450 1050 z "},"˜":{"ha":468,"x_min":24,"x_max":458,"o":"m 458 989 q 426 872 458 918 q 338 827 393 827 q 228 863 290 827 q 147 892 176 892 q 87 815 87 892 l 24 815 q 56 931 24 888 q 147 975 89 975 q 248 940 191 975 q 335 910 298 910 q 392 989 392 910 l 458 989 z "},"¨":{"ha":575,"x_min":85,"x_max":480,"o":"m 414 826 q 367 845 387 826 q 347 893 347 864 q 366 941 347 922 q 412 960 385 960 q 460 940 441 960 q 480 893 480 921 q 461 846 480 865 q 414 826 442 826 m 153 826 q 105 846 125 826 q 85 893 85 866 q 104 941 85 922 q 151 960 123 960 q 199 940 179 960 q 220 893 220 921 q 200 846 220 865 q 153 826 180 826 z "},"¯":{"ha":431,"x_min":42,"x_max":387,"o":"m 387 826 l 42 826 l 42 900 l 387 900 l 387 826 z "},"˘":{"ha":422,"x_min":25,"x_max":397,"o":"m 397 997 q 337 873 391 920 q 208 826 284 826 q 79 873 129 826 q 25 997 28 920 l 93 997 q 210 892 101 892 q 289 920 256 892 q 328 997 321 949 l 397 997 z "},"˚":{"ha":389,"x_min":56,"x_max":335,"o":"m 193 798 q 95 833 134 798 q 56 926 56 869 q 96 1024 56 987 q 197 1061 136 1061 q 296 1024 258 1061 q 335 930 335 987 q 294 836 335 873 q 193 798 252 798 m 193 1006 q 138 984 160 1006 q 117 929 117 962 q 193 853 117 853 q 249 875 227 853 q 271 929 271 897 q 249 984 271 962 q 193 1006 227 1006 z "},"¸":{"ha":285,"x_min":35,"x_max":265,"o":"m 265 -174 q 79 -293 265 -293 q 35 -292 53 -293 l 35 -231 q 82 -235 64 -235 q 178 -174 178 -235 q 90 -121 178 -121 q 62 -123 83 -121 l 62 0 l 136 0 l 136 -71 q 230 -98 195 -71 q 265 -174 265 -125 z "},"µ":{"ha":802,"x_min":113,"x_max":711,"o":"m 711 0 l 595 0 q 580 114 580 49 l 576 114 q 387 -16 519 -16 q 226 68 274 -16 l 223 68 l 223 -269 l 113 -269 l 113 694 l 223 694 l 223 270 q 270 133 223 184 q 392 82 317 82 q 525 140 474 82 q 576 297 576 199 l 576 694 l 689 694 l 689 180 q 711 0 689 52 z "},"₹":{"ha":749,"x_min":99,"x_max":650,"o":"m 650 878 l 472 878 l 471 876 q 512 822 496 854 q 533 748 528 789 l 650 748 l 650 654 l 530 654 q 496 571 520 609 q 436 505 473 533 q 350 460 399 477 q 239 441 300 444 l 239 440 l 569 0 l 429 0 l 99 443 l 99 517 l 204 517 q 288 527 252 517 q 351 555 325 537 q 392 599 376 574 q 416 654 408 624 l 99 654 l 99 748 l 418 748 q 367 844 409 810 q 239 878 325 878 l 99 878 l 99 972 l 650 972 l 650 878 z "},"₨":{"ha":1190,"x_min":127,"x_max":1122,"o":"m 697 0 l 562 0 l 441 293 q 293 414 389 414 l 241 414 l 241 0 l 127 0 l 127 972 l 366 972 q 484 957 430 972 q 576 908 537 941 q 636 827 614 876 q 658 713 658 779 q 644 618 658 663 q 604 539 630 574 q 538 480 577 505 q 450 445 500 456 l 450 442 q 549 327 505 422 l 697 0 m 241 869 l 241 517 l 340 517 q 419 530 383 517 q 482 567 456 543 q 524 626 509 591 q 538 704 538 661 q 490 826 538 782 q 346 869 441 869 l 241 869 m 715 140 q 801 95 758 111 q 891 78 845 78 q 1010 153 1010 78 q 1001 189 1010 174 q 974 214 991 203 q 936 233 958 224 q 890 249 914 241 q 808 283 841 265 q 755 323 775 301 q 727 371 735 345 q 719 429 719 397 q 734 496 719 465 q 780 551 750 528 q 851 589 809 575 q 947 602 894 602 q 1025 595 986 602 q 1095 576 1064 589 l 1095 466 q 1023 498 1060 487 q 944 509 985 509 q 899 504 920 509 q 864 489 878 498 q 841 466 849 479 q 832 435 832 452 q 840 399 832 413 q 862 375 848 385 q 897 357 877 365 q 942 342 918 350 q 1021 311 987 327 q 1077 274 1055 295 q 1111 226 1099 253 q 1122 161 1122 199 q 1111 96 1122 128 q 1071 39 1099 64 q 999 -1 1044 14 q 888 -16 954 -16 q 797 -6 842 -16 q 715 22 752 3 l 715 140 z "},"‌":{"ha":0,"x_min":-24,"x_max":24,"o":"m 24 1187 l 24 -277 l -24 -277 l -24 1187 l 24 1187 z "},"‍":{"ha":0,"x_min":-149,"x_max":149,"o":"m 24 -277 l -24 -277 l -24 984 l -115 892 l -149 925 l -33 1040 l -149 1154 l -115 1187 l 0 1071 l 115 1187 l 149 1154 l 33 1040 l 149 925 l 115 892 l 24 984 l 24 -277 z "},"◌":{"ha":825,"x_min":69,"x_max":756,"o":"m 665 623 q 632 589 665 589 q 597 623 597 589 q 632 656 597 656 q 665 623 665 656 m 564 689 q 532 656 564 656 q 496 689 496 656 q 532 724 496 724 q 564 689 564 724 m 732 522 q 697 488 732 488 q 664 522 664 488 q 699 555 664 555 q 732 522 732 555 m 756 404 q 724 370 756 370 q 688 404 688 370 q 724 438 688 438 q 756 404 756 438 m 446 714 q 412 680 446 680 q 378 714 378 680 q 412 747 378 747 q 446 714 446 747 m 329 689 q 294 656 329 656 q 261 689 261 656 q 294 724 261 724 q 329 689 329 724 m 732 286 q 697 253 732 253 q 664 286 664 253 q 697 321 664 321 q 732 286 732 321 m 229 623 q 195 589 229 589 q 161 621 161 589 q 195 656 161 656 q 229 623 229 656 m 665 184 q 632 151 665 151 q 597 184 597 151 q 632 219 597 219 q 665 184 665 219 m 564 118 q 532 85 564 85 q 496 118 496 85 q 532 153 496 153 q 564 118 564 153 m 161 522 q 129 488 161 488 q 94 522 94 488 q 127 555 94 555 q 161 522 161 555 m 137 404 q 104 370 138 370 q 69 404 69 370 q 104 438 69 438 q 137 404 138 438 m 446 96 q 412 61 446 61 q 378 96 378 61 q 412 129 378 129 q 446 96 446 129 m 161 286 q 127 253 161 253 q 94 286 94 253 q 127 321 94 321 q 161 286 161 321 m 329 121 q 294 85 329 85 q 261 118 261 85 q 294 153 261 153 q 329 121 329 153 m 229 184 q 195 151 229 151 q 161 184 161 151 q 195 219 161 219 q 229 184 229 219 z "},"ऄ":{"ha":1139,"x_min":69,"x_max":1163,"o":"m 158 600 q 182 530 168 568 q 214 454 195 492 q 256 380 233 416 q 310 316 279 344 q 376 272 340 288 q 458 255 413 255 q 532 268 502 255 q 582 302 563 281 q 609 353 601 324 q 618 414 618 382 q 567 524 618 484 q 421 563 517 563 q 398 562 410 563 q 375 560 387 562 l 375 663 q 385 663 380 663 q 390 663 389 663 q 474 674 437 663 q 536 707 511 686 q 574 754 562 727 q 587 811 587 781 q 578 859 587 838 q 552 895 568 880 q 513 916 536 909 q 465 923 491 923 q 429 921 446 923 q 393 913 412 918 q 353 900 374 908 q 304 880 332 892 l 266 972 q 368 1011 319 998 q 467 1025 416 1025 q 558 1009 516 1025 q 630 966 600 994 q 677 901 660 939 q 694 819 694 863 q 578 623 694 697 l 578 621 q 654 574 623 602 q 695 568 673 570 q 736 566 718 566 q 776 569 755 566 q 819 579 797 572 q 864 600 841 587 q 909 635 886 614 l 909 1011 l 1163 1011 l 1163 911 l 1021 911 l 1021 0 l 909 0 l 909 515 l 907 516 q 834 482 868 490 q 764 474 800 474 q 741 475 753 474 q 715 477 728 476 l 715 475 q 726 406 726 447 q 707 304 726 351 q 655 223 689 258 q 572 170 621 189 q 463 151 524 151 q 347 174 399 151 q 253 233 295 197 q 180 314 212 269 q 127 404 149 359 q 90 491 104 450 q 69 559 76 532 l 158 600 m 927 993 q 914 1070 924 1038 q 889 1124 904 1103 q 855 1158 874 1145 q 814 1176 836 1170 q 768 1185 792 1183 q 718 1187 743 1187 q 660 1190 689 1188 q 603 1199 631 1192 q 550 1220 576 1206 q 504 1260 525 1234 q 466 1326 482 1286 q 439 1423 449 1366 l 522 1443 q 555 1355 533 1385 q 607 1310 577 1324 q 673 1293 637 1295 q 747 1290 709 1291 q 811 1287 780 1289 q 869 1275 842 1284 q 921 1247 897 1265 q 964 1196 945 1228 q 996 1114 983 1163 q 1014 993 1008 1064 l 927 993 z "},"अ":{"ha":1139,"x_min":69,"x_max":1163,"o":"m 158 600 q 182 530 168 568 q 214 454 195 492 q 256 380 233 416 q 310 316 279 344 q 376 272 340 288 q 458 255 413 255 q 532 268 502 255 q 582 302 563 281 q 609 353 601 324 q 618 414 618 382 q 567 524 618 484 q 421 563 517 563 q 398 562 410 563 q 375 560 387 562 l 375 663 q 385 663 380 663 q 390 663 389 663 q 474 674 437 663 q 536 707 511 686 q 574 754 562 727 q 587 811 587 781 q 578 859 587 838 q 552 895 568 880 q 513 916 536 909 q 465 923 491 923 q 429 921 446 923 q 393 913 412 918 q 353 900 374 908 q 304 880 332 892 l 266 972 q 368 1011 319 998 q 467 1025 416 1025 q 558 1009 516 1025 q 630 966 600 994 q 677 901 660 939 q 694 819 694 863 q 578 623 694 697 l 578 621 q 654 574 623 602 q 695 568 673 570 q 736 566 718 566 q 776 569 755 566 q 819 579 797 572 q 864 600 841 587 q 909 635 886 614 l 909 1011 l 1163 1011 l 1163 911 l 1021 911 l 1021 0 l 909 0 l 909 515 l 907 516 q 834 482 868 490 q 764 474 800 474 q 741 475 753 474 q 715 477 728 476 l 715 475 q 726 406 726 447 q 707 304 726 351 q 655 223 689 258 q 572 170 621 189 q 463 151 524 151 q 347 174 399 151 q 253 233 295 197 q 180 314 212 269 q 127 404 149 359 q 90 491 104 450 q 69 559 76 532 l 158 600 z "},"आ":{"ha":1500,"x_min":69,"x_max":1524,"o":"m 158 600 q 182 530 168 568 q 214 454 195 492 q 256 380 233 416 q 310 316 279 344 q 376 272 340 288 q 458 255 413 255 q 532 268 502 255 q 582 302 563 281 q 609 353 601 324 q 618 414 618 382 q 567 524 618 484 q 421 563 517 563 q 398 562 410 563 q 375 560 387 562 l 375 663 q 385 663 380 663 q 390 663 389 663 q 474 674 437 663 q 536 707 511 686 q 574 754 562 727 q 587 811 587 781 q 578 859 587 838 q 552 895 568 880 q 513 916 536 909 q 465 923 491 923 q 429 921 446 923 q 393 913 412 918 q 353 900 374 908 q 304 880 332 892 l 266 972 q 368 1011 319 998 q 467 1025 416 1025 q 558 1009 516 1025 q 630 966 600 994 q 677 901 660 939 q 694 819 694 863 q 578 623 694 697 l 578 621 q 654 574 623 602 q 695 568 673 570 q 736 566 718 566 q 776 569 755 566 q 819 579 797 572 q 864 600 841 587 q 909 635 886 614 l 909 1011 l 1163 1011 l 1163 911 l 1021 911 l 1021 0 l 909 0 l 909 515 l 907 516 q 834 482 868 490 q 764 474 800 474 q 741 475 753 474 q 715 477 728 476 l 715 475 q 726 406 726 447 q 707 304 726 351 q 655 223 689 258 q 572 170 621 189 q 463 151 524 151 q 347 174 399 151 q 253 233 295 197 q 180 314 212 269 q 127 404 149 359 q 90 491 104 450 q 69 559 76 532 l 158 600 m 1524 911 l 1381 911 l 1381 0 l 1270 0 l 1270 911 l 1116 911 l 1116 1011 l 1524 1011 l 1524 911 z "},"इ":{"ha":787,"x_min":-24,"x_max":810,"o":"m 454 54 l 454 51 q 520 -11 486 17 q 587 -61 555 -39 q 647 -98 619 -83 q 692 -120 674 -113 l 644 -205 q 558 -153 601 -182 q 476 -90 516 -123 q 402 -24 437 -58 q 339 41 367 10 q 240 62 281 46 q 175 99 200 77 q 138 146 149 121 q 126 195 126 171 q 132 227 126 212 q 149 254 138 243 q 177 273 160 266 q 215 279 193 279 q 264 271 238 279 q 315 247 290 263 q 363 206 340 231 q 404 148 387 181 q 532 205 489 162 q 576 318 576 248 q 569 362 576 345 q 547 389 562 379 q 512 401 533 398 q 462 404 490 404 l 275 404 q 189 426 225 404 q 128 480 152 447 q 92 552 104 513 q 81 629 81 592 q 94 695 81 669 q 129 738 106 722 q 182 761 151 754 q 249 768 213 768 l 486 768 l 486 911 l -24 911 l -24 1011 l 810 1011 l 810 911 l 597 911 l 597 668 l 277 668 q 208 654 227 668 q 189 608 189 640 q 193 575 189 593 q 208 544 197 558 q 237 519 218 529 q 285 509 256 509 l 474 509 q 572 495 532 509 q 637 455 612 481 q 672 395 661 430 q 683 318 683 359 q 669 228 683 270 q 628 152 656 186 q 557 93 600 117 q 454 54 514 68 z "},"ई":{"ha":787,"x_min":-24,"x_max":810,"o":"m 454 54 l 454 51 q 520 -11 486 17 q 587 -61 555 -39 q 647 -98 619 -83 q 692 -120 674 -113 l 644 -205 q 558 -153 601 -182 q 476 -90 516 -123 q 402 -24 437 -58 q 339 41 367 10 q 240 62 281 46 q 175 99 200 77 q 138 146 149 121 q 126 195 126 171 q 132 227 126 212 q 149 254 138 243 q 177 273 160 266 q 215 279 193 279 q 264 271 238 279 q 315 247 290 263 q 363 206 340 231 q 404 148 387 181 q 532 205 489 162 q 576 318 576 248 q 569 362 576 345 q 547 389 562 379 q 512 401 533 398 q 462 404 490 404 l 275 404 q 189 426 225 404 q 128 480 152 447 q 92 552 104 513 q 81 629 81 592 q 94 695 81 669 q 129 738 106 722 q 182 761 151 754 q 249 768 213 768 l 486 768 l 486 911 l -24 911 l -24 1011 l 810 1011 l 810 911 l 597 911 l 597 668 l 277 668 q 208 654 227 668 q 189 608 189 640 q 193 575 189 593 q 208 544 197 558 q 237 519 218 529 q 285 509 256 509 l 474 509 q 572 495 532 509 q 637 455 612 481 q 672 395 661 430 q 683 318 683 359 q 669 228 683 270 q 628 152 656 186 q 557 93 600 117 q 454 54 514 68 m 721 1308 q 665 1357 691 1341 q 605 1373 640 1373 q 520 1336 552 1373 q 488 1234 488 1300 q 494 1178 488 1207 q 512 1118 500 1148 q 541 1059 524 1088 q 579 1004 557 1030 l 467 1004 q 406 1122 426 1061 q 385 1240 385 1183 q 403 1340 385 1296 q 451 1414 421 1384 q 520 1460 481 1444 q 604 1476 560 1476 q 710 1452 663 1476 q 797 1377 756 1429 l 721 1308 z "},"उ":{"ha":979,"x_min":-24,"x_max":1002,"o":"m 1002 911 l 781 911 q 811 836 801 874 q 822 758 822 797 q 814 694 822 726 q 790 635 806 663 q 751 585 774 608 q 696 545 727 562 l 696 541 q 808 432 766 500 q 850 271 850 364 q 833 164 850 216 q 783 72 817 112 q 695 8 749 32 q 568 -16 642 -16 q 421 12 487 -16 q 302 87 355 41 q 210 195 250 134 q 141 319 170 255 q 96 446 113 383 q 70 559 78 508 l 159 600 q 187 482 168 543 q 232 365 205 422 q 294 257 259 308 q 370 168 328 206 q 460 108 412 130 q 563 86 509 86 q 627 95 595 86 q 684 126 659 104 q 724 185 709 149 q 740 276 740 222 q 677 438 740 384 q 491 493 614 493 q 465 492 479 493 q 436 490 451 492 l 436 593 q 451 593 441 593 q 478 592 461 592 q 587 606 542 592 q 660 643 631 619 q 701 699 688 667 q 713 768 713 731 q 700 844 713 808 q 665 911 687 880 l -24 911 l -24 1011 l 1002 1011 l 1002 911 z "},"ऊ":{"ha":1326,"x_min":-24,"x_max":1350,"o":"m 1350 911 l 781 911 q 811 836 801 874 q 822 758 822 797 q 814 694 822 726 q 790 635 806 663 q 751 585 774 608 q 696 545 727 562 l 696 541 q 752 500 726 523 q 797 449 777 477 q 882 528 833 498 q 995 559 930 559 q 1088 538 1046 559 q 1160 482 1131 517 q 1206 401 1190 447 q 1222 307 1222 356 q 1207 212 1222 258 q 1166 127 1192 167 q 1106 53 1140 87 q 1034 -8 1072 18 l 968 75 q 1031 132 1004 105 q 1077 186 1059 159 q 1105 242 1096 213 q 1115 309 1115 272 q 1082 416 1115 378 q 995 454 1048 454 q 944 444 967 454 q 902 419 921 434 q 868 386 883 404 q 840 351 852 368 q 847 312 845 332 q 850 271 850 292 q 833 164 850 216 q 783 72 817 112 q 695 8 749 32 q 568 -16 642 -16 q 421 12 487 -16 q 302 87 355 41 q 210 195 250 134 q 141 319 170 255 q 96 446 113 383 q 70 559 78 508 l 159 600 q 187 482 168 543 q 232 365 205 422 q 294 257 259 308 q 370 168 328 206 q 460 108 412 130 q 563 86 509 86 q 627 95 595 86 q 684 126 659 104 q 724 185 709 149 q 740 276 740 222 q 491 493 740 493 q 465 492 479 493 q 436 490 451 492 l 436 593 q 451 593 441 593 q 478 592 461 592 q 587 606 542 592 q 660 643 631 619 q 701 699 688 667 q 713 768 713 731 q 700 844 713 808 q 665 911 687 880 l -24 911 l -24 1011 l 1350 1011 l 1350 911 z "},"ऋ":{"ha":1265,"x_min":-24,"x_max":1289,"o":"m 73 750 q 119 754 92 752 q 174 759 146 757 q 227 762 202 760 q 264 763 252 763 q 329 750 296 763 q 396 715 362 736 q 464 665 429 693 q 534 608 498 637 l 537 609 l 537 911 l -24 911 l -24 1011 l 1289 1011 l 1289 911 l 648 911 l 648 532 q 698 539 674 533 q 743 553 722 545 q 780 571 764 561 q 808 591 796 581 q 798 624 801 607 q 795 658 795 641 q 803 713 795 686 q 828 762 812 741 q 866 795 844 783 q 915 808 888 808 q 954 800 937 808 q 982 775 970 791 q 998 740 993 760 q 1004 696 1004 720 q 1000 660 1004 678 q 989 624 996 642 q 974 592 983 607 q 956 567 966 578 l 956 564 q 1050 489 1012 524 q 1111 420 1088 454 q 1143 353 1133 387 q 1153 285 1153 320 q 1127 179 1153 227 q 1057 95 1102 132 q 950 30 1012 58 q 817 -16 888 3 l 791 90 q 823 98 800 92 q 873 115 845 104 q 932 142 902 126 q 987 178 962 157 q 1029 226 1013 199 q 1045 284 1045 252 q 1029 349 1045 317 q 988 410 1014 381 q 931 462 963 438 q 868 505 900 486 q 818 479 842 490 q 767 458 793 467 q 711 445 741 450 q 648 438 682 439 l 648 -1 l 537 -1 l 537 392 l 536 393 l 174 103 l 105 189 l 532 506 l 532 509 q 467 562 499 536 q 402 608 435 588 q 337 640 370 628 q 271 652 304 652 q 234 650 258 652 q 180 647 209 649 q 122 641 151 644 q 73 635 93 638 l 73 750 z "},"ऌ":{"ha":1042,"x_min":-23,"x_max":1066,"o":"m 469 432 q 459 504 466 467 q 440 571 453 541 q 404 621 427 602 q 346 640 381 640 q 299 630 321 640 q 259 599 276 620 q 231 547 241 578 q 220 473 220 515 q 247 344 220 403 q 315 236 273 286 q 406 145 356 186 q 501 71 455 104 l 440 -16 q 389 19 421 -4 q 320 75 357 42 q 246 151 283 109 q 178 244 209 193 q 129 353 148 295 q 109 476 109 412 q 127 587 109 537 q 176 672 145 637 q 249 728 207 708 q 340 747 292 747 q 407 737 378 747 q 457 710 435 726 q 493 674 478 694 q 517 636 508 654 l 521 637 q 618 728 553 705 l 618 911 l -23 911 l -23 1011 l 1066 1011 l 1066 911 l 729 911 l 729 736 q 813 704 778 728 q 871 645 848 679 q 904 574 893 612 q 914 503 914 536 q 903 434 914 465 q 874 377 891 403 q 837 331 857 351 q 800 294 817 310 q 753 244 772 268 q 734 191 734 220 q 741 162 734 175 q 758 140 747 149 q 783 126 769 131 q 812 121 797 121 q 856 131 833 121 q 900 155 879 140 q 941 188 922 170 q 974 222 960 205 l 1046 142 q 1002 99 1026 120 q 948 61 977 77 q 886 34 919 44 q 818 23 854 23 q 743 37 777 23 q 684 74 709 50 q 645 130 659 98 q 631 197 631 161 q 640 249 631 226 q 661 293 648 273 q 690 331 673 313 q 724 366 707 349 q 758 402 743 385 q 785 435 774 418 q 802 471 795 452 q 808 513 808 490 q 798 568 808 543 q 772 610 789 592 q 733 637 755 627 q 685 646 711 646 q 631 632 653 646 q 596 595 610 618 q 577 541 583 572 q 571 476 571 510 q 572 454 571 466 q 574 432 572 443 l 469 432 z "},"ऍ":{"ha":792,"x_min":-24,"x_max":816,"o":"m 562 911 l 240 911 l 240 426 q 253 343 240 376 q 293 285 265 311 q 365 236 321 260 q 471 182 408 213 q 578 127 528 153 q 665 71 628 100 q 722 8 701 42 q 743 -69 743 -26 q 730 -136 743 -102 q 690 -200 716 -170 l 599 -144 q 618 -110 609 -128 q 627 -72 627 -92 q 609 -23 627 -45 q 562 21 591 0 q 493 61 532 41 q 412 101 454 81 q 288 163 341 136 q 200 224 235 191 q 146 301 164 257 q 129 412 129 345 l 129 911 l -24 911 l -24 1011 l 816 1011 l 816 911 l 673 911 l 673 481 q 659 395 673 429 q 622 341 644 361 q 571 314 599 321 q 518 306 544 306 q 467 312 492 306 q 420 327 442 317 l 420 437 q 456 422 435 429 q 500 416 478 416 q 532 422 520 416 q 551 443 545 429 q 560 476 558 456 q 562 522 562 496 l 562 911 m 197 1431 q 221 1358 205 1396 q 260 1287 236 1319 q 320 1234 285 1255 q 404 1213 355 1213 q 467 1223 436 1213 q 524 1258 497 1233 q 570 1324 550 1282 q 602 1431 591 1367 l 703 1403 q 660 1283 687 1337 q 595 1190 633 1229 q 508 1130 557 1152 q 397 1109 458 1109 q 208 1181 286 1109 q 97 1403 130 1253 l 197 1431 z "},"ऎ":{"ha":792,"x_min":-24,"x_max":816,"o":"m 562 911 l 240 911 l 240 426 q 253 343 240 376 q 293 285 265 311 q 365 236 321 260 q 471 182 408 213 q 578 127 528 153 q 665 71 628 100 q 722 8 701 42 q 743 -69 743 -26 q 730 -136 743 -102 q 690 -200 716 -170 l 599 -144 q 618 -110 609 -128 q 627 -72 627 -92 q 609 -23 627 -45 q 562 21 591 0 q 493 61 532 41 q 412 101 454 81 q 288 163 341 136 q 200 224 235 191 q 146 301 164 257 q 129 412 129 345 l 129 911 l -24 911 l -24 1011 l 816 1011 l 816 911 l 673 911 l 673 481 q 659 395 673 429 q 622 341 644 361 q 571 314 599 321 q 518 306 544 306 q 467 312 492 306 q 420 327 442 317 l 420 437 q 456 422 435 429 q 500 416 478 416 q 532 422 520 416 q 551 443 545 429 q 560 476 558 456 q 562 522 562 496 l 562 911 m 576 993 q 563 1070 572 1038 q 538 1124 553 1103 q 504 1158 523 1145 q 463 1176 485 1170 q 416 1185 441 1183 q 367 1187 392 1187 q 309 1190 338 1188 q 252 1199 279 1192 q 199 1220 224 1206 q 152 1260 174 1234 q 114 1326 131 1286 q 87 1423 98 1366 l 170 1443 q 204 1355 182 1385 q 256 1310 226 1324 q 321 1293 286 1295 q 396 1290 357 1291 q 459 1287 429 1289 q 518 1275 490 1284 q 570 1247 546 1265 q 613 1196 594 1228 q 644 1114 631 1163 q 663 993 657 1064 l 576 993 z "},"ए":{"ha":792,"x_min":-24,"x_max":816,"o":"m 562 911 l 240 911 l 240 426 q 253 343 240 376 q 293 285 265 311 q 365 236 321 260 q 471 182 408 213 q 578 127 528 153 q 665 71 628 100 q 722 8 701 42 q 743 -69 743 -26 q 730 -136 743 -102 q 690 -200 716 -170 l 599 -144 q 618 -110 609 -128 q 627 -72 627 -92 q 609 -23 627 -45 q 562 21 591 0 q 493 61 532 41 q 412 101 454 81 q 288 163 341 136 q 200 224 235 191 q 146 301 164 257 q 129 412 129 345 l 129 911 l -24 911 l -24 1011 l 816 1011 l 816 911 l 673 911 l 673 481 q 659 395 673 429 q 622 341 644 361 q 571 314 599 321 q 518 306 544 306 q 467 312 492 306 q 420 327 442 317 l 420 437 q 456 422 435 429 q 500 416 478 416 q 532 422 520 416 q 551 443 545 429 q 560 476 558 456 q 562 522 562 496 l 562 911 z "},"ऐ":{"ha":792,"x_min":-24,"x_max":816,"o":"m 562 911 l 240 911 l 240 426 q 253 343 240 376 q 293 285 265 311 q 365 236 321 260 q 471 182 408 213 q 578 127 528 153 q 665 71 628 100 q 722 8 701 42 q 743 -69 743 -26 q 730 -136 743 -102 q 690 -200 716 -170 l 599 -144 q 618 -110 609 -128 q 627 -72 627 -92 q 609 -23 627 -45 q 562 21 591 0 q 493 61 532 41 q 412 101 454 81 q 288 163 341 136 q 200 224 235 191 q 146 301 164 257 q 129 412 129 345 l 129 911 l -24 911 l -24 1011 l 816 1011 l 816 911 l 673 911 l 673 481 q 659 395 673 429 q 622 341 644 361 q 571 314 599 321 q 518 306 544 306 q 467 312 492 306 q 420 327 442 317 l 420 437 q 456 422 435 429 q 500 416 478 416 q 532 422 520 416 q 551 443 545 429 q 560 476 558 456 q 562 522 562 496 l 562 911 m 664 992 l 566 992 l 504 1108 q 432 1225 465 1182 q 371 1292 400 1269 q 315 1321 342 1314 q 256 1327 287 1327 l 125 1327 l 125 1437 l 249 1437 q 320 1431 288 1437 q 381 1408 352 1424 q 437 1361 410 1391 q 496 1285 465 1332 q 564 1174 527 1239 q 648 1021 601 1109 l 664 992 z "},"ऑ":{"ha":1500,"x_min":69,"x_max":1627,"o":"m 158 600 q 182 530 168 568 q 214 454 195 492 q 256 380 233 416 q 310 316 279 344 q 376 272 340 288 q 458 255 413 255 q 532 268 502 255 q 582 302 563 281 q 609 353 601 324 q 618 414 618 382 q 567 524 618 484 q 421 563 517 563 q 398 562 410 563 q 375 560 387 562 l 375 663 q 385 663 380 663 q 390 663 389 663 q 474 674 437 663 q 536 707 511 686 q 574 754 562 727 q 587 811 587 781 q 578 859 587 838 q 552 895 568 880 q 513 916 536 909 q 465 923 491 923 q 429 921 446 923 q 393 913 412 918 q 353 900 374 908 q 304 880 332 892 l 266 972 q 368 1011 319 998 q 467 1025 416 1025 q 558 1009 516 1025 q 630 966 600 994 q 677 901 660 939 q 694 819 694 863 q 578 623 694 697 l 578 621 q 654 574 623 602 q 695 568 673 570 q 736 566 718 566 q 776 569 755 566 q 819 579 797 572 q 864 600 841 587 q 909 635 886 614 l 909 1011 l 1163 1011 l 1163 911 l 1021 911 l 1021 0 l 909 0 l 909 515 l 907 516 q 834 482 868 490 q 764 474 800 474 q 741 475 753 474 q 715 477 728 476 l 715 475 q 726 406 726 447 q 707 304 726 351 q 655 223 689 258 q 572 170 621 189 q 463 151 524 151 q 347 174 399 151 q 253 233 295 197 q 180 314 212 269 q 127 404 149 359 q 90 491 104 450 q 69 559 76 532 l 158 600 m 1524 911 l 1381 911 l 1381 0 l 1270 0 l 1270 911 l 1116 911 l 1116 1011 l 1524 1011 l 1524 911 m 1121 1431 q 1145 1358 1130 1396 q 1185 1287 1160 1319 q 1244 1234 1209 1255 q 1329 1213 1280 1213 q 1391 1223 1360 1213 q 1448 1258 1421 1233 q 1495 1324 1474 1282 q 1527 1431 1515 1367 l 1627 1403 q 1585 1283 1611 1337 q 1520 1190 1558 1229 q 1432 1130 1482 1152 q 1322 1109 1383 1109 q 1132 1181 1210 1109 q 1021 1403 1055 1253 l 1121 1431 z "},"ऒ":{"ha":1500,"x_min":69,"x_max":1524,"o":"m 158 600 q 182 530 168 568 q 214 454 195 492 q 256 380 233 416 q 310 316 279 344 q 376 272 340 288 q 458 255 413 255 q 532 268 502 255 q 582 302 563 281 q 609 353 601 324 q 618 414 618 382 q 567 524 618 484 q 421 563 517 563 q 398 562 410 563 q 375 560 387 562 l 375 663 q 385 663 380 663 q 390 663 389 663 q 474 674 437 663 q 536 707 511 686 q 574 754 562 727 q 587 811 587 781 q 578 859 587 838 q 552 895 568 880 q 513 916 536 909 q 465 923 491 923 q 429 921 446 923 q 393 913 412 918 q 353 900 374 908 q 304 880 332 892 l 266 972 q 368 1011 319 998 q 467 1025 416 1025 q 558 1009 516 1025 q 630 966 600 994 q 677 901 660 939 q 694 819 694 863 q 578 623 694 697 l 578 621 q 654 574 623 602 q 695 568 673 570 q 736 566 718 566 q 776 569 755 566 q 819 579 797 572 q 864 600 841 587 q 909 635 886 614 l 909 1011 l 1163 1011 l 1163 911 l 1021 911 l 1021 0 l 909 0 l 909 515 l 907 516 q 834 482 868 490 q 764 474 800 474 q 741 475 753 474 q 715 477 728 476 l 715 475 q 726 406 726 447 q 707 304 726 351 q 655 223 689 258 q 572 170 621 189 q 463 151 524 151 q 347 174 399 151 q 253 233 295 197 q 180 314 212 269 q 127 404 149 359 q 90 491 104 450 q 69 559 76 532 l 158 600 m 1524 911 l 1381 911 l 1381 0 l 1270 0 l 1270 911 l 1116 911 l 1116 1011 l 1524 1011 l 1524 911 m 1283 993 q 1270 1070 1280 1038 q 1245 1124 1260 1103 q 1211 1158 1230 1145 q 1170 1176 1192 1170 q 1124 1185 1148 1183 q 1074 1187 1099 1187 q 1016 1190 1045 1188 q 959 1199 987 1192 q 906 1220 932 1206 q 860 1260 881 1234 q 822 1326 838 1286 q 795 1423 805 1366 l 878 1443 q 911 1355 889 1385 q 963 1310 933 1324 q 1029 1293 993 1295 q 1103 1290 1065 1291 q 1167 1287 1136 1289 q 1225 1275 1198 1284 q 1277 1247 1253 1265 q 1320 1196 1301 1228 q 1352 1114 1339 1163 q 1370 993 1364 1064 l 1283 993 z "},"ओ":{"ha":1500,"x_min":69,"x_max":1524,"o":"m 158 600 q 182 530 168 568 q 214 454 195 492 q 256 380 233 416 q 310 316 279 344 q 376 272 340 288 q 458 255 413 255 q 532 268 502 255 q 582 302 563 281 q 609 353 601 324 q 618 414 618 382 q 567 524 618 484 q 421 563 517 563 q 398 562 410 563 q 375 560 387 562 l 375 663 q 385 663 380 663 q 390 663 389 663 q 474 674 437 663 q 536 707 511 686 q 574 754 562 727 q 587 811 587 781 q 578 859 587 838 q 552 895 568 880 q 513 916 536 909 q 465 923 491 923 q 429 921 446 923 q 393 913 412 918 q 353 900 374 908 q 304 880 332 892 l 266 972 q 368 1011 319 998 q 467 1025 416 1025 q 558 1009 516 1025 q 630 966 600 994 q 677 901 660 939 q 694 819 694 863 q 578 623 694 697 l 578 621 q 654 574 623 602 q 695 568 673 570 q 736 566 718 566 q 776 569 755 566 q 819 579 797 572 q 864 600 841 587 q 909 635 886 614 l 909 1011 l 1163 1011 l 1163 911 l 1021 911 l 1021 0 l 909 0 l 909 515 l 907 516 q 834 482 868 490 q 764 474 800 474 q 741 475 753 474 q 715 477 728 476 l 715 475 q 726 406 726 447 q 707 304 726 351 q 655 223 689 258 q 572 170 621 189 q 463 151 524 151 q 347 174 399 151 q 253 233 295 197 q 180 314 212 269 q 127 404 149 359 q 90 491 104 450 q 69 559 76 532 l 158 600 m 1524 911 l 1381 911 l 1381 0 l 1270 0 l 1270 911 l 1116 911 l 1116 1011 l 1524 1011 l 1524 911 m 1371 992 l 1273 992 l 1211 1108 q 1140 1225 1172 1182 q 1079 1292 1107 1269 q 1022 1321 1050 1314 q 964 1327 994 1327 l 832 1327 l 832 1437 l 956 1437 q 1027 1431 996 1437 q 1088 1408 1059 1424 q 1144 1361 1117 1391 q 1203 1285 1172 1332 q 1271 1174 1234 1239 q 1356 1021 1308 1109 l 1371 992 z "},"औ":{"ha":1500,"x_min":69,"x_max":1524,"o":"m 158 600 q 182 530 168 568 q 214 454 195 492 q 256 380 233 416 q 310 316 279 344 q 376 272 340 288 q 458 255 413 255 q 532 268 502 255 q 582 302 563 281 q 609 353 601 324 q 618 414 618 382 q 567 524 618 484 q 421 563 517 563 q 398 562 410 563 q 375 560 387 562 l 375 663 q 385 663 380 663 q 390 663 389 663 q 474 674 437 663 q 536 707 511 686 q 574 754 562 727 q 587 811 587 781 q 578 859 587 838 q 552 895 568 880 q 513 916 536 909 q 465 923 491 923 q 429 921 446 923 q 393 913 412 918 q 353 900 374 908 q 304 880 332 892 l 266 972 q 368 1011 319 998 q 467 1025 416 1025 q 558 1009 516 1025 q 630 966 600 994 q 677 901 660 939 q 694 819 694 863 q 578 623 694 697 l 578 621 q 654 574 623 602 q 695 568 673 570 q 736 566 718 566 q 776 569 755 566 q 819 579 797 572 q 864 600 841 587 q 909 635 886 614 l 909 1011 l 1163 1011 l 1163 911 l 1021 911 l 1021 0 l 909 0 l 909 515 l 907 516 q 834 482 868 490 q 764 474 800 474 q 741 475 753 474 q 715 477 728 476 l 715 475 q 726 406 726 447 q 707 304 726 351 q 655 223 689 258 q 572 170 621 189 q 463 151 524 151 q 347 174 399 151 q 253 233 295 197 q 180 314 212 269 q 127 404 149 359 q 90 491 104 450 q 69 559 76 532 l 158 600 m 1524 911 l 1381 911 l 1381 0 l 1270 0 l 1270 911 l 1116 911 l 1116 1011 l 1524 1011 l 1524 911 m 1376 992 l 1286 992 l 1261 1014 q 1168 1093 1208 1061 q 1097 1146 1128 1125 q 1041 1179 1065 1167 q 996 1196 1017 1190 q 955 1202 975 1201 q 913 1203 935 1203 l 783 1203 l 783 1299 l 904 1299 q 959 1296 934 1299 q 1007 1283 984 1292 q 1055 1259 1031 1274 q 1106 1222 1078 1244 q 1169 1169 1135 1200 q 1247 1099 1203 1139 l 1251 1101 q 1181 1213 1212 1166 q 1126 1293 1151 1260 q 1080 1347 1101 1326 q 1039 1379 1059 1368 q 999 1395 1019 1391 q 955 1399 979 1399 l 823 1399 l 823 1499 l 947 1499 q 1018 1491 987 1499 q 1077 1464 1048 1484 q 1133 1411 1105 1444 q 1193 1323 1160 1377 q 1266 1196 1226 1270 q 1360 1021 1307 1122 l 1376 992 z "},"ॠ":{"ha":1265,"x_min":-24,"x_max":1289,"o":"m 648 549 q 721 537 686 537 q 778 547 749 537 q 842 584 806 557 q 829 652 829 618 q 839 709 829 682 q 864 757 848 736 q 902 790 880 778 q 949 802 924 802 q 990 791 974 802 q 1018 765 1007 781 q 1033 729 1028 749 q 1038 690 1038 709 q 1035 657 1038 676 q 1025 618 1032 639 q 1005 578 1018 598 q 974 541 993 557 l 1088 379 q 984 297 1024 331 q 922 236 945 262 q 892 187 900 209 q 884 142 884 165 q 893 92 884 114 q 918 56 902 71 q 956 33 934 41 q 1002 24 977 24 q 1097 52 1049 24 q 1196 131 1145 80 l 1268 50 q 1201 -10 1233 14 q 1138 -50 1169 -35 q 1077 -72 1107 -65 q 1013 -78 1046 -78 q 922 -62 964 -78 q 847 -17 879 -46 q 795 53 814 12 q 777 144 777 94 q 790 222 777 187 q 828 287 804 256 q 883 344 852 317 q 950 398 915 371 l 887 488 q 839 466 861 475 q 798 452 817 457 q 761 445 779 447 q 727 443 744 443 q 688 445 709 443 q 648 452 668 447 l 648 -1 l 537 -1 l 537 392 l 536 393 l 174 103 l 105 189 l 532 506 l 532 509 q 467 562 499 536 q 402 608 435 588 q 337 640 370 628 q 271 652 304 652 q 234 650 258 652 q 180 647 209 649 q 122 641 151 644 q 73 635 93 638 l 73 750 q 119 754 92 752 q 174 759 146 757 q 227 762 202 760 q 264 763 252 763 q 329 750 296 763 q 396 715 362 736 q 464 665 429 693 q 534 608 498 637 l 537 609 l 537 911 l -24 911 l -24 1011 l 1289 1011 l 1289 911 l 648 911 l 648 549 z "},"ॡ":{"ha":1042,"x_min":-23,"x_max":1066,"o":"m 501 71 l 440 -16 q 389 19 421 -4 q 320 75 357 42 q 246 151 283 109 q 178 244 209 193 q 129 353 148 295 q 109 476 109 412 q 127 587 109 537 q 176 672 144 637 q 249 728 207 708 q 341 747 292 747 q 407 737 378 747 q 457 710 435 726 q 493 674 478 694 q 517 636 508 654 l 521 637 q 618 728 553 705 l 618 911 l -23 911 l -23 1011 l 1066 1011 l 1066 911 l 729 911 l 729 736 q 812 704 777 728 q 870 646 847 680 q 903 575 892 613 q 914 502 914 537 q 901 428 914 460 q 868 369 888 395 q 826 321 849 342 q 784 279 803 299 q 751 239 764 259 q 738 196 738 219 q 747 165 738 178 q 770 144 755 152 q 804 133 785 136 q 844 130 823 130 q 896 134 870 130 q 947 145 922 138 l 968 47 q 914 37 943 43 q 859 20 884 31 q 817 -8 833 9 q 800 -54 800 -26 q 808 -86 800 -73 q 831 -108 817 -100 q 863 -119 845 -116 q 898 -123 880 -123 q 951 -117 924 -123 q 1002 -100 979 -111 l 1034 -197 q 967 -218 1002 -211 q 902 -226 933 -226 q 825 -214 862 -226 q 760 -178 788 -201 q 714 -122 731 -155 q 697 -47 697 -90 q 706 8 697 -18 q 734 57 715 35 l 733 60 q 661 119 686 83 q 635 206 635 155 q 648 271 635 243 q 680 322 661 299 q 722 365 699 345 q 763 407 744 385 q 795 455 782 429 q 808 516 808 481 q 798 570 808 546 q 770 611 787 594 q 731 637 753 628 q 684 646 709 646 q 631 632 653 646 q 596 595 610 618 q 577 541 583 572 q 571 476 571 510 q 572 454 571 466 q 574 432 572 443 l 469 432 q 459 504 466 467 q 440 571 453 541 q 404 621 427 602 q 346 640 381 640 q 299 630 321 640 q 259 599 276 620 q 231 547 241 578 q 220 473 220 515 q 247 344 220 403 q 315 236 273 286 q 406 145 356 186 q 501 71 455 104 z "},"क":{"ha":1199,"x_min":-24,"x_max":1223,"o":"m 1223 911 l 650 911 l 650 644 l 653 643 q 739 719 688 690 q 852 748 791 748 q 943 728 901 748 q 1015 673 985 708 q 1063 591 1046 638 q 1080 488 1080 543 q 1059 373 1080 426 q 1003 278 1037 321 q 926 202 969 235 q 842 146 884 170 l 782 251 q 815 271 795 258 q 856 299 835 283 q 898 336 878 315 q 936 381 919 357 q 962 434 952 406 q 972 494 972 463 q 963 550 972 524 q 938 596 954 576 q 899 627 922 616 q 849 639 876 639 q 781 621 814 639 q 720 575 747 602 q 674 516 693 547 q 650 458 656 485 l 650 0 l 538 0 l 538 260 l 536 261 q 510 240 526 252 q 472 216 494 227 q 421 196 450 204 q 357 188 393 188 q 247 211 297 188 q 159 274 196 234 q 101 367 122 313 q 80 481 80 420 q 99 589 80 540 q 152 674 119 639 q 231 730 186 710 q 328 750 276 750 q 396 741 365 750 q 454 719 428 732 q 501 690 480 705 q 536 663 522 675 l 538 663 l 538 911 l -24 911 l -24 1011 l 1223 1011 l 1223 911 m 345 644 q 276 628 306 644 q 227 588 247 612 q 198 532 208 563 q 188 471 188 501 q 199 407 188 439 q 232 349 211 374 q 283 307 254 323 q 349 291 313 291 q 413 303 380 291 q 475 342 447 316 q 522 410 503 369 q 540 508 540 451 l 540 541 q 502 580 524 562 q 454 613 479 599 q 401 636 429 627 q 345 644 373 644 z "},"ख":{"ha":1175,"x_min":-24,"x_max":1198,"o":"m 861 15 q 784 -5 829 3 q 681 -13 739 -13 q 488 24 573 -13 q 331 134 404 62 q 194 311 259 205 q 59 553 128 417 l 149 605 q 198 535 175 556 q 248 515 220 515 q 289 528 271 515 q 317 561 306 541 q 334 608 328 582 q 340 661 340 635 q 333 725 340 692 q 315 791 326 758 q 288 854 303 823 q 256 911 273 885 l 256 911 l -24 911 l -24 1011 l 1198 1011 l 1198 911 l 1056 911 l 1056 0 l 945 0 l 945 330 l 942 330 q 859 276 905 294 q 769 258 814 258 q 667 281 713 258 q 586 342 620 304 q 533 429 552 380 q 514 530 514 478 q 531 626 514 580 q 579 708 549 672 q 653 764 610 743 q 746 785 695 785 q 802 779 775 785 q 852 760 828 772 q 899 731 877 747 q 942 695 922 714 l 945 696 l 945 911 l 374 911 q 429 783 409 846 q 448 656 448 720 q 437 570 448 613 q 404 493 427 528 q 346 435 381 458 q 262 408 311 412 l 262 405 q 360 254 309 313 q 464 160 411 195 q 570 112 517 125 q 674 98 623 98 q 778 110 732 98 q 861 137 824 122 l 861 15 m 945 569 q 915 605 933 585 q 874 642 897 625 q 824 672 852 660 q 765 684 797 684 q 706 670 732 684 q 661 635 680 657 q 632 585 642 614 q 622 525 622 556 q 633 463 622 492 q 663 411 644 433 q 709 375 682 389 q 769 362 736 362 q 825 372 794 362 q 883 403 856 381 q 927 460 909 425 q 945 549 945 496 l 945 569 z "},"ग":{"ha":866,"x_min":-24,"x_max":890,"o":"m 890 911 l 747 911 l 747 0 l 636 0 l 636 911 l 330 911 l 330 385 q 329 360 330 374 q 322 333 328 346 q 308 310 317 319 q 281 301 298 301 q 241 313 263 301 q 196 344 219 325 q 152 388 173 363 q 113 438 130 412 q 86 488 96 464 q 76 532 76 513 q 84 559 76 549 q 108 574 93 569 q 145 581 123 580 q 194 583 168 583 l 218 583 l 218 911 l -24 911 l -24 1011 l 890 1011 l 890 911 z "},"घ":{"ha":892,"x_min":-24,"x_max":916,"o":"m 916 911 l 773 911 l 773 0 l 662 0 l 662 262 l 659 262 q 547 178 604 203 q 429 154 489 154 q 328 172 374 154 q 247 222 281 190 q 193 299 212 254 q 174 398 174 344 q 192 489 174 447 q 258 568 211 531 l 257 570 q 186 602 217 581 q 133 651 155 623 q 101 715 112 680 q 90 786 90 749 q 97 851 90 817 q 122 911 105 885 l -24 911 l -24 1011 l 916 1011 l 916 911 m 237 911 q 208 855 217 887 q 198 795 198 823 q 208 739 198 765 q 238 693 218 713 q 288 662 258 673 q 355 650 317 650 q 411 655 384 650 q 455 665 437 661 l 473 561 q 444 555 463 559 q 405 544 426 551 q 361 523 383 536 q 321 492 339 511 q 293 449 304 474 q 281 391 281 424 q 292 335 281 360 q 321 293 302 311 q 367 267 340 276 q 425 258 393 258 q 508 275 470 258 q 576 318 546 292 q 627 373 606 343 q 662 426 649 402 l 662 911 l 237 911 z "},"ङ":{"ha":1172,"x_min":-24,"x_max":1196,"o":"m 922 574 q 944 636 922 612 q 1004 661 967 661 q 1036 654 1021 661 q 1063 635 1051 647 q 1081 607 1074 623 q 1087 572 1087 591 q 1064 510 1087 534 q 1005 486 1042 486 q 972 493 987 486 q 946 511 957 499 q 928 539 935 523 q 922 574 922 555 m 1196 911 l 815 911 l 815 661 l 475 661 q 406 647 425 661 q 387 601 387 633 q 391 567 387 585 q 406 534 395 549 q 435 509 416 519 q 483 499 454 499 l 675 499 q 775 483 734 499 q 841 438 817 467 q 877 371 866 410 q 888 288 888 332 q 868 173 888 228 q 808 76 848 118 q 710 9 769 34 q 574 -16 652 -16 q 411 15 489 -16 q 269 103 334 47 q 155 237 204 159 q 78 406 106 314 l 172 444 q 235 309 196 374 q 327 195 275 245 q 441 116 378 146 q 572 87 503 87 q 660 101 621 87 q 725 142 698 115 q 766 205 752 168 q 781 288 781 242 q 773 341 781 321 q 750 374 766 362 q 709 390 734 385 q 651 394 685 394 l 473 394 q 387 416 423 394 q 326 471 350 437 q 290 544 302 504 q 279 622 279 585 q 292 689 279 662 q 327 731 304 715 q 380 754 349 747 q 447 761 411 761 l 704 761 l 704 911 l -24 911 l -24 1011 l 1196 1011 l 1196 911 z "},"च":{"ha":939,"x_min":-24,"x_max":963,"o":"m 963 911 l 821 911 l 821 0 l 708 0 l 708 286 l 705 288 q 632 234 668 254 q 566 205 597 215 q 510 193 535 195 q 469 190 485 190 q 358 210 406 190 q 277 261 310 229 q 228 335 245 294 q 211 422 211 377 q 230 515 211 469 q 291 597 250 561 l 290 600 l 75 600 l 75 700 l 621 700 l 621 600 l 551 600 q 436 582 481 600 q 366 537 391 564 q 330 480 340 511 q 320 426 320 450 q 327 382 320 406 q 350 339 334 359 q 392 307 366 319 q 460 294 419 294 q 539 308 503 294 q 608 344 576 321 q 664 394 639 366 q 708 450 690 422 l 708 911 l -24 911 l -24 1011 l 963 1011 l 963 911 z "},"छ":{"ha":1099,"x_min":-24,"x_max":1122,"o":"m 551 583 q 561 656 551 624 q 587 714 570 689 q 628 755 604 739 q 679 781 651 772 l 679 911 l -24 911 l -24 1011 l 1122 1011 l 1122 911 l 790 911 l 790 785 q 865 752 830 776 q 925 690 900 728 q 965 602 951 652 q 980 488 980 551 q 963 357 980 420 q 915 238 946 294 q 840 135 884 182 q 742 55 796 88 q 624 2 687 21 q 490 -16 560 -16 q 360 4 415 -16 q 268 59 304 25 q 213 135 231 92 q 195 222 195 178 q 205 290 195 256 q 237 352 216 323 l 235 355 q 155 404 184 374 q 112 463 126 433 q 95 518 98 492 q 92 557 92 545 q 108 643 92 606 q 152 704 124 680 q 217 741 180 728 q 295 753 254 753 q 359 745 328 753 q 422 720 391 737 l 422 621 q 365 641 395 633 q 307 649 335 649 q 265 644 285 649 q 231 626 245 638 q 208 596 216 614 q 199 551 199 577 q 210 497 199 520 q 238 459 221 475 q 277 436 256 444 q 319 429 298 429 q 376 437 344 429 q 441 457 409 446 l 470 361 q 393 337 425 353 q 342 302 361 322 q 313 260 322 283 q 304 214 304 237 q 316 163 304 186 q 350 123 328 140 q 405 97 372 106 q 480 87 438 87 q 590 105 536 87 q 691 154 644 123 q 775 230 738 186 q 838 326 813 273 q 715 346 768 327 q 625 399 661 365 q 569 480 588 433 q 551 583 551 527 m 873 486 q 863 565 873 530 q 838 625 854 600 q 799 664 821 650 q 751 677 777 677 q 714 670 731 677 q 685 648 697 662 q 665 613 672 633 q 658 569 658 593 q 672 508 658 534 q 714 464 687 482 q 781 437 742 446 q 868 426 819 427 q 871 456 870 441 q 873 486 873 471 z "},"ज":{"ha":1040,"x_min":-24,"x_max":1063,"o":"m 1063 911 l 921 911 l 921 0 l 810 0 l 810 589 l 591 589 l 591 586 q 615 557 599 576 q 648 510 631 538 q 676 446 664 481 q 688 369 688 410 q 674 287 688 328 q 633 215 661 247 q 564 163 606 182 q 466 143 522 143 q 365 162 411 143 q 282 214 319 182 q 214 290 244 247 q 161 380 184 332 q 120 477 138 428 q 91 571 103 526 q 71 654 79 616 q 60 718 64 692 l 160 737 q 215 523 182 615 q 286 370 247 431 q 371 277 326 308 q 466 246 416 246 q 523 260 501 246 q 557 294 545 274 q 573 335 569 314 q 578 372 578 357 q 567 432 578 400 q 534 495 555 463 q 481 555 513 526 q 408 608 449 585 l 408 688 l 810 688 l 810 911 l -24 911 l -24 1011 l 1063 1011 l 1063 911 z "},"झ":{"ha":1063,"x_min":-24,"x_max":1087,"o":"m 455 54 l 455 51 q 521 -11 486 17 q 588 -61 555 -39 q 647 -98 620 -83 q 692 -120 675 -113 l 644 -205 q 559 -153 602 -182 q 477 -90 517 -123 q 402 -24 437 -58 q 340 41 368 10 q 241 62 281 46 q 175 99 201 77 q 138 146 150 121 q 127 195 127 171 q 133 227 127 212 q 150 254 138 243 q 177 273 161 266 q 216 279 194 279 q 265 271 239 279 q 316 247 291 263 q 364 206 341 231 q 405 148 387 181 q 533 205 490 162 q 576 318 576 248 q 569 362 576 345 q 548 389 562 379 q 512 401 534 398 q 463 404 491 404 l 276 404 q 189 426 226 404 q 129 480 153 447 q 93 552 104 513 q 81 629 81 592 q 94 695 81 669 q 130 738 107 722 q 183 761 152 754 q 250 768 214 768 l 486 768 l 486 911 l -24 911 l -24 1011 l 1087 1011 l 1087 911 l 945 911 l 945 0 l 833 0 l 833 407 l 831 408 q 793 387 811 395 q 757 374 775 378 q 720 367 739 369 q 680 366 701 366 q 684 318 684 343 q 670 228 684 270 q 629 152 656 186 q 558 93 601 117 q 455 54 515 68 m 597 668 l 278 668 q 208 654 227 668 q 189 608 189 640 q 193 575 189 593 q 208 544 197 558 q 238 519 219 529 q 286 509 256 509 l 475 509 q 572 496 532 509 q 636 457 612 482 q 685 459 661 457 q 732 468 709 460 q 781 489 756 475 q 833 527 806 503 l 833 911 l 597 911 l 597 668 z "},"ञ":{"ha":1098,"x_min":-24,"x_max":1122,"o":"m 345 542 l 288 636 q 386 688 332 669 q 493 707 439 707 q 585 690 543 707 q 657 642 627 673 q 707 571 688 612 q 728 482 725 530 q 810 496 777 482 q 868 530 844 509 l 868 911 l -24 911 l -24 1011 l 1122 1011 l 1122 911 l 979 911 l 979 0 l 868 0 l 868 410 l 865 411 q 834 395 849 401 q 801 386 819 389 q 762 380 783 382 q 713 378 741 378 q 678 314 701 342 q 624 264 655 285 q 555 232 593 243 q 473 220 517 220 q 343 247 404 220 q 231 316 283 273 q 136 415 179 359 q 60 527 93 470 l 143 585 q 215 480 177 528 q 293 397 252 433 q 377 342 334 362 q 467 323 421 323 q 532 335 504 323 q 581 368 561 347 q 611 417 600 389 q 621 477 621 445 q 613 527 621 504 q 590 568 605 551 q 552 595 574 585 q 503 604 530 604 q 456 598 479 604 q 414 583 434 592 q 376 563 393 574 q 345 542 358 552 z "},"ट":{"ha":821,"x_min":-24,"x_max":844,"o":"m 717 112 q 600 63 662 79 q 477 47 538 47 q 325 75 393 47 q 208 153 256 103 q 133 270 159 203 q 107 416 107 337 q 131 546 107 490 q 195 638 154 602 q 291 694 235 675 q 410 712 346 712 l 542 712 l 542 911 l -24 911 l -24 1011 l 844 1011 l 844 911 l 653 911 l 653 613 l 434 613 q 345 600 385 613 q 276 559 304 586 q 231 494 247 533 q 215 404 215 455 q 234 301 215 347 q 286 222 252 255 q 366 170 319 189 q 468 152 412 152 q 535 159 501 152 q 601 177 569 165 q 662 203 633 189 q 717 235 692 218 l 717 112 z "},"ठ":{"ha":943,"x_min":-24,"x_max":967,"o":"m 455 87 q 559 107 511 87 q 643 163 608 127 q 697 249 677 199 q 717 356 717 298 q 704 442 717 405 q 670 506 690 479 q 624 551 649 533 q 576 581 600 570 q 535 598 553 593 q 510 605 517 604 q 466 589 492 597 q 411 572 440 581 q 342 543 377 560 q 280 496 308 525 q 235 426 252 468 q 218 324 218 384 q 235 228 218 272 q 284 153 253 184 q 359 104 316 121 q 455 87 403 87 m 967 911 l 637 911 l 637 802 q 626 732 637 768 q 594 671 615 696 q 690 620 648 652 q 762 544 732 587 q 807 449 791 500 q 823 341 823 397 q 796 201 823 267 q 721 88 769 136 q 605 12 672 39 q 458 -16 538 -16 q 308 14 373 -16 q 199 94 243 44 q 132 209 155 144 q 109 342 109 273 q 130 469 109 415 q 189 563 151 524 q 277 629 226 603 q 389 673 328 656 q 441 689 416 681 q 485 712 467 697 q 515 751 504 727 q 526 814 526 775 l 526 911 l -24 911 l -24 1011 l 967 1011 l 967 911 z "},"ड":{"ha":994,"x_min":-24,"x_max":1017,"o":"m 1017 911 l 815 911 l 815 661 l 475 661 q 406 647 425 661 q 387 601 387 633 q 391 567 387 585 q 406 534 395 549 q 435 509 416 519 q 483 499 454 499 l 675 499 q 775 483 734 499 q 841 438 817 467 q 877 371 866 410 q 888 288 888 332 q 868 173 888 228 q 808 76 848 118 q 710 9 769 34 q 574 -16 652 -16 q 411 15 489 -16 q 269 103 334 47 q 155 237 204 159 q 78 406 106 314 l 172 444 q 235 309 196 374 q 327 195 275 245 q 441 116 378 146 q 572 87 503 87 q 660 101 621 87 q 725 142 698 115 q 766 205 752 168 q 781 288 781 242 q 773 341 781 321 q 750 374 766 362 q 709 390 734 385 q 651 394 685 394 l 473 394 q 387 416 423 394 q 326 471 350 437 q 290 544 302 504 q 279 622 279 585 q 292 689 279 662 q 327 731 304 715 q 380 754 349 747 q 447 761 411 761 l 704 761 l 704 911 l -24 911 l -24 1011 l 1017 1011 l 1017 911 z "},"ढ":{"ha":890,"x_min":-24,"x_max":914,"o":"m 914 911 l 671 911 l 671 613 l 445 613 q 343 594 387 613 q 272 543 300 576 q 229 466 243 511 q 215 370 215 421 q 264 197 215 268 q 410 94 313 126 l 412 96 q 386 162 394 129 q 378 227 378 195 q 392 307 378 269 q 431 373 406 345 q 494 418 457 401 q 578 435 531 435 q 662 417 625 435 q 727 371 700 400 q 768 304 753 342 q 783 224 783 266 q 767 139 783 182 q 719 62 751 96 q 635 5 686 27 q 513 -16 584 -16 q 422 -7 469 -16 q 330 23 376 3 q 244 75 285 43 q 174 152 204 107 q 125 254 143 196 q 107 383 107 311 q 131 526 107 465 q 196 629 154 588 q 295 691 237 671 q 420 712 352 712 l 559 712 l 559 911 l -24 911 l -24 1011 l 914 1011 l 914 911 m 511 80 q 586 94 555 80 q 637 128 617 107 q 666 175 656 149 q 675 226 675 201 q 667 270 675 250 q 646 303 659 290 q 614 323 632 316 q 576 330 596 330 q 504 298 532 330 q 475 205 475 265 q 511 80 475 144 z "},"ण":{"ha":1029,"x_min":-24,"x_max":1053,"o":"m 1053 911 l 911 911 l 911 0 l 800 0 l 800 911 l 631 911 l 631 492 q 612 370 631 421 q 559 286 593 319 q 481 237 526 253 q 385 221 436 221 q 280 239 327 221 q 201 294 234 258 q 151 383 169 330 q 134 505 134 436 l 134 911 l -24 911 l -24 1011 l 1053 1011 l 1053 911 m 246 911 l 246 484 q 253 424 246 453 q 276 373 260 395 q 318 337 292 351 q 382 323 345 323 q 447 337 421 323 q 490 373 473 351 q 513 424 506 395 q 520 484 520 453 l 520 911 l 246 911 z "},"त":{"ha":850,"x_min":-24,"x_max":873,"o":"m 873 911 l 731 911 l 731 0 l 621 0 l 621 595 l 400 595 q 318 590 355 595 q 256 567 281 584 q 216 518 230 549 q 202 437 202 488 q 223 317 202 372 q 278 217 245 262 q 352 132 311 171 q 429 61 392 94 l 361 -16 q 333 4 355 -13 q 280 49 310 20 q 216 118 250 77 q 154 210 182 159 q 107 323 126 261 q 89 456 89 385 q 109 573 89 526 q 165 647 129 619 q 254 685 202 674 q 371 696 307 696 l 621 696 l 621 911 l -24 911 l -24 1011 l 873 1011 l 873 911 z "},"थ":{"ha":885,"x_min":68,"x_max":909,"o":"m 435 804 q 422 711 435 755 q 386 628 410 666 q 325 561 361 591 q 240 513 289 532 q 269 434 250 467 q 312 381 287 402 q 368 351 337 360 q 432 341 398 341 q 558 372 500 341 q 655 458 616 404 l 655 1011 l 909 1011 l 909 911 l 766 911 l 766 0 l 655 0 l 655 317 l 652 318 q 610 289 635 303 q 556 263 586 274 q 493 244 527 252 q 422 237 459 237 q 293 267 347 237 q 202 345 239 296 q 145 454 166 393 q 116 580 125 515 q 216 615 176 592 q 281 668 256 638 q 316 733 305 699 q 326 804 326 768 q 303 894 326 864 q 244 924 279 924 q 194 903 213 924 q 175 850 175 882 q 176 835 175 844 q 183 815 178 826 q 199 790 189 804 q 229 760 210 776 l 168 686 q 117 724 137 703 q 87 766 98 745 q 72 809 76 788 q 68 847 68 829 q 79 911 68 880 q 113 968 90 943 q 169 1009 135 994 q 248 1025 203 1025 q 328 1008 294 1025 q 387 963 363 992 q 422 893 410 934 q 435 804 435 853 z "},"द":{"ha":865,"x_min":-24,"x_max":888,"o":"m 888 911 l 659 911 l 659 614 l 430 614 q 269 561 323 614 q 215 410 215 509 q 233 312 215 355 q 282 240 251 269 q 357 197 314 212 q 452 182 401 182 q 538 198 505 182 q 534 228 535 215 q 532 254 532 241 q 539 312 532 282 q 561 367 547 342 q 598 408 576 392 q 653 423 621 423 q 690 416 673 423 q 721 396 708 410 q 742 361 734 382 q 750 312 750 340 q 743 261 750 284 q 723 217 735 237 q 696 180 711 197 q 667 149 682 163 q 699 90 682 116 q 733 44 715 64 q 770 7 751 24 q 806 -23 788 -9 l 723 -111 q 662 -47 687 -79 q 619 12 636 -16 q 591 62 602 40 q 573 98 580 85 q 458 80 526 80 q 304 109 370 80 q 194 186 238 138 q 129 297 151 235 q 107 427 107 359 q 130 550 107 496 q 192 639 152 603 q 287 694 232 675 q 408 713 342 713 l 547 713 l 547 911 l -24 911 l -24 1011 l 888 1011 l 888 911 z "},"ध":{"ha":880,"x_min":79,"x_max":904,"o":"m 331 782 q 345 809 338 793 q 351 847 351 826 q 345 880 351 866 q 327 903 338 895 q 303 917 317 912 q 276 921 290 921 q 244 915 260 921 q 215 894 228 908 q 195 858 203 880 q 186 805 186 836 q 196 742 186 772 q 227 691 206 713 q 279 656 248 669 q 355 643 311 643 q 411 648 385 643 q 456 658 437 653 l 474 553 q 445 548 463 552 q 405 537 427 545 q 362 517 384 529 q 322 487 340 505 q 293 444 304 469 q 282 387 282 420 q 292 333 282 357 q 321 292 302 309 q 365 267 339 275 q 421 258 391 258 q 501 274 465 258 q 567 314 538 290 q 617 366 596 338 q 650 417 638 394 l 650 1011 l 904 1011 l 904 911 l 762 911 l 762 0 l 650 0 l 650 254 l 648 254 q 595 208 623 227 q 538 177 567 189 q 480 159 509 165 q 424 154 451 154 q 325 172 370 154 q 245 221 279 189 q 193 297 212 253 q 174 393 174 340 q 193 483 174 442 q 258 560 212 524 l 258 563 q 178 600 212 575 q 122 658 144 625 q 90 729 100 690 q 79 806 79 767 q 94 893 79 853 q 137 962 109 933 q 201 1008 164 991 q 283 1025 239 1025 q 364 1008 330 1025 q 419 967 397 992 q 450 912 440 942 q 460 854 460 882 q 456 817 460 836 q 446 783 452 799 q 433 753 440 766 q 420 730 426 739 l 331 782 z "},"न":{"ha":844,"x_min":-24,"x_max":867,"o":"m 867 911 l 725 911 l 725 0 l 613 0 l 613 523 l 296 523 q 295 446 296 478 q 289 394 294 414 q 275 363 284 373 q 248 354 265 354 q 181 377 213 354 q 126 433 150 400 q 87 500 102 465 q 73 560 73 536 q 83 594 73 582 q 108 612 92 606 q 143 620 123 618 q 184 621 163 621 l 613 621 l 613 911 l -24 911 l -24 1011 l 867 1011 l 867 911 z "},"ऩ":{"ha":844,"x_min":-24,"x_max":867,"o":"m 867 911 l 725 911 l 725 0 l 613 0 l 613 523 l 296 523 q 295 446 296 478 q 289 394 294 414 q 275 363 284 373 q 248 354 265 354 q 181 377 213 354 q 126 433 150 400 q 87 500 102 465 q 73 560 73 536 q 83 594 73 582 q 108 612 92 606 q 143 620 123 618 q 184 621 163 621 l 613 621 l 613 911 l -24 911 l -24 1011 l 867 1011 l 867 911 m 300 194 q 322 257 300 233 q 382 281 345 281 q 414 274 399 281 q 441 255 429 267 q 459 228 452 243 q 465 193 465 212 q 443 130 465 154 q 383 106 420 106 q 350 113 366 106 q 324 131 335 119 q 306 159 313 143 q 300 194 300 175 z "},"प":{"ha":836,"x_min":-24,"x_max":860,"o":"m 860 911 l 718 911 l 718 0 l 606 0 l 606 324 l 603 325 q 501 267 557 284 q 390 250 445 250 q 283 267 332 250 q 201 318 235 283 q 147 407 166 353 q 127 533 127 460 l 127 911 l -24 911 l -24 1011 l 860 1011 l 860 911 m 606 911 l 237 911 l 237 539 q 244 463 237 496 q 269 405 252 429 q 315 369 286 381 q 386 356 343 356 q 512 389 456 356 q 606 475 568 422 l 606 911 z "},"फ":{"ha":1242,"x_min":-24,"x_max":1266,"o":"m 1266 911 l 681 911 l 681 651 l 684 650 q 725 693 702 673 q 774 726 747 712 q 830 747 801 740 q 890 755 860 755 q 983 735 941 755 q 1057 680 1026 715 q 1106 597 1088 645 q 1124 494 1124 550 q 1102 380 1124 432 q 1047 285 1081 328 q 972 209 1014 242 q 890 153 931 176 l 830 258 q 862 277 843 265 q 902 306 881 290 q 943 343 922 322 q 979 388 963 363 q 1006 440 996 412 q 1016 500 1016 468 q 1006 557 1016 530 q 980 603 997 583 q 940 634 964 623 q 889 646 917 646 q 819 627 853 646 q 755 582 784 609 q 707 523 727 554 q 681 465 687 492 l 681 0 l 570 0 l 570 322 l 568 323 q 477 267 526 284 q 375 250 428 250 q 275 267 320 250 q 197 318 229 283 q 146 407 164 353 q 127 533 127 460 l 127 911 l -24 911 l -24 1011 l 1266 1011 l 1266 911 m 570 911 l 237 911 l 237 539 q 244 463 237 496 q 266 405 250 429 q 308 369 282 381 q 372 356 334 356 q 433 365 405 356 q 486 390 461 374 q 531 429 510 406 q 570 477 552 451 l 570 911 z "},"ब":{"ha":865,"x_min":-24,"x_max":889,"o":"m 889 911 l 747 911 l 747 0 l 635 0 l 635 240 l 633 241 q 598 214 618 228 q 552 189 578 201 q 493 170 526 178 q 421 163 460 163 q 286 189 347 163 q 181 259 225 215 q 113 359 138 302 q 89 477 89 416 q 113 593 89 540 q 180 686 138 647 q 279 747 222 725 q 399 770 335 770 q 446 767 418 770 q 504 753 473 764 q 568 725 534 743 q 633 675 601 706 l 635 675 l 635 911 l -24 911 l -24 1011 l 889 1011 l 889 911 m 197 467 q 210 393 197 429 q 249 329 223 357 q 313 283 275 300 q 401 266 351 266 q 488 281 447 266 l 264 617 q 215 552 233 591 q 197 467 197 513 m 638 549 q 588 597 614 575 q 534 634 563 618 q 474 659 506 650 q 407 667 443 667 q 377 665 391 667 q 348 660 363 663 l 568 329 q 620 395 602 359 q 638 466 638 431 l 638 549 z "},"भ":{"ha":996,"x_min":68,"x_max":1019,"o":"m 1019 911 l 877 911 l 877 0 l 766 0 l 766 380 l 410 380 l 410 283 q 408 262 410 273 q 401 240 406 250 q 388 224 396 231 q 366 218 379 218 q 329 228 351 218 q 285 254 308 237 q 240 292 262 271 q 201 336 218 313 q 173 382 184 359 q 162 425 162 406 q 182 467 162 454 q 236 479 203 479 l 302 479 l 302 852 q 285 906 302 887 q 242 924 268 924 q 194 903 214 924 q 175 850 175 882 q 176 835 175 844 q 183 815 178 826 q 199 790 189 804 q 229 760 210 776 l 168 686 q 117 724 137 703 q 87 766 98 745 q 72 809 76 788 q 68 847 68 829 q 79 911 68 880 q 113 968 90 943 q 169 1009 135 994 q 247 1025 202 1025 q 317 1012 286 1025 q 368 975 347 999 q 399 917 389 951 q 410 842 410 884 l 410 479 l 766 479 l 766 1011 l 1019 1011 l 1019 911 z "},"म":{"ha":935,"x_min":-24,"x_max":959,"o":"m 959 911 l 817 911 l 817 0 l 705 0 l 705 380 l 332 380 l 332 300 q 331 262 332 279 q 323 235 329 246 q 307 219 317 224 q 279 213 296 213 q 239 223 261 213 q 195 252 218 234 q 152 293 173 270 q 114 340 131 315 q 87 389 98 365 q 77 434 77 414 q 82 457 77 448 q 97 471 87 467 q 119 478 106 476 q 148 479 132 479 l 221 479 l 221 911 l -24 911 l -24 1011 l 959 1011 l 959 911 m 332 911 l 332 479 l 705 479 l 705 911 l 332 911 z "},"य":{"ha":864,"x_min":-24,"x_max":888,"o":"m 888 911 l 745 911 l 745 0 l 634 0 l 634 317 l 631 318 q 588 289 613 303 q 531 263 562 274 q 464 244 500 252 q 389 237 428 237 q 254 266 310 237 q 160 342 198 294 q 101 451 123 390 q 70 579 79 513 q 146 600 115 585 q 198 636 178 615 q 227 681 218 656 q 236 730 236 705 q 233 766 236 746 q 222 810 230 787 q 203 859 215 833 q 172 911 191 885 l -24 911 l -24 1011 l 888 1011 l 888 911 m 292 911 q 331 821 317 870 q 345 724 345 772 q 335 657 345 690 q 307 596 326 625 q 260 546 288 568 q 195 511 232 524 q 224 434 205 466 q 269 381 243 401 q 327 351 295 360 q 395 341 359 341 q 465 349 431 341 q 530 373 499 357 q 587 410 561 388 q 634 458 614 431 l 634 911 l 292 911 z "},"र":{"ha":679,"x_min":-24,"x_max":703,"o":"m 703 911 l 447 911 q 503 790 481 852 q 524 664 524 728 q 510 571 524 616 q 467 492 495 527 q 397 435 439 457 q 301 410 355 413 l 300 407 q 437 228 361 312 q 612 67 513 143 l 540 -16 q 430 76 482 26 q 332 179 378 126 q 247 287 286 233 q 174 394 207 342 q 115 493 141 446 q 71 581 90 541 l 164 631 q 219 548 189 578 q 291 517 250 517 q 343 532 320 517 q 382 571 366 547 q 406 622 397 594 q 414 677 414 650 q 406 740 414 709 q 385 801 397 771 q 356 858 372 830 q 325 911 340 886 l -24 911 l -24 1011 l 703 1011 l 703 911 z "},"ऱ":{"ha":679,"x_min":-24,"x_max":703,"o":"m 703 911 l 447 911 q 503 790 481 852 q 524 664 524 728 q 510 571 524 616 q 467 492 495 527 q 397 435 439 457 q 301 410 355 413 l 300 407 q 437 228 361 312 q 612 67 513 143 l 540 -16 q 430 76 482 26 q 332 179 378 126 q 247 287 286 233 q 174 394 207 342 q 115 493 141 446 q 71 581 90 541 l 164 631 q 219 548 189 578 q 291 517 250 517 q 343 532 320 517 q 382 571 366 547 q 406 622 397 594 q 414 677 414 650 q 406 740 414 709 q 385 801 397 771 q 356 858 372 830 q 325 911 340 886 l -24 911 l -24 1011 l 703 1011 l 703 911 m 82 106 q 105 169 82 144 q 164 193 127 193 q 196 186 181 193 q 223 167 212 179 q 241 139 235 155 q 248 104 248 123 q 225 42 248 66 q 165 18 202 18 q 133 25 148 18 q 106 43 117 31 q 89 71 95 55 q 82 106 82 87 z "},"ल":{"ha":992,"x_min":-24,"x_max":1016,"o":"m 1016 911 l 873 911 l 873 -1 l 762 -1 l 762 635 q 694 648 726 648 q 639 636 663 648 q 599 604 615 624 q 575 558 583 585 q 567 503 567 532 q 568 479 567 491 q 570 456 569 467 l 467 456 q 454 531 461 495 q 434 594 447 567 q 399 637 420 621 q 345 653 378 653 q 291 640 313 653 q 253 604 268 627 q 231 550 238 581 q 224 484 224 519 q 250 345 224 406 q 322 235 277 283 q 426 148 367 186 q 551 77 486 109 l 496 -16 q 434 16 472 -5 q 352 70 395 38 q 266 144 309 102 q 188 240 222 187 q 131 357 153 293 q 109 494 109 420 q 125 601 109 551 q 172 686 142 650 q 245 743 202 722 q 340 764 288 764 q 408 752 379 764 q 457 725 436 741 q 491 689 477 708 q 515 652 505 669 l 518 653 q 549 701 531 682 q 588 733 567 721 q 633 751 610 745 q 681 757 657 757 q 723 753 702 757 q 762 743 743 749 l 762 911 l -24 911 l -24 1011 l 1016 1011 l 1016 911 z "},"ळ":{"ha":1223,"x_min":-24,"x_max":1246,"o":"m 350 153 q 240 176 290 153 q 155 238 191 198 q 100 331 119 277 q 80 448 80 385 q 101 570 80 515 q 159 663 122 625 q 246 723 196 702 q 353 743 296 743 q 493 708 427 743 q 625 606 559 673 q 696 688 655 653 q 796 734 736 723 l 796 911 l -24 911 l -24 1011 l 1246 1011 l 1246 911 l 907 911 l 907 730 q 989 694 952 720 q 1051 634 1025 669 q 1090 555 1076 599 q 1104 463 1104 511 q 1080 335 1104 393 q 1016 236 1056 277 q 924 171 975 194 q 817 149 872 149 q 684 182 746 149 q 562 273 623 215 q 523 225 545 248 q 476 188 502 203 q 419 162 450 172 q 350 153 388 153 m 364 644 q 291 628 323 644 q 236 586 259 612 q 201 523 213 559 q 189 446 189 486 q 199 376 189 410 q 229 316 209 342 q 279 273 249 290 q 347 257 309 257 q 428 281 395 257 q 488 344 462 305 q 536 431 514 382 q 581 528 557 479 q 474 616 530 588 q 364 644 419 644 m 801 252 q 876 265 840 252 q 938 303 911 277 q 980 367 964 328 q 996 457 996 405 q 988 523 996 490 q 962 581 979 555 q 917 623 944 607 q 852 639 889 639 q 792 626 819 639 q 744 592 766 614 q 704 542 722 571 q 670 480 686 513 q 638 413 654 448 q 604 344 622 378 q 643 311 621 327 q 689 281 664 294 q 742 260 713 269 q 801 252 770 252 z "},"ऴ":{"ha":1223,"x_min":-24,"x_max":1246,"o":"m 350 153 q 240 176 290 153 q 155 238 191 198 q 100 331 119 277 q 80 448 80 385 q 101 570 80 515 q 159 663 122 625 q 246 723 196 702 q 353 743 296 743 q 493 708 427 743 q 625 606 559 673 q 696 688 655 653 q 796 734 736 723 l 796 911 l -24 911 l -24 1011 l 1246 1011 l 1246 911 l 907 911 l 907 730 q 989 694 952 720 q 1051 634 1025 669 q 1090 555 1076 599 q 1104 463 1104 511 q 1080 335 1104 393 q 1016 236 1056 277 q 924 171 975 194 q 817 149 872 149 q 684 182 746 149 q 562 273 623 215 q 523 225 545 248 q 476 188 502 203 q 419 162 450 172 q 350 153 388 153 m 364 644 q 291 628 323 644 q 236 586 259 612 q 201 523 213 559 q 189 446 189 486 q 199 376 189 410 q 229 316 209 342 q 279 273 249 290 q 347 257 309 257 q 428 281 395 257 q 488 344 462 305 q 536 431 514 382 q 581 528 557 479 q 474 616 530 588 q 364 644 419 644 m 801 252 q 876 265 840 252 q 938 303 911 277 q 980 367 964 328 q 996 457 996 405 q 988 523 996 490 q 962 581 979 555 q 917 623 944 607 q 852 639 889 639 q 792 626 819 639 q 744 592 766 614 q 704 542 722 571 q 670 480 686 513 q 638 413 654 448 q 604 344 622 378 q 643 311 621 327 q 689 281 664 294 q 742 260 713 269 q 801 252 770 252 m 511 -37 q 534 26 511 2 q 593 50 557 50 q 626 43 610 50 q 652 25 641 37 q 670 -3 664 13 q 677 -38 677 -19 q 654 -100 677 -77 q 595 -124 631 -124 q 562 -118 577 -124 q 535 -99 547 -111 q 518 -72 524 -87 q 511 -37 511 -56 z "},"व":{"ha":817,"x_min":-24,"x_max":840,"o":"m 840 911 l 698 911 l 698 0 l 587 0 l 587 242 l 584 243 q 552 216 570 230 q 510 191 534 202 q 457 172 486 180 q 391 165 427 165 q 268 191 323 165 q 173 259 213 216 q 111 358 133 302 q 89 475 89 414 q 111 589 89 536 q 172 680 133 642 q 262 741 210 719 q 372 763 313 763 q 413 760 389 763 q 467 748 438 758 q 526 721 495 739 q 584 672 556 703 l 587 673 l 587 911 l -24 911 l -24 1011 l 840 1011 l 840 911 m 589 546 q 496 629 547 597 q 382 661 446 661 q 297 642 332 661 q 240 594 262 623 q 208 530 218 565 q 197 462 197 494 q 209 392 197 427 q 243 330 220 357 q 300 285 266 302 q 379 268 334 268 q 465 286 426 268 q 531 332 503 304 q 574 394 559 359 q 589 461 589 429 l 589 546 z "},"श":{"ha":1086,"x_min":-24,"x_max":1110,"o":"m 440 543 q 417 540 428 541 q 395 539 406 539 q 295 559 340 539 q 219 612 251 578 q 171 689 188 645 q 154 781 154 732 q 163 848 154 815 q 193 909 173 880 l 193 911 l -24 911 l -24 1011 l 1110 1011 l 1110 911 l 968 911 l 968 0 l 857 0 l 857 911 l 601 911 l 600 909 q 633 866 618 891 q 658 812 648 842 q 675 751 669 783 q 681 687 681 720 q 664 585 681 634 q 617 491 648 535 q 545 409 587 447 q 451 342 503 372 l 451 340 q 524 276 485 313 q 600 199 562 239 q 672 120 638 159 q 730 47 706 80 l 654 -17 q 601 48 633 9 q 530 128 569 86 q 445 211 490 170 q 349 287 399 253 q 298 270 325 275 q 245 264 271 264 q 186 272 214 264 q 136 294 158 279 q 101 329 114 308 q 88 376 88 349 q 120 443 88 419 q 202 466 151 466 q 278 453 239 466 q 353 413 316 439 q 395 428 372 417 q 444 455 419 438 q 492 494 469 471 q 534 546 515 517 q 563 610 552 575 q 574 686 574 645 q 563 766 574 726 q 528 836 551 805 q 470 886 505 867 q 390 905 435 905 q 330 893 354 905 q 292 865 307 882 q 271 826 277 847 q 264 784 264 804 q 274 732 264 758 q 302 687 283 707 q 349 654 321 667 q 412 642 376 642 q 440 644 424 642 l 440 543 z "},"ष":{"ha":842,"x_min":-24,"x_max":866,"o":"m 866 911 l 724 911 l 724 0 l 612 0 l 612 327 l 610 328 q 505 268 562 287 q 390 250 448 250 q 283 267 332 250 q 201 318 235 283 q 147 407 166 353 q 127 533 127 460 l 127 911 l -24 911 l -24 1011 l 866 1011 l 866 911 m 543 411 l 240 837 l 237 836 l 237 539 q 244 463 237 496 q 269 405 252 429 q 315 369 286 381 q 386 356 343 356 q 472 370 433 356 q 544 408 511 383 l 543 411 m 612 911 l 307 911 l 307 909 l 609 471 l 612 476 l 612 911 z "},"स":{"ha":1000,"x_min":-24,"x_max":1024,"o":"m 1024 1011 l 1024 911 l 882 911 l 882 0 l 769 0 l 769 456 l 376 456 q 290 427 340 432 l 289 424 q 433 232 355 321 q 612 67 512 143 l 540 -16 q 430 76 482 26 q 333 179 378 125 q 247 287 287 232 q 174 394 207 341 q 114 496 140 447 q 68 587 87 545 l 161 637 q 186 588 174 608 q 212 556 199 568 q 239 539 224 544 q 269 534 253 534 q 338 570 316 534 q 360 667 360 607 q 353 736 360 702 q 336 802 347 770 q 313 861 326 833 q 290 911 301 889 l -24 911 l -24 1011 l 1024 1011 m 769 911 l 408 911 q 452 787 436 850 q 469 663 469 725 q 464 607 469 635 q 450 555 460 580 l 451 554 l 769 554 l 769 911 z "},"ह":{"ha":836,"x_min":-24,"x_max":860,"o":"m 497 191 q 542 208 519 198 q 581 233 564 218 q 609 267 598 248 q 620 313 620 287 q 573 401 620 370 q 440 433 526 433 q 369 426 406 433 q 303 400 333 418 q 254 349 273 381 q 235 267 235 317 q 255 174 235 217 q 306 95 275 131 q 377 30 338 59 q 455 -22 416 1 q 529 -59 494 -44 q 587 -83 564 -75 l 542 -177 q 445 -133 494 -157 q 350 -80 396 -109 q 263 -16 304 -51 q 192 60 222 18 q 145 153 162 102 q 127 262 127 203 q 143 362 127 319 q 185 438 158 406 q 130 524 148 481 q 113 618 113 568 q 120 673 113 648 q 145 719 127 699 q 197 749 164 738 q 283 761 231 761 l 591 761 l 591 911 l -24 911 l -24 1011 l 860 1011 l 860 911 l 702 911 l 702 662 l 312 662 q 268 657 286 662 q 239 644 250 653 q 223 622 228 635 q 219 591 219 609 q 227 545 219 568 q 258 495 235 523 q 344 525 297 515 q 443 535 391 535 q 554 522 503 535 q 645 480 606 508 q 705 411 683 453 q 727 311 727 368 q 708 218 727 256 q 662 155 690 180 q 600 113 633 129 q 538 87 567 97 l 497 191 z "},"क़":{"ha":1199,"x_min":-24,"x_max":1223,"o":"m 1223 911 l 650 911 l 650 644 l 653 643 q 739 719 688 690 q 852 748 791 748 q 943 728 901 748 q 1015 673 985 708 q 1063 591 1046 638 q 1080 488 1080 543 q 1059 373 1080 426 q 1003 278 1037 321 q 926 202 969 235 q 842 146 884 170 l 782 251 q 815 271 795 258 q 856 299 835 283 q 898 336 878 315 q 936 381 919 357 q 962 434 952 406 q 972 494 972 463 q 963 550 972 524 q 938 596 954 576 q 899 627 922 616 q 849 639 876 639 q 781 621 814 639 q 720 575 747 602 q 674 516 693 547 q 650 458 656 485 l 650 0 l 538 0 l 538 260 l 536 261 q 510 240 526 252 q 472 216 494 227 q 421 196 450 204 q 357 188 393 188 q 247 211 297 188 q 159 274 196 234 q 101 367 122 313 q 80 481 80 420 q 99 589 80 540 q 152 674 119 639 q 231 730 186 710 q 328 750 276 750 q 396 741 365 750 q 454 719 428 732 q 501 690 480 705 q 536 663 522 675 l 538 663 l 538 911 l -24 911 l -24 1011 l 1223 1011 l 1223 911 m 345 644 q 276 628 306 644 q 227 588 247 612 q 198 532 208 563 q 188 471 188 501 q 199 407 188 439 q 232 349 211 374 q 283 307 254 323 q 349 291 313 291 q 413 303 380 291 q 475 342 447 316 q 522 410 503 369 q 540 508 540 451 l 540 541 q 502 580 524 562 q 454 613 479 599 q 401 636 429 627 q 345 644 373 644 m 237 11 q 260 74 237 50 q 319 98 283 98 q 352 91 336 98 q 378 72 367 84 q 396 44 390 60 q 403 9 403 28 q 380 -53 403 -29 q 321 -77 357 -77 q 288 -70 303 -77 q 261 -52 273 -64 q 244 -24 250 -40 q 237 11 237 -8 z "},"ख़":{"ha":1175,"x_min":-24,"x_max":1198,"o":"m 861 15 q 784 -5 829 3 q 681 -13 739 -13 q 488 24 573 -13 q 331 134 404 62 q 194 311 259 205 q 59 553 128 417 l 149 605 q 198 535 175 556 q 248 515 220 515 q 289 528 271 515 q 317 561 306 541 q 334 608 328 582 q 340 661 340 635 q 333 725 340 692 q 315 791 326 758 q 288 854 303 823 q 256 911 273 885 l 256 911 l -24 911 l -24 1011 l 1198 1011 l 1198 911 l 1056 911 l 1056 0 l 945 0 l 945 330 l 942 330 q 859 276 905 294 q 769 258 814 258 q 667 281 713 258 q 586 342 620 304 q 533 429 552 380 q 514 530 514 478 q 531 626 514 580 q 579 708 549 672 q 653 764 610 743 q 746 785 695 785 q 802 779 775 785 q 852 760 828 772 q 899 731 877 747 q 942 695 922 714 l 945 696 l 945 911 l 374 911 q 429 783 409 846 q 448 656 448 720 q 437 570 448 613 q 404 493 427 528 q 346 435 381 458 q 262 408 311 412 l 262 405 q 360 254 309 313 q 464 160 411 195 q 570 112 517 125 q 674 98 623 98 q 778 110 732 98 q 861 137 824 122 l 861 15 m 945 569 q 915 605 933 585 q 874 642 897 625 q 824 672 852 660 q 765 684 797 684 q 706 670 732 684 q 661 635 680 657 q 632 585 642 614 q 622 525 622 556 q 633 463 622 492 q 663 411 644 433 q 709 375 682 389 q 769 362 736 362 q 825 372 794 362 q 883 403 856 381 q 927 460 909 425 q 945 549 945 496 l 945 569 m 102 -3 q 124 60 102 36 q 184 84 147 84 q 216 77 201 84 q 243 59 231 71 q 261 31 254 47 q 267 -4 267 15 q 244 -66 267 -43 q 185 -90 222 -90 q 152 -84 168 -90 q 126 -65 137 -77 q 108 -38 115 -54 q 102 -3 102 -22 z "},"ग़":{"ha":866,"x_min":-24,"x_max":890,"o":"m 890 911 l 747 911 l 747 0 l 636 0 l 636 911 l 330 911 l 330 385 q 329 360 330 374 q 322 333 328 346 q 308 310 317 319 q 281 301 298 301 q 241 313 263 301 q 196 344 219 325 q 152 388 173 363 q 113 438 130 412 q 86 488 96 464 q 76 532 76 513 q 84 559 76 549 q 108 574 93 569 q 145 581 123 580 q 194 583 168 583 l 218 583 l 218 911 l -24 911 l -24 1011 l 890 1011 l 890 911 m 317 106 q 340 169 317 144 q 399 193 363 193 q 432 186 416 193 q 458 167 447 179 q 476 139 470 155 q 483 104 483 123 q 460 42 483 66 q 401 18 437 18 q 368 25 383 18 q 341 43 353 31 q 324 71 330 55 q 317 106 317 87 z "},"ज़":{"ha":1040,"x_min":-24,"x_max":1063,"o":"m 1063 911 l 921 911 l 921 0 l 810 0 l 810 589 l 591 589 l 591 586 q 615 557 599 576 q 648 510 631 538 q 676 446 664 481 q 688 369 688 410 q 674 287 688 328 q 633 215 661 247 q 564 163 606 182 q 466 143 522 143 q 365 162 411 143 q 282 214 319 182 q 214 290 244 247 q 161 380 184 332 q 120 477 138 428 q 91 571 103 526 q 71 654 79 616 q 60 718 64 692 l 160 737 q 215 523 182 615 q 286 370 247 431 q 371 277 326 308 q 466 246 416 246 q 523 260 501 246 q 557 294 545 274 q 573 335 569 314 q 578 372 578 357 q 567 432 578 400 q 534 495 555 463 q 481 555 513 526 q 408 608 449 585 l 408 688 l 810 688 l 810 911 l -24 911 l -24 1011 l 1063 1011 l 1063 911 m 342 -37 q 365 26 342 2 q 425 50 388 50 q 457 43 441 50 q 484 25 472 37 q 502 -3 495 13 q 508 -38 508 -19 q 485 -100 508 -77 q 426 -124 463 -124 q 393 -118 408 -124 q 367 -99 378 -111 q 349 -72 355 -87 q 342 -37 342 -56 z "},"ड़":{"ha":994,"x_min":-24,"x_max":1017,"o":"m 1017 911 l 815 911 l 815 661 l 475 661 q 406 647 425 661 q 387 601 387 633 q 391 567 387 585 q 406 534 395 549 q 435 509 416 519 q 483 499 454 499 l 675 499 q 775 483 734 499 q 841 438 817 467 q 877 371 866 410 q 888 288 888 332 q 868 173 888 228 q 808 76 848 118 q 710 9 769 34 q 574 -16 652 -16 q 411 15 489 -16 q 269 103 334 47 q 155 237 204 159 q 78 406 106 314 l 172 444 q 235 309 196 374 q 327 195 275 245 q 441 116 378 146 q 572 87 503 87 q 660 101 621 87 q 725 142 698 115 q 766 205 752 168 q 781 288 781 242 q 773 341 781 321 q 750 374 766 362 q 709 390 734 385 q 651 394 685 394 l 473 394 q 387 416 423 394 q 326 471 350 437 q 290 544 302 504 q 279 622 279 585 q 292 689 279 662 q 327 731 304 715 q 380 754 349 747 q 447 761 411 761 l 704 761 l 704 911 l -24 911 l -24 1011 l 1017 1011 l 1017 911 m 496 -179 q 519 -116 496 -140 q 578 -92 542 -92 q 611 -99 595 -92 q 637 -118 626 -106 q 655 -145 649 -130 q 662 -180 662 -161 q 639 -243 662 -219 q 580 -267 616 -267 q 547 -260 562 -267 q 520 -242 532 -254 q 503 -214 509 -230 q 496 -179 496 -198 z "},"ढ़":{"ha":890,"x_min":-24,"x_max":914,"o":"m 914 911 l 671 911 l 671 613 l 445 613 q 343 594 387 613 q 272 543 300 576 q 229 466 243 511 q 215 370 215 421 q 264 197 215 268 q 410 94 313 126 l 412 96 q 386 162 394 129 q 378 227 378 195 q 392 307 378 269 q 431 373 406 345 q 494 418 457 401 q 578 435 531 435 q 662 417 625 435 q 727 371 700 400 q 768 304 753 342 q 783 224 783 266 q 767 139 783 182 q 719 62 751 96 q 635 5 686 27 q 513 -16 584 -16 q 422 -7 469 -16 q 330 23 376 3 q 244 75 285 43 q 174 152 204 107 q 125 254 143 196 q 107 383 107 311 q 131 526 107 465 q 196 629 154 588 q 295 691 237 671 q 420 712 352 712 l 559 712 l 559 911 l -24 911 l -24 1011 l 914 1011 l 914 911 m 511 80 q 586 94 555 80 q 637 128 617 107 q 666 175 656 149 q 675 226 675 201 q 667 270 675 250 q 646 303 659 290 q 614 323 632 316 q 576 330 596 330 q 504 298 532 330 q 475 205 475 265 q 511 80 475 144 m 435 -179 q 457 -116 435 -140 q 517 -92 480 -92 q 549 -99 534 -92 q 576 -118 564 -106 q 594 -145 587 -130 q 600 -180 600 -161 q 577 -243 600 -219 q 518 -267 555 -267 q 485 -260 500 -267 q 459 -242 470 -254 q 441 -214 448 -230 q 435 -179 435 -198 z "},"फ़":{"ha":1242,"x_min":-24,"x_max":1266,"o":"m 1266 911 l 681 911 l 681 651 l 684 650 q 725 693 702 673 q 774 726 747 712 q 830 747 801 740 q 890 755 860 755 q 983 735 941 755 q 1057 680 1026 715 q 1106 597 1088 645 q 1124 494 1124 550 q 1102 380 1124 432 q 1047 285 1081 328 q 972 209 1014 242 q 890 153 931 176 l 830 258 q 862 277 843 265 q 902 306 881 290 q 943 343 922 322 q 979 388 963 363 q 1006 440 996 412 q 1016 500 1016 468 q 1006 557 1016 530 q 980 603 997 583 q 940 634 964 623 q 889 646 917 646 q 819 627 853 646 q 755 582 784 609 q 707 523 727 554 q 681 465 687 492 l 681 0 l 570 0 l 570 322 l 568 323 q 477 267 526 284 q 375 250 428 250 q 275 267 320 250 q 197 318 229 283 q 146 407 164 353 q 127 533 127 460 l 127 911 l -24 911 l -24 1011 l 1266 1011 l 1266 911 m 570 911 l 237 911 l 237 539 q 244 463 237 496 q 266 405 250 429 q 308 369 282 381 q 372 356 334 356 q 433 365 405 356 q 486 390 461 374 q 531 429 510 406 q 570 477 552 451 l 570 911 m 277 11 q 300 74 277 50 q 359 98 323 98 q 392 91 376 98 q 418 72 407 84 q 436 44 430 60 q 443 9 443 28 q 420 -53 443 -29 q 361 -77 397 -77 q 328 -70 343 -77 q 301 -52 313 -64 q 284 -24 290 -40 q 277 11 277 -8 z "},"य़":{"ha":871,"x_min":-24,"x_max":888,"o":"m 888 911 l 745 911 l 745 0 l 634 0 l 634 317 l 631 318 q 588 289 613 303 q 531 263 562 274 q 464 244 500 252 q 389 237 428 237 q 254 266 310 237 q 160 342 198 294 q 101 451 123 390 q 70 579 79 513 q 146 600 115 585 q 198 636 178 615 q 227 681 218 656 q 236 730 236 705 q 233 766 236 746 q 222 810 230 787 q 203 859 215 833 q 172 911 191 885 l -24 911 l -24 1011 l 888 1011 l 888 911 m 292 911 q 331 821 317 870 q 345 724 345 772 q 335 657 345 690 q 307 596 326 625 q 260 546 288 568 q 195 511 232 524 q 224 434 205 466 q 269 381 243 401 q 327 351 295 360 q 395 341 359 341 q 465 349 431 341 q 530 373 499 357 q 587 410 561 388 q 634 458 614 431 l 634 911 l 292 911 m 294 71 q 317 133 294 109 q 376 157 340 157 q 409 151 393 157 q 435 132 424 144 q 453 104 447 120 q 460 69 460 88 q 437 7 460 31 q 378 -17 414 -17 q 345 -11 360 -17 q 318 8 330 -4 q 301 36 307 20 q 294 71 294 52 z "},"ॻ":{"ha":866,"x_min":-24,"x_max":890,"o":"m 747 -16 l 117 -16 l 117 83 l 636 83 l 636 911 l 330 911 l 330 385 q 329 360 330 374 q 322 333 328 346 q 308 310 317 319 q 281 301 298 301 q 241 313 263 301 q 196 344 219 325 q 152 388 173 363 q 113 438 130 412 q 86 488 96 464 q 76 532 76 513 q 84 559 76 549 q 108 574 93 569 q 145 581 123 580 q 194 583 168 583 l 218 583 l 218 911 l -24 911 l -24 1011 l 890 1011 l 890 911 l 747 911 l 747 -16 z "},"ॼ":{"ha":1040,"x_min":-24,"x_max":1063,"o":"m 921 -16 l 117 -16 l 117 83 l 810 83 l 810 589 l 591 589 l 591 586 q 615 557 599 576 q 648 510 631 538 q 676 446 664 481 q 688 369 688 410 q 674 287 688 328 q 633 215 661 247 q 564 163 606 182 q 466 143 522 143 q 365 162 411 143 q 282 214 319 182 q 214 290 244 247 q 161 380 184 332 q 120 477 138 428 q 91 571 103 526 q 71 654 79 616 q 60 718 64 692 l 160 737 q 215 523 182 615 q 286 370 247 431 q 371 277 326 308 q 466 246 416 246 q 523 260 501 246 q 557 294 545 274 q 573 335 569 314 q 578 372 578 357 q 567 432 578 400 q 534 495 555 463 q 481 555 513 526 q 408 608 449 585 l 408 688 l 810 688 l 810 911 l -24 911 l -24 1011 l 1063 1011 l 1063 911 l 921 911 l 921 -16 z "},"ॾ":{"ha":994,"x_min":-24,"x_max":1017,"o":"m 1017 911 l 815 911 l 815 661 l 475 661 q 406 649 425 661 q 387 610 387 637 q 391 582 387 597 q 406 554 395 567 q 435 533 416 541 q 483 525 454 525 l 675 525 q 775 511 734 525 q 841 474 817 498 q 877 417 866 450 q 888 349 888 385 q 868 252 888 298 q 808 171 848 206 q 710 115 769 136 q 574 94 652 94 q 409 123 488 94 q 264 205 330 153 q 149 329 199 257 q 71 486 99 401 l 165 523 q 230 400 189 458 q 322 296 270 341 q 438 224 375 251 q 572 197 502 197 q 660 208 621 197 q 725 237 698 218 q 766 282 752 256 q 781 343 781 309 q 773 381 781 366 q 750 405 766 396 q 709 417 734 414 q 651 420 685 420 l 473 420 q 387 440 423 420 q 326 491 350 460 q 290 560 302 522 q 279 632 279 597 q 292 693 279 669 q 327 733 304 718 q 380 754 349 748 q 447 761 411 761 l 704 761 l 704 911 l -24 911 l -24 1011 l 1017 1011 l 1017 911 m 888 -116 l 117 -116 l 117 -16 l 888 -16 l 888 -116 z "},"ॿ":{"ha":835,"x_min":-25,"x_max":859,"o":"m 716 -16 l 127 -16 l 127 83 l 605 83 l 605 263 l 602 264 q 569 237 588 251 q 525 212 550 223 q 470 193 500 200 q 401 185 439 185 q 277 209 334 185 q 178 275 220 233 q 113 371 136 316 q 89 488 89 426 q 113 601 89 549 q 177 690 136 653 q 271 748 218 728 q 383 769 324 769 q 425 766 400 769 q 479 753 450 764 q 540 724 509 743 q 602 672 572 705 l 605 673 l 605 911 l -25 911 l -25 1011 l 859 1011 l 859 911 l 716 911 l 716 -16 m 197 472 q 209 408 197 441 q 245 349 221 376 q 304 305 269 322 q 387 288 340 288 q 467 303 431 288 l 258 618 q 229 583 241 602 q 211 544 218 564 q 200 506 203 524 q 197 472 197 487 m 608 546 q 561 595 585 573 q 511 633 537 618 q 454 658 484 649 q 390 667 425 667 q 341 661 366 667 l 545 354 q 591 421 575 385 q 608 492 608 457 l 608 546 z "},"ऽ":{"ha":819,"x_min":83,"x_max":701,"o":"m 668 911 l 357 911 q 305 908 328 911 q 266 896 282 905 q 242 868 250 886 q 234 821 234 850 q 247 757 234 785 q 284 707 260 730 q 343 663 309 684 q 420 618 377 642 q 517 561 467 591 q 608 490 567 530 q 674 397 648 450 q 701 275 701 345 q 684 171 701 223 q 634 78 668 119 q 547 10 600 36 q 420 -16 494 -16 q 305 2 357 -16 q 211 47 253 20 q 137 106 169 75 q 83 164 105 138 l 163 234 q 281 124 218 162 q 412 87 344 87 q 487 101 453 87 q 544 140 520 115 q 579 198 567 165 q 592 270 592 232 q 572 356 592 319 q 521 424 553 393 q 449 478 489 454 q 367 526 408 503 q 276 580 320 553 q 199 643 233 608 q 145 723 165 677 q 125 831 125 768 q 137 908 125 874 q 173 964 148 941 q 241 999 199 987 q 345 1011 283 1011 l 668 1011 l 668 911 z "},"ॽ":{"ha":753,"x_min":108,"x_max":635,"o":"m 108 969 q 218 1008 161 991 q 335 1025 275 1025 q 453 1004 398 1025 q 548 945 507 983 q 612 855 589 907 q 635 741 635 803 q 611 627 635 677 q 548 539 587 576 q 457 478 508 503 q 351 440 406 453 l 351 0 l 240 0 l 240 517 q 345 544 293 528 q 437 587 396 560 q 503 653 477 613 q 528 749 528 692 q 512 823 528 791 q 470 877 496 855 q 409 909 444 898 q 334 920 374 920 q 274 914 304 920 q 215 898 244 908 q 159 876 186 888 q 108 848 132 863 l 108 969 z "},"ा":{"ha":361,"x_min":-24,"x_max":385,"o":"m 385 911 l 242 911 l 242 0 l 131 0 l 131 911 l -24 911 l -24 1011 l 385 1011 l 385 911 z "},"ि":{"ha":361,"x_min":-24,"x_max":1052,"o":"m 385 911 l 242 911 l 242 0 l 131 0 l 131 911 l -24 911 l -24 1011 l 131 1011 q 94 1178 94 1101 q 110 1270 94 1227 q 160 1344 126 1313 q 245 1393 193 1375 q 370 1411 298 1411 q 551 1380 464 1411 q 722 1295 638 1350 q 887 1166 805 1241 q 1052 1004 968 1092 l 934 1004 q 883 1052 915 1022 q 810 1115 852 1081 q 719 1182 769 1148 q 613 1244 669 1217 q 497 1290 557 1272 q 376 1307 437 1307 q 293 1295 327 1307 q 239 1263 260 1284 q 210 1216 218 1243 q 201 1157 201 1188 q 234 1011 201 1096 l 385 1011 l 385 911 z "},"ी":{"ha":361,"x_min":-336,"x_max":385,"o":"m 385 911 l 242 911 l 242 0 l 131 0 l 131 911 l -24 911 l -24 1011 l 142 1011 q 111 1129 130 1080 q 69 1212 92 1179 q 22 1263 47 1244 q -25 1292 -2 1282 q -67 1304 -47 1301 q -100 1307 -87 1307 q -168 1294 -142 1307 q -207 1262 -193 1280 q -225 1224 -220 1244 q -229 1190 -229 1204 q -228 1167 -229 1184 q -217 1126 -226 1151 q -189 1069 -208 1101 q -135 1004 -170 1038 l -250 1004 q -314 1105 -293 1053 q -336 1207 -336 1158 q -321 1286 -336 1249 q -276 1351 -306 1323 q -201 1394 -246 1378 q -98 1411 -157 1411 q 43 1379 -16 1411 q 142 1293 102 1348 q 206 1166 182 1239 q 239 1011 229 1093 l 385 1011 l 385 911 z "},"ु":{"ha":0,"x_min":-601,"x_max":67,"o":"m -324 -20 q -228 22 -281 7 q -128 37 -176 37 q -51 25 -87 37 q 11 -10 -16 13 q 52 -65 37 -33 q 67 -138 67 -98 q 50 -220 67 -182 q -2 -286 33 -258 q -87 -331 -37 -315 q -205 -348 -138 -348 q -343 -327 -282 -348 q -452 -275 -404 -307 q -536 -205 -500 -243 q -601 -134 -573 -168 l -538 -60 q -464 -136 -499 -102 q -391 -194 -429 -170 q -309 -231 -353 -218 q -210 -243 -265 -243 q -131 -234 -163 -243 q -77 -211 -98 -225 q -46 -177 -56 -196 q -37 -140 -37 -159 q -63 -85 -37 -105 q -134 -64 -89 -64 q -201 -75 -163 -64 q -279 -109 -239 -85 l -324 -20 z "},"ू":{"ha":0,"x_min":-391,"x_max":284,"o":"m 198 -347 q 127 -239 163 -290 q 49 -150 90 -188 q -40 -90 7 -112 q -145 -67 -88 -67 q -207 -75 -180 -67 q -252 -97 -233 -83 q -279 -129 -270 -111 q -289 -165 -289 -146 q -259 -224 -289 -202 q -179 -245 -230 -245 q -81 -227 -132 -245 l -57 -324 q -116 -341 -86 -336 q -176 -347 -146 -347 q -258 -335 -219 -347 q -327 -299 -297 -323 q -373 -241 -356 -276 q -391 -161 -391 -206 q -370 -75 -391 -112 q -315 -14 -349 -38 q -238 22 -281 10 q -150 34 -195 34 q -42 16 -92 34 q 52 -30 9 -1 q 132 -95 96 -59 q 196 -169 168 -132 q 247 -241 225 -206 q 284 -303 269 -277 l 198 -347 z "},"ृ":{"ha":0,"x_min":-383,"x_max":-3,"o":"m -80 -67 l -154 -67 q -250 -94 -218 -67 q -281 -159 -281 -121 q -248 -223 -281 -201 q -151 -245 -214 -245 q -90 -240 -120 -245 q -27 -224 -60 -235 l -3 -321 q -72 -340 -38 -334 q -144 -347 -106 -347 q -240 -334 -197 -347 q -316 -295 -284 -320 q -365 -234 -347 -270 q -383 -151 -383 -197 q -364 -68 -383 -103 q -314 -11 -345 -33 q -242 23 -283 12 q -159 34 -202 34 l -80 34 l -80 -67 z "},"ॢ":{"ha":0,"x_min":-474,"x_max":87,"o":"m -305 -347 q -356 -310 -327 -334 q -411 -254 -385 -286 q -456 -183 -437 -222 q -474 -102 -474 -144 q -464 -44 -474 -69 q -436 -1 -454 -18 q -394 26 -418 17 q -340 36 -369 36 q -281 21 -308 36 q -239 -20 -255 7 l -238 -20 q -193 22 -220 9 q -138 35 -167 35 q -81 24 -106 35 q -39 -6 -56 12 q -13 -46 -22 -24 q -4 -90 -4 -68 q -17 -148 -4 -124 q -45 -189 -30 -172 q -74 -221 -61 -207 q -87 -251 -87 -235 q -76 -277 -87 -267 q -52 -288 -65 -288 q -27 -282 -39 -288 q -4 -268 -15 -277 q 16 -249 7 -259 q 34 -228 26 -238 l 87 -282 q 63 -309 76 -296 q 34 -334 50 -323 q -2 -351 18 -345 q -48 -357 -22 -357 q -95 -348 -74 -357 q -130 -323 -115 -338 q -153 -287 -145 -307 q -161 -245 -161 -267 q -156 -211 -161 -225 q -142 -184 -151 -196 q -124 -163 -134 -173 q -106 -142 -115 -153 q -93 -119 -98 -132 q -87 -90 -87 -106 q -103 -53 -87 -65 q -138 -41 -119 -41 q -166 -48 -155 -41 q -185 -67 -178 -55 q -196 -94 -193 -79 q -199 -125 -199 -109 q -197 -151 -199 -139 l -272 -151 q -277 -112 -274 -131 q -288 -77 -281 -92 q -306 -53 -294 -62 q -336 -43 -317 -43 q -375 -58 -359 -43 q -390 -108 -390 -73 q -379 -161 -390 -136 q -350 -207 -368 -186 q -308 -247 -332 -229 q -260 -281 -285 -265 l -305 -347 z "},"ॅ":{"ha":0,"x_min":-439,"x_max":166,"o":"m -340 1431 q -316 1358 -331 1396 q -276 1287 -300 1319 q -216 1234 -252 1255 q -132 1213 -181 1213 q -70 1223 -100 1213 q -13 1258 -39 1233 q 34 1324 14 1282 q 66 1431 54 1367 l 166 1403 q 124 1283 151 1337 q 59 1190 97 1229 q -28 1130 21 1152 q -139 1109 -78 1109 q -329 1181 -251 1109 q -439 1403 -406 1253 l -340 1431 z "},"ॆ":{"ha":0,"x_min":-666,"x_max":-91,"o":"m -178 993 q -191 1070 -181 1038 q -216 1124 -201 1103 q -250 1158 -231 1145 q -291 1176 -269 1170 q -337 1185 -313 1183 q -387 1187 -361 1187 q -445 1190 -416 1188 q -502 1199 -474 1192 q -554 1220 -529 1206 q -601 1260 -580 1234 q -639 1326 -623 1286 q -666 1423 -656 1366 l -583 1443 q -550 1355 -572 1385 q -498 1310 -528 1324 q -432 1293 -468 1295 q -357 1290 -396 1291 q -294 1287 -325 1289 q -235 1275 -263 1284 q -183 1247 -208 1265 q -141 1196 -159 1228 q -109 1114 -122 1163 q -91 993 -96 1064 l -178 993 z "},"े":{"ha":0,"x_min":-629,"x_max":-90,"o":"m -90 992 l -188 992 l -250 1108 q -321 1225 -289 1182 q -382 1292 -353 1269 q -439 1321 -411 1314 q -497 1327 -467 1327 l -629 1327 l -629 1437 l -505 1437 q -433 1431 -465 1437 q -373 1408 -401 1424 q -316 1361 -344 1391 q -258 1285 -289 1332 q -190 1174 -227 1239 q -105 1021 -153 1109 l -90 992 z "},"ै":{"ha":0,"x_min":-677,"x_max":-85,"o":"m -85 992 l -175 992 l -199 1014 q -293 1093 -252 1061 q -364 1146 -333 1125 q -420 1179 -395 1167 q -465 1196 -444 1190 q -506 1202 -486 1201 q -547 1203 -526 1203 l -677 1203 l -677 1299 l -557 1299 q -502 1296 -527 1299 q -453 1283 -477 1292 q -406 1259 -430 1274 q -354 1222 -382 1244 q -292 1169 -326 1200 q -214 1099 -258 1139 l -210 1101 q -279 1213 -249 1166 q -335 1293 -310 1260 q -381 1347 -360 1326 q -422 1379 -402 1368 q -462 1395 -441 1391 q -506 1399 -482 1399 l -637 1399 l -637 1499 l -513 1499 q -443 1491 -474 1499 q -384 1464 -412 1484 q -328 1411 -356 1444 q -268 1323 -300 1377 q -194 1196 -235 1270 q -100 1021 -154 1122 l -85 992 z "},"ॉ":{"ha":361,"x_min":-117,"x_max":488,"o":"m 385 911 l 242 911 l 242 0 l 131 0 l 131 911 l -24 911 l -24 1011 l 385 1011 l 385 911 m -18 1431 q 6 1358 -9 1396 q 46 1287 22 1319 q 106 1234 71 1255 q 190 1213 141 1213 q 252 1223 222 1213 q 309 1258 283 1233 q 356 1324 336 1282 q 388 1431 376 1367 l 488 1403 q 446 1283 473 1337 q 381 1190 419 1229 q 294 1130 343 1152 q 183 1109 244 1109 q -6 1181 71 1109 q -117 1403 -84 1253 l -18 1431 z "},"ॊ":{"ha":361,"x_min":-344,"x_max":385,"o":"m 385 911 l 242 911 l 242 0 l 131 0 l 131 911 l -24 911 l -24 1011 l 385 1011 l 385 911 m 144 993 q 131 1070 141 1038 q 106 1124 121 1103 q 73 1158 92 1145 q 32 1176 54 1170 q -15 1185 9 1183 q -64 1187 -39 1187 q -123 1190 -94 1188 q -179 1199 -152 1192 q -232 1220 -207 1206 q -279 1260 -258 1234 q -317 1326 -300 1286 q -344 1423 -334 1366 l -261 1443 q -228 1355 -250 1385 q -176 1310 -205 1324 q -110 1293 -146 1295 q -35 1290 -74 1291 q 28 1287 -3 1289 q 87 1275 59 1284 q 139 1247 115 1265 q 181 1196 163 1228 q 213 1114 200 1163 q 231 993 226 1064 l 144 993 z "},"ो":{"ha":361,"x_min":-307,"x_max":385,"o":"m 385 911 l 242 911 l 242 0 l 131 0 l 131 911 l -24 911 l -24 1011 l 385 1011 l 385 911 m 233 992 l 134 992 l 73 1108 q 1 1225 33 1182 q -60 1292 -31 1269 q -117 1321 -89 1314 q -175 1327 -144 1327 l -307 1327 l -307 1437 l -182 1437 q -111 1431 -143 1437 q -51 1408 -79 1424 q 6 1361 -22 1391 q 64 1285 33 1332 q 133 1174 96 1239 q 217 1021 170 1109 l 233 992 z "},"ौ":{"ha":361,"x_min":-355,"x_max":385,"o":"m 385 911 l 242 911 l 242 0 l 131 0 l 131 911 l -24 911 l -24 1011 l 385 1011 l 385 911 m 237 992 l 147 992 l 123 1014 q 30 1093 70 1061 q -42 1146 -11 1125 q -98 1179 -73 1167 q -143 1196 -122 1190 q -184 1202 -164 1201 q -225 1203 -203 1203 l -355 1203 l -355 1299 l -235 1299 q -180 1296 -205 1299 q -131 1283 -155 1292 q -84 1259 -108 1274 q -32 1222 -60 1244 q 30 1169 -4 1200 q 109 1099 64 1139 l 113 1101 q 43 1213 73 1166 q -13 1293 12 1260 q -59 1347 -38 1326 q -100 1379 -80 1368 q -140 1395 -119 1391 q -184 1399 -160 1399 l -315 1399 l -315 1499 l -191 1499 q -121 1491 -152 1499 q -62 1464 -90 1484 q -6 1411 -34 1444 q 55 1323 22 1377 q 128 1196 87 1270 q 222 1021 168 1122 l 237 992 z "},"ॄ":{"ha":0,"x_min":-391,"x_max":5,"o":"m -80 166 l -162 166 q -258 143 -227 166 q -290 85 -290 120 q -281 53 -290 66 q -258 29 -273 39 q -223 15 -243 20 q -180 10 -203 10 q -130 15 -156 10 q -81 26 -103 19 l -59 -66 q -119 -78 -89 -71 q -174 -95 -149 -84 q -213 -123 -198 -106 q -229 -165 -229 -140 q -220 -198 -229 -185 q -198 -220 -212 -212 q -165 -233 -184 -229 q -126 -237 -146 -237 q -72 -231 -100 -237 q -24 -216 -45 -225 l 5 -308 q -125 -336 -62 -336 q -204 -324 -168 -336 q -270 -290 -241 -313 q -314 -235 -298 -268 q -330 -160 -330 -202 q -321 -103 -330 -129 q -294 -56 -311 -78 l -294 -54 q -367 7 -343 -28 q -391 92 -391 42 q -372 170 -391 137 q -322 224 -353 203 q -251 256 -291 245 q -167 266 -210 266 l -80 266 l -80 166 z "},"ॣ":{"ha":0,"x_min":-474,"x_max":88,"o":"m 88 -313 q 45 -326 68 -321 q 0 -330 22 -330 q -47 -324 -25 -330 q -85 -305 -69 -317 q -111 -276 -102 -293 q -121 -238 -121 -259 q -114 -204 -121 -221 q -96 -176 -108 -187 l -96 -175 q -139 -140 -126 -159 q -152 -96 -152 -121 q -141 -53 -152 -70 q -118 -23 -131 -37 q -95 2 -106 -10 q -85 33 -85 15 q -99 62 -85 50 q -138 75 -114 75 q -166 68 -154 75 q -185 50 -178 61 q -196 23 -193 38 q -199 -9 -199 7 q -197 -35 -199 -23 l -272 -35 q -277 5 -274 -15 q -288 39 -281 24 q -306 63 -294 54 q -337 73 -318 73 q -375 58 -359 73 q -390 8 -390 43 q -379 -45 -390 -20 q -350 -91 -368 -70 q -308 -131 -332 -113 q -260 -165 -285 -149 l -305 -231 q -356 -195 -327 -218 q -411 -139 -385 -171 q -456 -67 -437 -106 q -474 16 -474 -28 q -464 72 -474 47 q -436 115 -454 98 q -394 142 -418 133 q -342 152 -370 152 q -281 138 -307 152 q -239 96 -256 123 l -238 96 q -194 138 -220 125 q -136 151 -168 151 q -81 140 -106 151 q -39 111 -56 129 q -12 72 -22 94 q -3 29 -3 50 q -15 -16 -3 1 q -42 -47 -27 -33 q -69 -74 -57 -61 q -81 -104 -81 -86 q -72 -123 -81 -115 q -35 -132 -63 -132 q 6 -128 -14 -132 q 39 -120 26 -123 l 53 -184 q 15 -190 35 -186 q -20 -198 -4 -193 q -45 -212 -35 -204 q -56 -233 -56 -220 q -39 -255 -56 -248 q -3 -261 -23 -261 q 32 -257 16 -261 q 68 -247 49 -254 l 88 -313 z "},"्":{"ha":0,"x_min":-216,"x_max":123,"o":"m 54 -348 l -216 -96 l -149 -22 l 123 -271 l 54 -348 z "},"ँ":{"ha":0,"x_min":-446,"x_max":173,"o":"m -212 1401 q -191 1461 -212 1438 q -134 1485 -169 1485 q -102 1479 -117 1485 q -76 1461 -87 1472 q -58 1434 -64 1449 q -52 1399 -52 1418 q -58 1366 -52 1381 q -75 1340 -64 1351 q -100 1322 -85 1329 q -132 1316 -115 1316 q -164 1323 -149 1316 q -189 1340 -178 1329 q -206 1367 -200 1352 q -212 1401 -212 1383 m -347 1431 q -318 1358 -334 1396 q -278 1287 -302 1319 q -218 1234 -254 1255 q -132 1213 -183 1213 q -69 1223 -100 1213 q -12 1258 -39 1233 q 37 1324 15 1282 q 73 1431 58 1367 l 173 1403 q 127 1283 155 1337 q 61 1190 99 1229 q -27 1130 22 1152 q -139 1109 -77 1109 q -330 1181 -254 1109 q -446 1403 -407 1253 l -347 1431 z "},"ऀ":{"ha":0,"x_min":-446,"x_max":173,"o":"m -221 1183 q -199 1244 -221 1220 q -143 1267 -178 1267 q -111 1261 -125 1267 q -84 1243 -96 1255 q -67 1216 -73 1232 q -61 1181 -61 1200 q -67 1148 -61 1164 q -83 1122 -73 1133 q -109 1105 -94 1111 q -140 1099 -123 1099 q -173 1105 -158 1099 q -198 1123 -187 1112 q -215 1149 -209 1134 q -221 1183 -221 1165 m 73 1153 q 45 1226 61 1187 q 5 1297 29 1265 q -55 1350 -20 1329 q -141 1371 -90 1371 q -204 1361 -174 1371 q -261 1326 -235 1351 q -310 1259 -288 1301 q -346 1153 -332 1217 l -446 1181 q -400 1301 -428 1246 q -334 1394 -372 1355 q -246 1454 -296 1432 q -134 1475 -197 1475 q 57 1403 -20 1475 q 173 1181 134 1331 l 73 1153 z "},"ं":{"ha":0,"x_min":-219,"x_max":-54,"o":"m -219 1218 q -196 1281 -219 1257 q -137 1305 -174 1305 q -105 1298 -120 1305 q -78 1279 -90 1291 q -60 1252 -66 1267 q -54 1217 -54 1236 q -76 1154 -54 1178 q -136 1131 -99 1131 q -169 1137 -153 1131 q -195 1155 -184 1143 q -213 1183 -206 1167 q -219 1218 -219 1199 z "},"ः":{"ha":360,"x_min":80,"x_max":254,"o":"m 80 669 q 104 733 80 709 q 166 758 127 758 q 200 751 184 758 q 229 732 216 745 q 248 704 241 720 q 254 668 254 687 q 231 604 254 629 q 168 580 207 580 q 133 587 149 580 q 105 605 117 593 q 87 633 94 617 q 80 669 80 650 m 80 259 q 104 323 80 298 q 166 348 127 348 q 200 341 184 348 q 229 322 216 334 q 248 293 241 310 q 254 258 254 277 q 231 194 254 218 q 168 170 207 170 q 133 176 149 170 q 105 195 117 183 q 87 223 94 207 q 80 259 80 239 z "},"़":{"ha":0,"x_min":-219,"x_max":-54,"o":"m -219 -179 q -196 -116 -219 -140 q -137 -92 -174 -92 q -105 -99 -120 -92 q -78 -118 -90 -106 q -60 -145 -66 -130 q -54 -180 -54 -161 q -76 -243 -54 -219 q -136 -267 -99 -267 q -169 -260 -153 -267 q -195 -242 -184 -254 q -213 -214 -206 -230 q -219 -179 -219 -198 z "},"॑":{"ha":0,"x_min":-187,"x_max":-85,"o":"m -187 1122 l -187 1449 l -85 1449 l -85 1122 l -187 1122 z "},"॒":{"ha":0,"x_min":-570,"x_max":-66,"o":"m -570 -116 l -66 -116 l -66 -218 l -570 -218 l -570 -116 z "},"॓":{"ha":0,"x_min":-395,"x_max":-57,"o":"m -125 1124 l -395 1375 l -329 1450 l -57 1200 l -125 1124 z "},"॔":{"ha":0,"x_min":-216,"x_max":123,"o":"m -216 1200 l 56 1450 l 123 1375 l -147 1124 l -216 1200 z "},"०":{"ha":720,"x_min":80,"x_max":640,"o":"m 361 710 q 291 695 323 710 q 237 654 260 680 q 202 593 214 628 q 189 517 189 558 q 203 441 189 477 q 240 379 216 406 q 294 338 263 353 q 361 323 326 323 q 427 338 396 323 q 481 379 458 353 q 518 441 505 406 q 531 517 531 477 q 518 593 531 558 q 484 654 506 628 q 430 695 461 680 q 361 710 398 710 m 361 814 q 472 791 421 814 q 561 727 524 768 q 619 632 598 686 q 640 517 640 578 q 618 401 640 455 q 558 306 596 347 q 469 242 520 265 q 361 218 418 218 q 252 242 303 218 q 163 306 201 265 q 102 401 125 347 q 80 517 80 455 q 101 632 80 578 q 160 727 123 686 q 249 791 198 768 q 361 814 300 814 z "},"१":{"ha":640,"x_min":94,"x_max":558,"o":"m 249 566 q 188 610 216 586 q 139 665 160 635 q 106 731 118 695 q 94 808 94 766 q 111 898 94 858 q 157 966 127 939 q 224 1009 186 994 q 306 1025 263 1025 q 390 1009 349 1025 q 461 962 431 993 q 511 886 492 931 q 530 783 530 841 q 509 667 530 723 q 455 558 489 612 q 377 454 421 505 q 284 351 332 402 q 413 233 361 283 q 497 143 465 183 q 544 70 530 103 q 558 2 558 36 q 543 -71 558 -35 q 500 -140 528 -106 l 408 -85 q 437 -38 427 -58 q 446 5 446 -18 q 444 32 446 19 q 431 62 441 45 q 401 102 421 79 q 348 159 382 125 q 263 240 314 193 q 141 350 213 286 q 278 495 224 433 q 363 607 332 557 q 406 698 394 657 q 418 780 418 739 q 409 846 418 819 q 385 889 400 873 q 351 913 370 906 q 311 920 332 920 q 269 912 288 920 q 235 888 249 903 q 212 852 220 873 q 204 806 204 831 q 213 755 204 779 q 236 712 222 732 q 269 675 250 692 q 307 646 287 659 l 249 566 z "},"२":{"ha":760,"x_min":74,"x_max":650,"o":"m 559 -148 q 412 87 478 -31 q 294 331 347 205 q 222 348 254 332 q 168 388 190 364 q 134 441 146 412 q 123 498 123 471 q 130 536 123 519 q 149 564 137 553 q 178 582 161 576 q 214 588 195 588 q 251 581 233 588 q 286 557 269 574 q 320 514 303 541 q 352 446 336 486 q 417 474 384 456 q 477 520 450 492 q 521 588 504 549 q 538 681 538 628 q 520 778 538 733 q 472 854 503 822 q 397 904 441 886 q 301 922 353 922 q 210 910 260 922 q 107 873 160 899 l 74 973 q 146 1000 112 989 q 210 1015 180 1010 q 263 1023 239 1021 q 305 1025 288 1025 q 448 997 384 1025 q 556 922 511 968 q 625 813 601 875 q 650 686 650 752 q 631 575 650 627 q 579 480 613 523 q 498 405 546 437 q 393 351 451 372 l 393 349 q 448 237 421 290 q 505 131 475 183 q 569 26 534 79 q 646 -85 604 -27 l 559 -148 z "},"३":{"ha":728,"x_min":80,"x_max":631,"o":"m 514 -146 q 456 -58 480 -94 q 410 4 431 -23 q 370 54 389 31 q 326 103 350 77 q 237 118 273 105 q 177 149 200 130 q 142 189 153 167 q 132 234 132 212 q 138 267 132 251 q 156 295 144 283 q 184 314 168 307 q 222 321 201 321 q 273 310 248 321 q 319 282 297 298 q 358 245 340 265 q 389 206 376 224 q 427 220 405 210 q 470 249 450 230 q 505 300 490 269 q 519 378 519 331 q 505 457 519 425 q 464 510 490 490 q 402 541 437 531 q 326 550 367 550 l 154 550 l 154 652 l 286 652 q 371 664 337 652 q 426 695 406 676 q 455 737 447 713 q 464 784 464 760 q 454 834 464 811 q 424 873 445 857 q 368 900 402 890 q 285 909 334 909 l 80 909 l 80 1011 l 281 1011 q 414 993 359 1011 q 505 943 469 975 q 558 871 541 912 q 575 784 575 829 q 553 689 575 732 q 486 612 531 645 l 486 608 q 548 567 521 592 q 593 510 575 541 q 621 443 612 479 q 631 372 631 408 q 617 288 631 328 q 580 214 604 248 q 521 157 555 181 q 444 120 486 132 l 444 117 q 476 80 456 104 q 518 29 496 57 q 563 -30 541 1 q 604 -87 586 -60 l 514 -146 z "},"४":{"ha":817,"x_min":73,"x_max":743,"o":"m 739 1011 q 742 983 741 997 q 743 955 743 968 q 720 830 743 888 q 660 721 697 772 q 577 623 623 669 q 485 534 531 577 q 545 474 517 505 q 595 409 574 444 q 629 338 616 375 q 642 258 642 300 q 623 165 642 205 q 573 98 604 125 q 503 56 543 71 q 420 42 463 42 q 321 59 365 42 q 245 104 277 75 q 198 174 214 134 q 181 260 181 214 q 193 337 181 301 q 227 407 205 374 q 276 471 248 440 q 336 532 304 503 q 242 615 290 572 q 158 707 195 659 q 97 810 120 755 q 73 928 73 865 q 76 979 73 959 q 80 1011 78 1000 l 193 1011 q 185 971 188 990 q 183 935 183 953 q 202 837 183 882 q 254 750 222 791 q 326 672 286 709 q 410 598 367 635 q 492 676 452 636 q 564 760 532 715 q 615 856 595 805 q 634 965 634 906 q 633 988 634 977 q 631 1011 633 999 l 739 1011 m 283 256 q 296 199 283 221 q 329 165 309 178 q 370 148 348 153 q 410 144 392 144 q 460 152 436 144 q 502 177 484 161 q 530 214 519 193 q 540 262 540 236 q 530 316 540 290 q 503 368 520 342 q 463 418 486 393 q 412 467 439 442 q 361 414 385 440 q 320 362 337 388 q 293 309 302 336 q 283 256 283 283 z "},"५":{"ha":848,"x_min":102,"x_max":891,"o":"m 269 1011 q 244 910 255 956 q 227 822 234 863 q 217 743 220 781 q 214 670 214 706 q 228 541 214 594 q 267 454 242 488 q 326 405 292 420 q 397 389 359 389 q 445 396 423 389 q 482 413 466 404 q 509 434 498 423 q 526 452 520 444 q 492 522 503 486 q 481 589 481 558 q 488 635 481 614 q 505 671 494 656 q 534 696 517 687 q 572 705 551 705 q 618 693 597 705 q 654 662 640 682 q 677 615 669 642 q 686 559 686 589 q 646 433 686 494 q 693 296 668 365 q 748 162 718 228 q 814 33 779 96 q 891 -85 849 -29 l 804 -148 q 755 -72 780 -115 q 707 18 730 -29 q 664 113 684 64 q 626 206 643 161 q 596 289 608 250 q 576 353 583 327 l 576 354 q 522 317 549 331 q 471 297 494 304 q 429 288 447 290 q 401 286 410 286 q 273 318 329 286 q 180 402 218 349 q 122 524 142 455 q 102 667 102 592 q 105 729 102 693 q 113 810 107 766 q 130 905 119 854 q 155 1011 140 956 l 269 1011 z "},"६":{"ha":851,"x_min":98,"x_max":834,"o":"m 587 550 l 426 550 q 350 537 380 550 q 300 504 319 525 q 272 455 281 483 q 264 397 264 427 q 277 320 264 356 q 315 258 290 285 q 375 217 340 232 q 454 201 410 201 q 496 204 474 201 q 538 214 519 208 q 517 272 524 245 q 510 323 510 299 q 530 390 510 366 q 589 415 551 415 q 643 401 618 415 q 685 366 667 388 q 713 315 703 343 q 723 257 723 286 q 712 206 723 230 q 676 162 702 182 q 746 41 705 104 q 834 -83 787 -22 l 749 -146 q 705 -90 727 -121 q 663 -24 683 -59 q 624 47 642 11 q 591 118 606 83 q 526 104 558 109 q 465 99 493 99 q 339 123 396 99 q 240 188 281 146 q 176 284 199 229 q 153 403 153 339 q 173 504 153 458 q 244 590 193 549 l 244 594 q 183 628 210 607 q 137 677 157 649 q 108 738 118 705 q 98 809 98 772 q 115 893 98 859 q 160 950 132 927 q 222 985 187 972 q 291 1003 256 997 q 358 1010 326 1009 q 410 1011 389 1011 l 562 1011 l 562 909 l 425 909 q 342 906 381 909 q 273 890 302 902 q 226 855 243 878 q 209 793 209 832 q 225 729 209 755 q 268 685 241 703 q 327 660 294 668 q 395 652 361 652 l 587 652 l 587 550 z "},"७":{"ha":911,"x_min":80,"x_max":831,"o":"m 665 368 q 630 365 650 365 q 509 388 559 365 q 427 449 458 412 q 381 531 395 486 q 366 619 366 576 q 381 704 366 665 q 422 771 395 743 q 486 816 448 800 q 570 832 524 832 q 680 803 631 832 q 762 725 728 774 q 813 607 795 675 q 831 461 831 539 q 806 287 831 363 q 736 156 781 210 q 630 74 691 102 q 496 45 568 45 q 381 67 433 45 q 288 129 329 90 q 215 225 246 169 q 161 349 183 281 q 123 496 138 417 q 98 660 108 575 q 84 833 88 745 q 80 1011 80 922 l 188 1011 q 195 775 188 887 q 217 567 202 663 q 257 394 233 471 q 315 262 281 316 q 395 178 350 208 q 498 149 440 149 q 591 173 549 149 q 663 239 633 197 q 708 339 692 281 q 724 465 724 397 q 711 576 724 528 q 675 659 697 625 q 625 711 653 693 q 568 728 597 728 q 536 723 553 728 q 506 705 519 718 q 483 671 492 692 q 473 616 473 649 q 490 543 473 572 q 533 495 507 513 q 589 469 559 477 q 646 462 619 462 q 655 462 650 462 q 663 463 659 463 l 665 368 z "},"८":{"ha":805,"x_min":87,"x_max":736,"o":"m 623 958 q 443 707 517 812 q 322 528 370 602 q 248 407 274 454 q 209 330 221 360 q 192 250 192 290 q 208 176 192 207 q 249 126 224 146 q 307 97 275 106 q 371 87 339 87 q 454 104 416 87 q 525 149 492 120 q 586 216 557 177 q 644 302 615 256 l 736 243 q 663 143 702 190 q 580 61 625 96 q 484 6 536 26 q 372 -14 433 -14 q 261 5 313 -14 q 171 59 210 24 q 110 143 132 94 q 87 254 87 193 q 95 324 87 290 q 117 391 103 358 q 165 482 134 429 q 244 611 195 536 q 364 787 294 686 q 530 1021 434 888 l 623 958 z "},"९":{"ha":786,"x_min":80,"x_max":718,"o":"m 337 606 q 390 634 366 618 q 433 671 415 650 q 460 718 450 692 q 471 775 471 743 q 462 830 471 804 q 436 877 454 857 q 394 908 419 897 q 335 920 368 920 q 274 908 301 920 q 229 874 248 896 q 199 825 210 853 q 189 764 189 796 q 204 687 189 725 q 252 605 219 650 q 335 505 284 561 q 456 374 385 450 q 571 252 522 305 q 653 155 620 198 q 702 75 686 111 q 718 5 718 39 q 705 -64 718 -26 q 660 -140 691 -102 l 568 -85 q 593 -44 581 -67 q 605 3 605 -21 q 594 49 605 25 q 558 104 583 73 q 494 178 533 136 q 398 281 454 221 q 259 431 319 365 q 160 555 199 498 q 100 664 120 612 q 80 773 80 717 q 99 876 80 829 q 151 955 117 922 q 230 1006 184 988 q 330 1025 276 1025 q 435 1004 389 1025 q 515 949 482 984 q 565 869 547 915 q 583 772 583 823 q 571 695 583 733 q 536 624 560 658 q 474 562 512 591 q 381 513 435 534 l 337 606 z "},"।":{"ha":600,"x_min":320,"x_max":431,"o":"m 431 0 l 320 0 l 320 1011 l 431 1011 l 431 0 z "},"॥":{"ha":880,"x_min":320,"x_max":711,"o":"m 431 0 l 320 0 l 320 1011 l 431 1011 l 431 0 m 711 0 l 600 0 l 600 1011 l 711 1011 l 711 0 z "},"॰":{"ha":618,"x_min":100,"x_max":518,"o":"m 310 932 q 262 922 283 932 q 225 895 241 912 q 202 853 210 878 q 193 802 193 829 q 202 750 193 774 q 228 708 212 726 q 264 680 243 690 q 310 670 286 670 q 355 680 334 670 q 391 708 376 690 q 416 750 407 726 q 425 802 425 774 q 417 853 425 829 q 393 895 408 878 q 356 922 378 912 q 310 932 335 932 m 310 1025 q 393 1007 355 1025 q 459 959 431 989 q 503 888 487 929 q 518 802 518 848 q 502 716 518 756 q 457 645 486 675 q 391 597 429 615 q 310 580 353 580 q 229 597 267 580 q 162 645 191 615 q 117 716 134 675 q 100 802 100 756 q 116 888 100 848 q 160 959 132 929 q 227 1007 189 989 q 310 1025 265 1025 z "},"ॐ":{"ha":1480,"x_min":70,"x_max":1400,"o":"m 1067 226 q 1112 222 1090 222 q 1187 237 1154 222 q 1243 279 1221 252 q 1278 343 1266 306 q 1291 427 1291 381 q 1282 493 1291 466 q 1261 537 1274 519 q 1230 562 1248 554 q 1194 570 1213 570 q 1157 562 1175 570 q 1124 541 1140 554 q 1092 512 1107 528 q 1060 477 1076 495 q 1024 439 1042 458 q 986 407 1006 421 q 943 384 966 393 q 895 376 920 376 q 865 377 880 376 q 832 384 850 378 l 831 382 q 845 325 840 354 q 850 269 850 296 q 833 163 850 215 q 783 72 817 112 q 695 8 749 32 q 568 -16 642 -16 q 421 12 487 -16 q 302 87 355 41 q 210 195 250 134 q 141 319 170 255 q 96 446 113 383 q 70 559 78 508 l 159 600 q 187 482 168 543 q 232 365 205 422 q 294 257 259 308 q 370 168 328 206 q 460 108 412 130 q 564 86 509 86 q 628 95 596 86 q 684 126 659 104 q 724 185 709 149 q 740 276 740 222 q 491 493 740 493 q 465 492 479 493 q 436 490 451 492 l 436 593 q 451 593 441 593 q 478 592 461 592 q 587 606 542 592 q 660 643 631 619 q 701 699 688 667 q 713 768 713 731 q 674 873 713 838 q 568 909 634 909 q 499 899 535 909 q 413 866 463 888 l 374 959 q 572 1011 477 1011 q 675 993 629 1011 q 753 941 721 975 q 804 863 786 908 q 822 763 822 817 q 791 635 822 691 q 696 545 760 578 l 696 541 q 735 514 718 528 q 762 492 753 500 q 802 468 779 475 q 846 460 824 460 q 889 465 869 460 q 927 482 908 471 q 965 513 945 494 q 1010 559 985 532 q 1054 604 1033 583 q 1097 641 1075 625 q 1144 665 1120 656 q 1198 673 1168 673 q 1279 654 1242 673 q 1343 600 1316 635 q 1385 519 1370 566 q 1400 417 1400 472 q 1380 297 1400 352 q 1323 202 1360 242 q 1236 139 1286 161 q 1123 116 1185 116 q 1066 121 1090 116 l 1067 226 m 948 1285 q 970 1345 948 1322 q 1026 1369 991 1369 q 1059 1363 1044 1369 q 1085 1345 1074 1356 q 1102 1318 1096 1333 q 1108 1283 1108 1302 q 1102 1250 1108 1265 q 1086 1224 1097 1235 q 1060 1206 1075 1213 q 1029 1200 1046 1200 q 997 1207 1011 1200 q 971 1224 982 1213 q 954 1251 960 1236 q 948 1285 948 1267 m 814 1315 q 842 1242 826 1280 q 882 1171 858 1203 q 942 1118 907 1139 q 1028 1097 977 1097 q 1091 1107 1061 1097 q 1148 1142 1122 1117 q 1197 1208 1175 1166 q 1233 1315 1219 1251 l 1333 1287 q 1287 1167 1315 1221 q 1221 1074 1259 1113 q 1133 1014 1183 1036 q 1021 993 1083 993 q 830 1065 907 993 q 714 1287 753 1137 l 814 1315 z "},"অ":{"ha":1370,"x_min":-24,"x_max":1392,"o":"m 1392 911 l 1227 911 l 1227 -27 l 1161 -27 q 1118 56 1143 16 q 1060 135 1092 97 q 990 208 1027 173 q 913 272 953 242 q 797 180 869 215 q 625 144 725 144 q 497 165 556 144 q 386 220 437 185 q 292 302 335 255 q 213 402 248 349 q 149 513 177 456 q 98 626 120 570 q 61 732 77 682 q 37 825 46 783 l 121 886 l 125 886 q 211 633 162 749 q 320 432 260 517 q 454 300 381 348 q 613 253 528 253 q 724 274 675 253 q 809 331 774 296 q 862 413 844 367 q 881 509 881 459 q 868 590 881 549 q 831 663 855 630 q 771 717 806 695 q 692 743 736 739 l 686 734 q 707 697 699 719 q 715 652 715 676 q 705 600 715 625 q 675 557 694 576 q 632 528 656 538 q 579 517 607 517 q 526 528 551 517 q 481 559 500 539 q 451 608 463 580 q 440 671 440 637 q 457 748 440 714 q 505 805 475 781 q 480 833 494 818 q 451 863 467 848 q 419 890 435 878 q 389 911 404 903 l -24 911 l -24 1011 l 1392 1011 l 1392 911 m 548 911 q 578 884 562 902 q 608 850 595 867 q 667 856 636 856 q 805 825 745 856 q 905 745 865 795 q 967 631 946 695 q 988 501 988 568 q 964 365 988 431 q 1040 302 1003 336 q 1112 229 1076 268 l 1116 229 l 1116 911 l 548 911 z "},"আ":{"ha":1678,"x_min":-24,"x_max":1702,"o":"m 1448 808 q 1439 848 1448 829 q 1416 881 1431 867 q 1380 903 1401 895 q 1335 911 1360 911 l 1227 911 l 1227 -27 l 1161 -27 q 1118 56 1143 16 q 1060 135 1092 97 q 990 208 1027 173 q 913 272 953 242 q 797 180 869 215 q 625 144 725 144 q 497 165 556 144 q 386 220 437 185 q 292 302 335 255 q 213 402 248 349 q 149 513 177 456 q 98 626 120 570 q 61 732 77 682 q 37 825 46 783 l 121 886 l 125 886 q 211 633 162 749 q 320 432 260 517 q 454 300 381 348 q 613 253 528 253 q 724 274 675 253 q 809 331 774 296 q 862 413 844 367 q 881 509 881 459 q 868 590 881 549 q 831 663 855 630 q 771 717 806 695 q 692 743 736 739 l 686 734 q 707 697 699 719 q 715 652 715 676 q 705 600 715 625 q 675 557 694 576 q 632 528 656 538 q 579 517 607 517 q 526 528 551 517 q 481 559 500 539 q 451 608 463 580 q 440 671 440 637 q 457 748 440 714 q 505 805 475 781 q 480 833 494 818 q 451 863 467 848 q 419 890 435 878 q 389 911 404 903 l -24 911 l -24 1011 l 1335 1011 q 1373 1008 1352 1011 q 1417 997 1394 1005 q 1463 977 1440 989 q 1505 946 1486 964 l 1505 951 q 1517 994 1505 977 q 1548 1011 1529 1011 l 1702 1011 l 1702 911 l 1674 911 q 1629 903 1649 911 q 1592 881 1608 895 q 1568 848 1577 867 q 1559 808 1559 829 l 1559 0 l 1448 0 l 1448 808 m 548 911 q 578 884 562 902 q 608 850 595 867 q 667 856 636 856 q 805 825 745 856 q 905 745 865 795 q 967 631 946 695 q 988 501 988 568 q 964 365 988 431 q 1040 302 1003 336 q 1112 229 1076 268 l 1116 229 l 1116 911 l 548 911 z "},"ই":{"ha":824,"x_min":-24,"x_max":865,"o":"m 794 -19 q 736 50 772 13 q 650 125 699 87 q 540 200 600 163 q 410 266 479 236 q 264 317 340 296 q 105 345 187 338 l 116 457 q 143 454 128 456 q 175 450 159 452 q 209 444 192 448 q 239 438 225 441 q 266 435 253 437 q 296 434 278 434 q 364 438 328 434 q 436 452 400 443 q 505 474 472 460 q 563 505 538 487 q 604 547 589 524 q 619 597 619 570 q 604 648 619 626 q 565 685 589 670 q 514 707 542 699 q 463 714 487 714 q 458 714 460 714 q 453 713 456 714 q 423 657 443 682 q 379 616 404 633 q 329 591 355 600 q 280 583 303 583 q 240 590 258 583 q 212 610 223 597 q 194 640 200 623 q 189 675 189 656 q 199 723 189 701 q 229 763 210 745 q 271 794 247 781 q 321 815 295 808 q 315 835 319 822 q 306 863 311 848 q 295 891 300 878 q 286 911 290 904 l -24 911 l -24 1011 l 648 1011 q 624 1080 640 1053 q 587 1121 608 1106 q 540 1140 566 1135 q 487 1145 514 1145 q 431 1141 456 1145 q 381 1131 406 1137 q 329 1121 357 1125 q 262 1116 300 1116 q 130 1138 184 1116 q 42 1198 76 1160 q -6 1284 9 1235 q -24 1388 -22 1333 l 87 1388 q 108 1306 94 1338 q 144 1255 123 1274 q 192 1229 165 1236 q 249 1221 219 1221 q 309 1226 278 1221 q 371 1237 340 1231 q 432 1248 402 1243 q 490 1253 463 1253 q 610 1233 561 1253 q 690 1180 659 1213 q 737 1103 721 1147 q 760 1011 753 1059 l 845 1011 l 845 911 l 406 911 q 412 897 408 907 q 419 873 415 886 q 427 848 423 860 q 432 829 430 836 q 545 810 491 827 q 641 762 600 792 q 708 691 683 732 q 733 600 733 649 q 710 511 733 551 q 649 440 687 471 q 564 386 612 408 q 467 349 516 363 l 467 345 q 584 293 527 323 q 693 225 642 262 q 788 144 745 188 q 865 52 832 100 l 794 -19 z "},"ঈ":{"ha":1170,"x_min":-24,"x_max":1194,"o":"m 271 911 q 301 884 284 902 q 330 850 317 867 q 390 856 359 856 q 510 834 458 856 q 599 777 562 813 q 657 693 635 741 q 685 593 678 646 q 761 660 720 629 q 842 717 801 692 q 923 761 884 743 q 996 787 962 779 l 1093 711 q 1033 625 1062 671 q 980 527 1003 578 q 942 422 956 476 q 927 315 927 368 q 949 135 927 221 q 1015 -19 971 48 l 942 -98 q 888 -14 911 -60 q 849 86 865 33 q 825 197 833 140 q 817 313 817 255 q 829 406 817 360 q 861 495 842 452 q 903 579 880 539 q 947 656 926 620 q 871 610 909 637 q 797 549 833 582 q 727 479 760 515 q 666 406 694 442 q 625 323 650 361 q 565 255 600 284 q 485 209 530 226 q 388 193 441 193 q 276 217 332 193 q 168 294 220 241 l 242 368 q 313 317 277 332 q 383 301 349 301 q 466 324 429 301 q 529 384 503 347 q 569 467 555 421 q 583 558 583 513 q 574 627 583 594 q 544 685 564 660 q 492 726 524 711 q 415 743 460 742 l 409 734 q 427 697 421 716 q 433 659 433 678 q 423 609 433 633 q 396 567 414 585 q 355 538 379 549 q 301 527 331 527 q 243 539 268 527 q 202 571 218 551 q 177 617 185 591 q 168 671 168 643 q 183 744 168 708 q 228 805 198 779 q 203 833 217 818 q 174 863 189 848 q 142 890 158 878 q 112 911 126 903 l -24 911 l -24 1011 l 960 1011 q 938 1077 954 1051 q 901 1119 922 1103 q 857 1140 880 1134 q 811 1145 833 1145 q 718 1141 770 1145 q 610 1131 665 1137 q 504 1121 555 1125 q 414 1116 452 1116 q 278 1139 332 1116 q 190 1199 223 1162 q 142 1286 157 1237 q 125 1388 127 1335 l 237 1388 q 256 1298 239 1331 q 299 1248 274 1265 q 353 1227 324 1232 q 407 1223 382 1223 q 500 1228 448 1223 q 608 1238 553 1232 q 714 1248 663 1244 q 804 1253 766 1253 q 925 1232 876 1253 q 1004 1177 973 1211 q 1050 1100 1035 1143 q 1072 1011 1066 1057 l 1194 1011 l 1194 911 l 271 911 z "},"উ":{"ha":1088,"x_min":-24,"x_max":1112,"o":"m 440 1116 q 304 1139 359 1116 q 217 1199 250 1162 q 169 1286 184 1237 q 152 1388 154 1335 l 263 1388 q 283 1298 265 1331 q 326 1248 300 1265 q 379 1227 351 1232 q 433 1223 408 1223 q 510 1228 474 1223 q 579 1238 545 1232 q 647 1248 613 1244 q 720 1253 682 1253 q 841 1232 792 1253 q 920 1177 889 1211 q 966 1100 951 1143 q 987 1011 982 1057 l 1112 1011 l 1112 911 l 595 911 l 595 639 q 595 584 595 608 q 598 542 595 559 q 605 516 600 525 q 619 507 610 507 q 689 519 655 507 q 755 557 722 532 q 821 623 788 583 q 888 718 854 663 l 898 718 q 963 645 935 685 q 1009 560 991 604 q 1036 469 1027 516 q 1045 375 1045 422 q 1023 230 1045 300 q 954 105 1000 159 q 834 17 907 50 q 663 -16 762 -16 q 488 17 564 -16 q 354 109 412 51 q 253 244 296 166 q 179 410 210 321 q 125 592 148 498 q 83 777 102 686 l 161 837 l 165 837 q 211 655 186 746 q 265 482 235 565 q 333 328 295 399 q 419 204 370 256 q 528 121 467 151 q 665 92 589 92 q 785 117 734 92 q 870 183 836 142 q 920 277 903 224 q 937 385 937 330 q 928 464 937 425 q 901 539 919 503 q 852 485 880 510 q 793 440 825 459 q 725 410 761 421 q 652 399 690 399 q 573 415 606 399 q 521 457 541 431 q 492 514 501 483 q 484 578 484 546 l 484 911 l -24 911 l -24 1011 l 876 1011 q 853 1077 869 1051 q 817 1119 838 1103 q 773 1140 796 1134 q 727 1145 749 1145 q 651 1141 686 1145 q 581 1131 615 1137 q 513 1121 547 1125 q 440 1116 479 1116 z "},"ঊ":{"ha":1166,"x_min":-24,"x_max":1190,"o":"m 512 123 q 426 240 463 176 q 360 385 389 305 q 308 562 331 465 q 267 777 286 659 l 345 837 l 349 837 q 381 671 361 758 q 426 503 400 585 q 486 345 452 420 q 562 215 520 271 q 654 125 604 159 q 764 92 705 92 q 855 113 810 92 q 936 171 900 133 q 993 263 971 209 q 1015 385 1015 317 q 1006 464 1015 425 q 980 539 998 503 q 931 485 958 510 q 871 440 903 459 q 804 410 840 421 q 731 399 768 399 q 652 415 684 399 q 600 457 620 431 q 571 514 580 483 q 562 578 562 546 l 562 911 l -24 911 l -24 1011 l 954 1011 q 930 1080 946 1053 q 893 1121 914 1106 q 846 1140 871 1135 q 793 1145 820 1145 q 729 1141 762 1145 q 661 1131 696 1137 q 590 1121 627 1125 q 516 1116 554 1116 q 384 1138 437 1116 q 296 1198 330 1160 q 247 1284 262 1235 q 230 1388 232 1333 l 341 1388 q 361 1298 343 1331 q 404 1248 378 1265 q 458 1227 429 1232 q 512 1223 487 1223 q 588 1228 552 1223 q 657 1238 623 1232 q 726 1248 692 1244 q 795 1253 760 1253 q 916 1233 867 1253 q 996 1180 964 1213 q 1043 1103 1027 1147 q 1065 1011 1059 1059 l 1190 1011 l 1190 911 l 673 911 l 673 639 q 674 584 673 608 q 676 542 674 559 q 684 516 679 525 q 698 507 688 507 q 767 519 734 507 q 834 557 801 532 q 900 623 867 583 q 967 718 932 663 l 977 718 q 1043 643 1015 684 q 1089 558 1071 602 q 1115 467 1107 513 q 1124 373 1124 420 q 1100 223 1124 294 q 1024 99 1076 153 q 892 14 972 45 q 699 -18 812 -18 q 503 14 587 -18 q 357 102 419 46 q 252 234 295 158 q 177 399 208 311 q 124 583 146 487 q 81 777 102 680 l 159 837 l 163 837 q 200 685 181 761 q 240 538 218 610 q 288 401 262 467 q 347 281 314 336 q 419 186 379 227 q 509 120 459 144 l 512 123 z "},"ঋ":{"ha":1179,"x_min":92,"x_max":1203,"o":"m 724 -27 q 659 84 701 31 q 563 184 616 137 q 449 270 509 231 q 331 340 389 310 q 220 391 273 371 q 132 421 168 412 l 132 567 q 214 618 168 591 q 315 673 261 646 q 426 725 368 700 q 541 770 483 750 q 525 814 536 791 q 494 855 514 838 q 456 813 479 833 q 404 779 433 793 q 341 755 375 764 q 269 746 307 746 q 204 755 236 746 q 147 781 172 764 q 107 824 122 798 q 92 884 92 850 q 100 933 92 911 q 124 970 109 955 q 158 994 138 985 q 201 1002 178 1002 q 245 993 224 1002 q 280 969 265 984 q 303 934 294 954 q 311 892 311 914 q 303 852 311 873 l 305 848 q 356 857 332 848 q 400 885 380 865 q 437 935 420 904 q 469 1011 454 966 l 477 1011 q 587 906 548 962 q 637 798 626 850 l 680 806 l 680 1011 l 791 1011 l 791 393 q 870 330 831 364 q 945 256 909 296 l 949 256 l 949 1011 l 1203 1011 l 1203 911 l 1061 911 l 1061 0 l 994 0 q 911 139 965 73 q 791 260 857 205 l 791 -27 l 724 -27 m 680 229 l 680 694 q 613 679 652 691 q 531 649 574 667 q 443 611 488 631 q 358 570 398 590 q 288 533 319 551 q 240 505 256 515 l 240 490 q 348 447 290 472 q 465 389 406 421 q 577 316 523 356 q 675 229 632 276 l 680 229 z "},"ঌ":{"ha":986,"x_min":88,"x_max":949,"o":"m 572 3 q 583 48 580 24 q 586 100 586 72 q 571 216 586 165 q 529 300 555 266 q 469 352 503 334 q 397 369 435 369 q 330 356 364 369 q 269 317 296 343 q 224 250 241 290 q 206 155 206 210 q 209 124 206 136 q 216 100 211 113 l 223 102 q 229 134 223 117 q 248 166 235 152 q 280 191 260 181 q 326 201 299 201 q 371 192 351 201 q 405 169 391 184 q 427 135 419 155 q 435 92 435 115 q 422 41 435 64 q 390 4 410 19 q 341 -19 369 -12 q 283 -27 313 -27 q 221 -18 252 -27 q 165 13 190 -9 q 125 72 140 35 q 109 166 109 109 q 134 294 109 237 q 199 393 158 352 q 292 456 239 433 q 402 478 345 478 q 509 456 457 478 q 602 389 562 434 q 666 276 642 345 q 690 116 690 208 q 690 100 690 109 q 690 81 690 91 q 761 159 732 123 q 806 227 789 195 q 830 286 823 258 q 837 338 837 313 q 816 416 837 383 q 759 475 795 450 q 675 520 723 500 q 573 560 627 541 q 463 602 519 580 q 352 653 406 624 q 250 720 298 682 q 166 811 202 758 q 109 933 130 863 q 88 1093 88 1002 l 199 1093 q 221 956 199 1014 q 278 854 242 897 q 362 782 314 812 q 464 728 410 751 q 574 686 517 705 q 685 647 631 667 q 787 602 739 627 q 871 544 835 578 q 928 463 907 509 q 949 351 949 416 q 928 232 949 287 q 871 126 908 176 q 782 31 833 77 q 669 -60 730 -16 l 649 -75 l 572 3 z "},"এ":{"ha":1038,"x_min":41,"x_max":970,"o":"m 86 378 l 170 313 l 170 309 q 156 274 161 290 q 152 243 152 258 q 168 194 152 214 q 208 160 183 173 q 261 140 232 146 q 319 134 291 134 q 405 145 362 134 q 492 171 448 157 q 585 196 537 184 q 684 208 632 208 q 732 204 710 208 q 774 192 754 200 q 814 171 795 184 q 856 140 834 158 l 859 140 l 859 900 q 719 863 789 890 q 594 793 650 835 q 504 697 538 751 q 469 582 469 644 q 476 528 469 556 q 496 471 483 500 l 504 472 q 510 505 504 488 q 529 537 516 522 q 561 562 541 552 q 606 571 580 571 q 651 562 631 571 q 686 539 671 553 q 708 505 700 524 q 715 466 715 486 q 709 428 715 449 q 686 388 703 407 q 643 357 670 370 q 573 344 615 344 q 484 362 524 344 q 417 412 445 380 q 375 485 390 444 q 361 572 361 526 q 382 683 361 628 q 441 786 404 737 q 530 876 479 835 q 641 947 581 918 q 765 994 700 977 q 895 1011 829 1011 q 932 1009 913 1011 q 970 1004 951 1008 l 970 -71 l 902 -71 q 872 -14 892 -43 q 823 39 852 15 q 756 79 793 63 q 676 94 719 94 q 594 83 637 94 q 503 57 550 71 q 405 32 455 43 q 302 20 354 20 q 192 38 241 20 q 110 87 144 56 q 59 159 77 118 q 41 244 41 199 q 51 311 41 277 q 82 378 60 345 l 86 378 z "},"ঐ":{"ha":1330,"x_min":41,"x_max":1262,"o":"m 86 378 l 170 313 l 170 309 q 156 274 161 290 q 152 243 152 258 q 168 194 152 214 q 208 160 183 173 q 261 140 232 146 q 319 134 291 134 q 405 145 362 134 q 492 171 448 157 q 585 196 537 184 q 684 208 632 208 q 732 204 710 208 q 774 192 754 200 q 814 171 795 184 q 856 140 834 158 l 859 140 l 859 900 q 719 863 789 890 q 594 793 650 835 q 504 697 538 751 q 469 582 469 644 q 476 528 469 556 q 496 471 483 500 l 504 472 q 510 505 504 488 q 529 537 516 522 q 561 562 541 552 q 606 571 580 571 q 651 562 631 571 q 686 539 671 553 q 708 505 700 524 q 715 466 715 486 q 709 428 715 449 q 686 388 703 407 q 643 357 670 370 q 573 344 615 344 q 484 362 524 344 q 417 412 445 380 q 375 485 390 444 q 361 572 361 526 q 382 683 361 628 q 441 786 404 737 q 530 876 479 835 q 641 947 581 918 q 765 994 700 977 q 895 1011 829 1011 q 932 1009 913 1011 q 970 1004 951 1008 l 970 730 q 1047 764 1013 741 q 1106 820 1082 787 q 1142 892 1130 852 q 1155 977 1155 932 q 1147 1040 1155 1010 q 1121 1094 1140 1070 q 1071 1131 1103 1117 q 991 1145 1040 1145 q 931 1141 963 1145 q 864 1131 899 1137 q 792 1121 829 1125 q 718 1116 755 1116 q 583 1139 637 1116 q 496 1200 529 1162 q 449 1287 463 1238 q 432 1388 434 1336 l 543 1388 q 563 1298 545 1331 q 606 1248 581 1265 q 660 1227 631 1232 q 713 1223 688 1223 q 789 1228 753 1223 q 860 1238 825 1232 q 927 1248 894 1244 q 996 1253 961 1253 q 1114 1233 1063 1253 q 1197 1178 1164 1214 q 1246 1090 1230 1141 q 1262 974 1262 1038 q 1244 854 1262 911 q 1190 751 1226 797 q 1098 672 1153 705 q 970 627 1044 640 l 970 -71 l 902 -71 q 872 -14 892 -43 q 823 39 852 15 q 756 79 793 63 q 676 94 719 94 q 594 83 637 94 q 503 57 550 71 q 405 32 455 43 q 302 20 354 20 q 192 38 241 20 q 110 87 144 56 q 59 159 77 118 q 41 244 41 199 q 51 311 41 277 q 82 378 60 345 l 86 378 z "},"ও":{"ha":975,"x_min":61,"x_max":924,"o":"m 689 607 q 716 666 709 633 q 722 731 722 698 q 711 807 722 770 q 677 873 699 844 q 624 919 656 901 q 553 936 593 936 q 506 931 530 936 q 460 918 482 927 q 420 895 439 909 q 387 861 401 880 l 391 854 q 399 854 395 854 q 408 854 404 854 q 452 845 431 854 q 490 820 473 836 q 516 782 506 804 q 526 735 526 760 q 517 690 526 712 q 492 652 508 669 q 454 626 476 635 q 404 616 431 616 q 348 627 375 616 q 301 660 321 639 q 268 712 280 682 q 255 779 255 742 q 280 877 255 830 q 346 959 304 924 q 443 1016 388 995 q 559 1038 498 1038 q 676 1014 626 1038 q 761 949 727 989 q 812 856 795 909 q 829 747 829 804 q 819 661 829 704 q 788 576 809 617 q 846 523 821 554 q 889 455 871 492 q 915 379 906 419 q 924 300 924 340 q 902 180 924 237 q 837 79 879 122 q 735 9 795 35 q 600 -16 675 -16 q 483 2 537 -16 q 381 52 428 20 q 294 125 334 83 q 221 215 254 168 q 162 314 189 263 q 117 415 136 366 q 83 511 97 465 q 61 593 69 556 l 144 651 l 147 651 q 227 423 180 527 q 331 245 274 319 q 452 130 387 171 q 589 88 517 88 q 685 106 642 88 q 758 155 728 124 q 804 225 788 185 q 821 309 821 265 q 815 359 821 334 q 801 407 810 384 q 779 449 792 429 q 749 481 766 468 q 724 430 742 453 q 682 392 706 408 q 630 367 658 376 q 576 358 603 358 q 539 364 558 358 q 506 383 521 370 q 482 415 492 395 q 473 463 473 435 q 494 533 473 505 q 547 576 515 560 q 617 600 579 593 q 689 607 655 606 z "},"ঔ":{"ha":1178,"x_min":61,"x_max":1110,"o":"m 689 607 q 716 666 709 633 q 722 731 722 698 q 711 807 722 770 q 677 873 699 844 q 624 919 656 901 q 553 936 593 936 q 506 931 530 936 q 460 918 482 927 q 420 895 439 909 q 387 861 401 880 l 391 854 q 399 854 395 854 q 408 854 404 854 q 452 845 431 854 q 490 820 473 836 q 516 782 506 804 q 526 735 526 760 q 517 690 526 712 q 492 652 508 669 q 454 626 476 635 q 404 616 431 616 q 348 627 375 616 q 301 660 321 639 q 268 712 280 682 q 255 779 255 742 q 280 877 255 830 q 346 959 304 924 q 443 1016 388 995 q 559 1038 498 1038 q 676 1014 626 1038 q 761 949 727 989 q 812 856 795 909 q 829 747 829 804 q 807 621 829 682 q 904 673 866 645 q 965 732 943 702 q 995 793 987 762 q 1004 854 1004 825 q 980 948 1004 909 q 918 1015 956 987 q 829 1059 879 1042 q 726 1090 779 1077 q 622 1113 673 1103 q 529 1135 570 1123 q 444 1169 483 1149 q 375 1218 404 1189 q 328 1284 346 1246 q 307 1372 310 1322 l 413 1372 q 433 1305 413 1333 q 486 1259 452 1278 q 564 1227 519 1240 q 659 1203 608 1215 q 762 1181 709 1192 q 865 1153 814 1169 q 960 1114 915 1137 q 1038 1058 1004 1091 q 1090 977 1071 1024 q 1110 866 1110 930 q 1096 769 1110 816 q 1050 679 1082 722 q 966 599 1018 636 q 837 533 913 562 q 874 482 858 509 q 902 425 890 454 q 919 363 913 395 q 924 300 924 332 q 902 180 924 237 q 837 79 879 122 q 735 9 795 35 q 600 -16 675 -16 q 483 2 537 -16 q 381 52 428 20 q 294 125 334 83 q 221 215 254 168 q 162 314 189 263 q 117 415 136 366 q 83 511 97 465 q 61 593 69 556 l 144 651 l 147 651 q 227 423 180 527 q 331 245 274 319 q 452 130 387 171 q 589 88 517 88 q 685 106 642 88 q 758 155 728 124 q 804 225 788 185 q 821 309 821 265 q 815 359 821 334 q 801 407 810 384 q 779 449 792 429 q 749 481 766 468 q 724 430 742 453 q 682 392 706 408 q 630 367 658 376 q 576 358 603 358 q 539 364 558 358 q 506 383 521 370 q 482 415 492 395 q 473 463 473 435 q 494 533 473 505 q 547 576 515 560 q 617 600 579 593 q 689 607 655 606 z "},"ৠ":{"ha":1179,"x_min":92,"x_max":1203,"o":"m 791 -27 q 717 -48 754 -37 q 648 -71 680 -60 q 591 -92 616 -82 q 553 -111 566 -102 l 553 -119 q 690 -171 624 -142 q 817 -243 757 -201 l 817 -349 l 809 -349 q 717 -282 765 -310 q 621 -235 669 -255 q 528 -202 573 -215 q 446 -180 484 -189 l 446 -48 q 487 -25 462 -37 q 544 0 513 -13 q 611 25 576 13 q 683 50 647 38 q 609 139 652 96 q 517 220 566 182 q 416 291 469 258 q 313 350 363 324 q 215 394 262 376 q 132 421 168 412 l 132 567 q 214 618 168 591 q 315 673 261 646 q 426 725 368 700 q 541 770 483 750 q 525 814 536 791 q 494 855 514 838 q 456 813 479 833 q 404 779 433 793 q 341 755 375 764 q 269 746 307 746 q 204 755 236 746 q 147 781 172 764 q 107 824 122 798 q 92 884 92 850 q 100 933 92 911 q 124 970 109 955 q 158 994 138 985 q 201 1002 178 1002 q 245 993 224 1002 q 280 969 265 984 q 303 934 294 954 q 311 892 311 914 q 303 852 311 873 l 305 848 q 356 857 332 848 q 400 885 380 865 q 437 935 420 904 q 469 1011 454 966 l 477 1011 q 587 906 548 962 q 637 798 626 850 l 680 806 l 680 1011 l 791 1011 l 791 393 q 870 330 831 364 q 945 256 909 296 l 949 256 l 949 1011 l 1203 1011 l 1203 911 l 1061 911 l 1061 0 l 994 0 q 911 139 965 73 q 791 260 857 205 l 791 -27 m 680 229 l 680 694 q 613 679 652 691 q 531 649 574 667 q 443 611 488 631 q 358 570 398 590 q 288 533 319 551 q 240 505 256 515 l 240 490 q 348 447 290 472 q 465 389 406 421 q 577 316 523 356 q 675 229 632 276 l 680 229 z "},"ৡ":{"ha":1323,"x_min":88,"x_max":1286,"o":"m 565 346 q 550 461 565 411 q 508 546 534 511 q 448 597 482 580 q 376 614 414 614 q 309 602 343 614 q 248 562 275 589 q 203 496 220 536 q 185 401 185 456 q 188 370 185 381 q 195 346 190 358 l 202 347 q 208 380 202 362 q 227 412 214 397 q 259 436 239 427 q 305 446 278 446 q 350 438 330 446 q 384 415 370 429 q 406 380 398 400 q 414 338 414 360 q 401 287 414 309 q 369 249 389 264 q 320 226 348 234 q 262 218 292 218 q 200 227 231 218 q 144 258 169 236 q 104 317 119 280 q 88 412 88 355 q 113 540 88 482 q 178 638 137 597 q 271 701 218 679 q 381 724 324 724 q 488 702 436 724 q 581 635 541 680 q 645 522 621 590 q 669 361 669 454 q 669 345 669 354 q 669 327 669 336 q 739 407 711 368 q 784 481 767 446 q 809 547 802 517 q 816 600 816 577 q 797 667 816 639 q 744 716 777 696 q 667 751 711 736 q 574 779 623 766 q 472 805 524 792 q 371 835 420 818 q 277 874 321 852 q 200 928 233 897 q 148 1004 168 960 q 129 1106 129 1047 l 241 1106 q 260 1031 241 1062 q 312 979 279 1001 q 389 942 345 957 q 483 915 433 927 q 584 891 532 903 q 686 865 636 880 q 779 829 735 850 q 856 779 823 809 q 908 707 889 749 q 928 608 928 666 q 922 542 928 574 q 1054 508 989 533 q 1171 440 1120 482 q 1254 340 1223 399 q 1286 205 1286 281 q 1265 90 1286 146 q 1208 -20 1245 34 q 1120 -123 1172 -73 q 1006 -218 1069 -173 l 986 -233 l 909 -155 q 920 -110 917 -134 q 923 -58 923 -86 q 908 58 923 7 q 866 142 892 108 q 806 194 840 176 q 734 211 772 211 q 667 198 701 211 q 606 159 633 185 q 561 92 578 132 q 543 -3 543 52 q 546 -34 543 -22 q 553 -58 548 -45 l 560 -56 q 566 -24 560 -41 q 585 8 572 -6 q 617 33 597 23 q 663 43 636 43 q 708 34 688 43 q 742 11 728 26 q 764 -23 756 -3 q 772 -66 772 -43 q 760 -117 772 -94 q 727 -154 747 -139 q 678 -177 706 -170 q 620 -185 650 -185 q 558 -176 589 -185 q 502 -145 527 -168 q 462 -86 477 -123 q 446 8 446 -49 q 475 148 446 86 q 552 250 504 209 q 565 346 565 291 m 804 313 q 890 274 849 301 q 961 203 930 247 q 1009 98 991 159 q 1027 -42 1027 37 q 1027 -58 1027 -50 q 1027 -77 1027 -67 q 1097 3 1069 -36 q 1142 78 1125 43 q 1167 143 1160 113 q 1174 196 1174 174 q 1152 282 1174 241 q 1090 354 1129 322 q 1000 410 1052 387 q 890 443 948 433 q 804 313 859 374 z "},"ক":{"ha":1220,"x_min":-24,"x_max":1244,"o":"m 615 911 l -24 911 l -24 1011 l 1244 1011 l 1244 911 l 726 911 l 726 806 q 890 782 812 804 q 1029 718 969 760 q 1126 616 1090 676 q 1162 479 1162 556 q 1143 379 1162 422 q 1094 307 1124 336 q 1023 263 1063 278 q 941 248 983 248 q 872 261 899 248 q 830 292 846 273 q 808 331 814 310 q 802 368 802 352 q 809 407 802 389 q 831 440 817 426 q 865 463 845 454 q 909 471 884 471 q 954 462 935 471 q 985 438 972 452 q 1003 406 997 423 q 1009 374 1009 389 l 1017 373 q 1046 408 1036 384 q 1055 464 1055 432 q 1038 544 1055 505 q 981 616 1020 584 q 879 670 941 648 q 726 694 816 691 l 726 -27 l 660 -27 q 601 80 637 28 q 517 178 564 132 q 418 264 471 224 q 312 335 365 304 q 208 389 258 367 q 115 421 157 411 l 115 567 q 220 635 163 598 q 343 706 278 672 q 476 768 408 741 q 615 806 545 795 l 615 911 m 615 229 l 615 694 q 546 677 583 690 q 471 647 509 665 q 396 610 433 630 q 326 570 359 589 q 267 533 293 550 q 224 505 240 515 l 224 490 q 424 389 325 454 q 611 229 524 324 l 615 229 z "},"খ":{"ha":958,"x_min":68,"x_max":982,"o":"m 68 875 q 77 922 68 900 q 102 960 86 944 q 138 986 117 977 q 183 995 159 995 q 229 986 208 995 q 267 961 251 977 q 291 925 282 945 q 300 881 300 904 q 298 859 300 869 q 292 839 296 848 l 298 832 q 357 850 326 838 q 417 883 389 862 q 470 937 446 905 q 508 1013 494 968 l 517 1013 q 563 972 543 995 q 596 926 583 950 q 616 876 609 901 q 623 825 623 850 q 610 746 623 785 q 576 670 598 706 q 524 603 554 634 q 456 547 493 571 q 376 507 418 523 q 288 486 334 491 l 288 476 q 398 437 340 460 q 514 384 456 414 q 627 315 572 353 q 724 229 681 276 l 728 229 l 728 1011 l 982 1011 l 982 911 l 840 911 l 840 -27 l 773 -27 q 710 79 751 28 q 617 174 669 130 q 507 257 566 219 q 389 326 448 296 q 276 376 330 355 q 180 408 222 397 l 180 563 q 250 582 212 570 q 323 610 287 593 q 394 648 360 627 q 453 694 427 669 q 494 747 479 719 q 509 804 509 774 q 503 840 509 822 q 461 799 488 819 q 400 763 435 779 q 328 739 366 748 q 251 730 290 730 q 181 738 214 730 q 123 763 149 745 q 83 807 98 780 q 68 875 68 835 z "},"গ":{"ha":998,"x_min":81,"x_max":1021,"o":"m 768 1011 l 1021 1011 l 1021 911 l 879 911 l 879 0 l 768 0 l 768 555 q 694 708 730 638 q 621 827 659 777 q 536 905 582 877 q 432 932 491 932 q 347 916 385 932 q 280 874 309 900 q 229 819 250 849 q 193 761 207 789 q 259 782 224 775 q 330 789 294 789 q 424 777 378 789 q 506 737 470 764 q 564 669 542 710 q 586 573 586 629 q 572 503 586 540 q 536 427 559 465 q 484 352 513 389 q 423 281 454 315 q 361 218 392 247 q 304 170 330 190 l 235 237 q 283 279 256 254 q 336 332 309 304 q 388 391 362 360 q 433 451 413 421 q 464 510 452 481 q 476 562 476 538 q 465 621 476 597 q 433 660 453 645 q 388 680 414 674 q 333 686 361 686 q 279 682 307 686 q 227 670 252 677 q 179 654 201 663 q 140 636 157 646 l 81 721 q 99 797 85 758 q 137 872 113 836 q 192 941 160 909 q 261 996 223 972 q 342 1034 299 1020 q 432 1048 385 1048 q 550 1023 498 1048 q 643 961 602 999 q 714 877 684 923 q 768 787 745 831 l 768 1011 z "},"ঘ":{"ha":914,"x_min":-24,"x_max":938,"o":"m 185 515 q 232 545 205 528 q 291 582 258 562 q 168 664 211 606 q 125 810 125 721 q 129 858 125 833 q 139 911 132 883 l -24 911 l -24 1011 l 938 1011 l 938 911 l 795 911 l 795 -27 l 729 -27 q 670 76 707 28 q 586 164 633 124 q 487 238 540 205 q 381 297 435 272 q 278 341 328 323 q 185 370 227 359 l 185 515 m 294 438 q 396 406 345 422 q 495 365 446 389 q 590 309 544 342 q 680 229 637 276 l 684 229 l 684 911 l 251 911 q 240 859 243 883 q 237 812 237 836 q 273 702 237 741 q 368 664 309 664 q 415 668 393 664 q 457 676 438 671 q 492 686 477 681 q 517 694 507 691 l 577 610 q 493 571 536 593 q 412 528 450 549 q 343 487 374 506 q 294 455 312 467 l 294 438 z "},"ঙ":{"ha":1082,"x_min":81,"x_max":1045,"o":"m 739 1149 q 819 1136 784 1149 q 878 1098 854 1122 q 913 1041 901 1074 q 926 969 926 1008 q 898 863 926 907 q 827 791 870 819 q 732 750 784 764 q 631 737 680 737 q 535 749 581 737 q 557 627 538 677 q 603 545 577 576 q 654 500 628 514 q 694 487 680 487 q 733 503 712 487 q 775 545 754 519 q 816 599 796 570 q 851 653 836 628 q 877 697 867 679 q 888 718 886 715 l 898 718 q 966 656 938 695 q 1012 571 994 617 q 1037 478 1029 526 q 1045 391 1045 431 q 1034 292 1045 341 q 999 197 1022 242 q 944 113 977 152 q 869 45 911 74 q 777 0 827 16 q 667 -16 726 -16 q 540 5 599 -16 q 430 63 481 26 q 336 150 379 100 q 257 256 292 199 q 193 372 221 312 q 142 489 164 431 q 105 598 121 546 q 81 691 90 650 l 159 751 l 163 751 q 219 574 189 659 q 285 415 249 489 q 362 281 321 342 q 451 178 404 221 q 551 112 498 135 q 663 88 604 88 q 780 115 728 88 q 867 187 831 142 q 923 287 903 231 q 942 401 942 343 q 933 475 942 439 q 907 544 924 511 q 866 488 893 517 q 807 435 839 459 q 742 396 775 412 q 685 380 709 380 q 645 388 670 380 q 590 412 619 395 q 531 459 561 430 q 478 531 502 488 q 438 634 454 575 q 423 772 423 694 l 423 796 q 352 847 385 819 q 291 909 319 876 q 241 979 262 943 q 205 1052 219 1015 l 294 1118 l 298 1118 q 317 1075 304 1099 q 346 1024 329 1050 q 385 972 363 998 q 433 923 406 945 q 474 1007 446 966 q 544 1079 503 1048 q 634 1130 584 1111 q 739 1149 684 1149 m 611 851 q 649 853 627 851 q 693 862 671 856 q 738 877 716 867 q 778 899 760 886 q 806 930 795 912 q 817 971 817 948 q 794 1020 817 1004 q 730 1036 772 1036 q 674 1028 703 1036 q 620 1000 646 1020 q 573 946 594 980 q 538 862 551 913 q 573 854 555 857 q 611 851 591 851 z "},"চ":{"ha":838,"x_min":-24,"x_max":862,"o":"m 767 500 q 754 395 767 452 q 716 281 741 338 q 654 170 691 224 q 571 75 618 117 q 469 9 525 34 q 349 -16 413 -16 q 320 -9 339 -16 q 277 16 300 -2 q 230 62 254 33 q 185 135 205 91 q 152 238 165 178 q 139 375 139 297 l 139 911 l -24 911 l -24 1011 l 862 1011 l 862 911 l 250 911 l 250 795 q 334 714 291 747 q 428 661 377 681 q 540 631 479 640 q 680 622 602 622 q 724 603 707 614 q 750 576 741 591 q 763 541 760 560 q 767 500 767 522 m 653 512 q 623 510 637 511 q 598 509 609 509 q 506 518 552 509 q 414 543 459 527 q 328 583 370 559 q 250 637 286 607 l 250 375 q 260 260 250 312 q 288 170 270 208 q 329 111 305 132 q 382 90 353 90 q 439 107 408 90 q 501 153 470 124 q 561 222 532 182 q 611 307 589 262 q 647 402 633 353 q 660 500 660 452 l 653 512 z "}}}
